<svg width="280" height="59" viewBox="0 0 215 59" fill="none" xmlns="http://www.w3.org/2000/svg">
<path d="M78.5 12.9999L78.2909 12.022L78.5 12.9999ZM214.421 35.0418C214.935 34.8397 215.188 34.2592 214.986 33.7453L211.693 25.3694C211.49 24.8555 210.91 24.6026 210.396 24.8047C209.882 25.0068 209.629 25.5873 209.831 26.1013L212.759 33.5464L205.313 36.4738C204.799 36.6759 204.547 37.2564 204.749 37.7703C204.951 38.2843 205.531 38.5372 206.045 38.3351L214.421 35.0418ZM4.00004 58.9999C4.90148 59.4328 4.90127 59.4333 4.90113 59.4336C4.90116 59.4335 4.90107 59.4337 4.90114 59.4335C4.90127 59.4333 4.90165 59.4325 4.90227 59.4312C4.90352 59.4286 4.90575 59.4241 4.90899 59.4175C4.91546 59.4044 4.92594 59.3833 4.94051 59.3544C4.96966 59.2967 5.01521 59.2081 5.07797 59.09C5.20347 58.854 5.39777 58.5007 5.66722 58.0432C6.20612 57.1284 7.04556 55.7974 8.23646 54.1563C10.6182 50.8742 14.4056 46.3516 20.0068 41.4357C31.2037 31.6087 49.674 20.1873 78.7091 13.9778L78.2909 12.022C48.9185 18.3037 30.1388 29.8823 18.6876 39.9325C12.9647 44.9552 9.07862 49.5905 6.61775 52.9817C5.38737 54.6772 4.51328 56.0617 3.94397 57.0281C3.65931 57.5114 3.45083 57.8901 3.31209 58.1511C3.24272 58.2815 3.19078 58.3825 3.15547 58.4524C3.13782 58.4873 3.12432 58.5145 3.11487 58.5337C3.11015 58.5433 3.10644 58.5509 3.10374 58.5564C3.10238 58.5592 3.10128 58.5615 3.10043 58.5632C3.1 58.5641 3.09954 58.5651 3.09933 58.5655C3.09894 58.5663 3.09861 58.567 4.00004 58.9999ZM78.7091 13.9778C107.682 7.78155 141.388 13.012 167.931 19.8398C181.187 23.2497 192.625 27.0492 200.747 29.996C204.808 31.4693 208.039 32.7289 210.253 33.6195C211.36 34.0648 212.213 34.4177 212.788 34.659C213.075 34.7796 213.293 34.8723 213.439 34.9346C213.512 34.9658 213.566 34.9893 213.603 35.005C213.621 35.0128 213.634 35.0187 213.643 35.0225C213.648 35.0244 213.651 35.0259 213.653 35.0268C213.654 35.0272 213.655 35.0275 213.655 35.0278C213.656 35.0279 213.656 35.028 214.055 34.1112C214.454 33.1944 214.454 33.1942 214.453 33.1938C214.453 33.1935 214.451 33.1931 214.45 33.1925C214.448 33.1914 214.444 33.1897 214.439 33.1876C214.429 33.1833 214.414 33.177 214.395 33.1688C214.357 33.1522 214.3 33.1278 214.225 33.0957C214.075 33.0317 213.853 32.9372 213.561 32.8147C212.978 32.5699 212.116 32.2131 210.999 31.764C208.766 30.8657 205.514 29.5978 201.429 28.1159C193.261 25.1526 181.761 21.3322 168.429 17.9029C141.797 11.0523 107.725 5.72712 78.2909 12.022L78.7091 13.9778Z" fill="black"/>
</svg>
