<?xml version="1.0" encoding="UTF-8"?>
<svg xmlns="http://www.w3.org/2000/svg" xmlns:xlink="http://www.w3.org/1999/xlink" width="18px" height="px" viewBox="0 0 18 18" version="1.1">
<g id="surface1">
<path style=" stroke:none;fill-rule:nonzero;fill:rgb(15.686275%,18.82353%,26.666668%);fill-opacity:1;" d="M 10.890625 3.601562 C 11.101562 3.597656 11.308594 3.597656 11.519531 3.601562 C 11.664062 3.746094 11.621094 3.902344 11.621094 4.101562 C 11.621094 4.191406 11.621094 4.28125 11.621094 4.375 C 11.621094 4.472656 11.621094 4.570312 11.621094 4.671875 C 11.621094 4.777344 11.621094 4.878906 11.621094 4.988281 C 11.621094 5.332031 11.621094 5.675781 11.621094 6.019531 C 11.621094 6.257812 11.621094 6.496094 11.621094 6.730469 C 11.621094 7.230469 11.621094 7.730469 11.621094 8.230469 C 11.621094 8.808594 11.621094 9.382812 11.621094 9.960938 C 11.621094 10.515625 11.621094 11.070312 11.621094 11.625 C 11.621094 11.863281 11.621094 12.101562 11.621094 12.335938 C 11.621094 12.667969 11.621094 12.996094 11.621094 13.328125 C 11.621094 13.425781 11.621094 13.523438 11.621094 13.625 C 11.621094 13.714844 11.621094 13.804688 11.621094 13.898438 C 11.621094 13.976562 11.621094 14.054688 11.621094 14.132812 C 11.609375 14.308594 11.609375 14.308594 11.519531 14.398438 C 11.308594 14.402344 11.101562 14.402344 10.890625 14.398438 C 10.78125 14.183594 10.789062 14.046875 10.789062 13.804688 C 10.789062 13.714844 10.789062 13.628906 10.789062 13.535156 C 10.789062 13.441406 10.789062 13.34375 10.789062 13.242188 C 10.789062 13.140625 10.789062 13.039062 10.789062 12.9375 C 10.789062 12.597656 10.789062 12.261719 10.789062 11.925781 C 10.789062 11.691406 10.789062 11.457031 10.789062 11.226562 C 10.789062 10.734375 10.789062 10.246094 10.789062 9.753906 C 10.789062 9.1875 10.789062 8.621094 10.789062 8.054688 C 10.789062 7.511719 10.789062 6.96875 10.789062 6.421875 C 10.789062 6.191406 10.789062 5.957031 10.789062 5.726562 C 10.789062 5.402344 10.789062 5.078125 10.789062 4.757812 C 10.789062 4.660156 10.789062 4.5625 10.789062 4.464844 C 10.789062 4.375 10.789062 4.289062 10.789062 4.195312 C 10.789062 4.121094 10.789062 4.042969 10.789062 3.964844 C 10.800781 3.78125 10.800781 3.78125 10.890625 3.601562 Z M 10.890625 3.601562 "/>
<path style=" stroke:none;fill-rule:nonzero;fill:rgb(15.686275%,18.82353%,26.666668%);fill-opacity:1;" d="M 6.746094 3.941406 C 7.019531 3.960938 7.019531 3.960938 7.199219 4.140625 C 7.222656 4.3125 7.222656 4.3125 7.222656 4.53125 C 7.222656 4.652344 7.222656 4.652344 7.222656 4.777344 C 7.222656 4.867188 7.222656 4.957031 7.222656 5.050781 C 7.222656 5.144531 7.222656 5.238281 7.222656 5.335938 C 7.226562 5.648438 7.222656 5.964844 7.222656 6.277344 C 7.222656 6.496094 7.222656 6.710938 7.222656 6.929688 C 7.226562 7.386719 7.222656 7.839844 7.222656 8.296875 C 7.222656 8.882812 7.222656 9.46875 7.222656 10.050781 C 7.226562 10.5 7.222656 10.949219 7.222656 11.398438 C 7.222656 11.613281 7.222656 11.832031 7.222656 12.046875 C 7.226562 12.347656 7.222656 12.648438 7.222656 12.949219 C 7.222656 13.039062 7.222656 13.128906 7.222656 13.222656 C 7.222656 13.304688 7.222656 13.386719 7.222656 13.46875 C 7.222656 13.542969 7.222656 13.613281 7.222656 13.6875 C 7.199219 13.859375 7.199219 13.859375 7.019531 14.039062 C 6.746094 14.058594 6.746094 14.058594 6.480469 14.039062 C 6.339844 13.898438 6.378906 13.761719 6.378906 13.5625 C 6.378906 13.480469 6.378906 13.398438 6.378906 13.3125 C 6.378906 13.171875 6.378906 13.171875 6.378906 13.03125 C 6.378906 12.9375 6.378906 12.839844 6.378906 12.738281 C 6.378906 12.417969 6.378906 12.097656 6.378906 11.777344 C 6.378906 11.558594 6.378906 11.335938 6.378906 11.113281 C 6.378906 10.648438 6.378906 10.183594 6.378906 9.71875 C 6.378906 9.121094 6.378906 8.523438 6.378906 7.925781 C 6.378906 7.46875 6.378906 7.007812 6.378906 6.550781 C 6.378906 6.332031 6.378906 6.109375 6.378906 5.890625 C 6.378906 5.582031 6.378906 5.273438 6.378906 4.96875 C 6.378906 4.875 6.378906 4.785156 6.378906 4.6875 C 6.378906 4.605469 6.378906 4.523438 6.378906 4.4375 C 6.378906 4.363281 6.378906 4.289062 6.378906 4.214844 C 6.398438 3.933594 6.460938 3.960938 6.746094 3.941406 Z M 6.746094 3.941406 "/>
<path style=" stroke:none;fill-rule:nonzero;fill:rgb(15.686275%,18.82353%,26.666668%);fill-opacity:1;" d="M 9.449219 4.769531 C 9.71875 4.742188 9.71875 4.742188 9.988281 4.769531 C 10.222656 5.003906 10.191406 5.164062 10.195312 5.484375 C 10.195312 5.558594 10.195312 5.632812 10.191406 5.710938 C 10.195312 5.789062 10.195312 5.867188 10.195312 5.949219 C 10.195312 6.210938 10.195312 6.472656 10.195312 6.734375 C 10.195312 6.914062 10.195312 7.09375 10.195312 7.277344 C 10.195312 7.65625 10.195312 8.035156 10.195312 8.414062 C 10.191406 8.902344 10.191406 9.390625 10.195312 9.875 C 10.195312 10.25 10.195312 10.625 10.195312 10.996094 C 10.195312 11.175781 10.195312 11.355469 10.195312 11.535156 C 10.195312 11.789062 10.195312 12.039062 10.191406 12.289062 C 10.195312 12.363281 10.195312 12.4375 10.195312 12.515625 C 10.191406 13.03125 10.191406 13.03125 9.988281 13.230469 C 9.667969 13.207031 9.667969 13.207031 9.359375 13.140625 C 9.214844 12.851562 9.257812 12.535156 9.257812 12.21875 C 9.257812 12.140625 9.257812 12.0625 9.257812 11.984375 C 9.253906 11.730469 9.253906 11.472656 9.253906 11.21875 C 9.253906 11.042969 9.253906 10.867188 9.253906 10.6875 C 9.253906 10.320312 9.253906 9.949219 9.253906 9.578125 C 9.253906 9.101562 9.253906 8.625 9.25 8.152344 C 9.25 7.785156 9.25 7.421875 9.25 7.054688 C 9.25 6.878906 9.25 6.707031 9.25 6.53125 C 9.246094 6.285156 9.246094 6.039062 9.25 5.792969 C 9.246094 5.722656 9.246094 5.648438 9.246094 5.574219 C 9.25 5.226562 9.253906 5.066406 9.449219 4.769531 Z M 9.449219 4.769531 "/>
<path style=" stroke:none;fill-rule:nonzero;fill:rgb(15.686275%,18.82353%,26.666668%);fill-opacity:1;" d="M 12.792969 5.417969 C 12.917969 5.453125 12.917969 5.453125 13.050781 5.488281 C 13.183594 5.757812 13.152344 6 13.15625 6.296875 C 13.15625 6.363281 13.15625 6.425781 13.15625 6.492188 C 13.15625 6.707031 13.15625 6.921875 13.160156 7.136719 C 13.160156 7.285156 13.160156 7.433594 13.160156 7.582031 C 13.160156 7.890625 13.160156 8.203125 13.160156 8.515625 C 13.164062 8.914062 13.164062 9.3125 13.167969 9.710938 C 13.167969 10.019531 13.167969 10.324219 13.167969 10.632812 C 13.167969 10.777344 13.171875 10.925781 13.171875 11.074219 C 13.171875 11.28125 13.171875 11.484375 13.171875 11.691406 C 13.171875 11.808594 13.171875 11.925781 13.171875 12.046875 C 13.140625 12.328125 13.140625 12.328125 13.019531 12.507812 C 12.871094 12.601562 12.871094 12.601562 12.589844 12.582031 C 12.503906 12.558594 12.417969 12.535156 12.328125 12.511719 C 12.195312 12.242188 12.226562 12 12.226562 11.703125 C 12.226562 11.636719 12.222656 11.574219 12.222656 11.507812 C 12.222656 11.292969 12.222656 11.078125 12.222656 10.863281 C 12.222656 10.714844 12.21875 10.566406 12.21875 10.417969 C 12.21875 10.109375 12.21875 9.796875 12.21875 9.484375 C 12.21875 9.085938 12.214844 8.6875 12.214844 8.289062 C 12.210938 7.980469 12.210938 7.675781 12.210938 7.367188 C 12.210938 7.222656 12.210938 7.074219 12.207031 6.925781 C 12.207031 6.71875 12.207031 6.515625 12.207031 6.308594 C 12.207031 6.191406 12.207031 6.074219 12.207031 5.953125 C 12.238281 5.671875 12.238281 5.671875 12.359375 5.492188 C 12.511719 5.398438 12.511719 5.398438 12.792969 5.417969 Z M 12.792969 5.417969 "/>
<path style=" stroke:none;fill-rule:nonzero;fill:rgb(15.686275%,18.82353%,26.666668%);fill-opacity:1;" d="M 5.410156 5.777344 C 5.539062 5.8125 5.539062 5.8125 5.671875 5.851562 C 5.796875 6.101562 5.773438 6.308594 5.773438 6.589844 C 5.773438 6.710938 5.777344 6.828125 5.777344 6.949219 C 5.777344 7.078125 5.777344 7.207031 5.777344 7.335938 C 5.777344 7.46875 5.78125 7.601562 5.78125 7.734375 C 5.78125 8.011719 5.78125 8.289062 5.78125 8.566406 C 5.78125 8.921875 5.785156 9.277344 5.785156 9.632812 C 5.789062 9.90625 5.789062 10.179688 5.789062 10.453125 C 5.789062 10.585938 5.789062 10.714844 5.792969 10.847656 C 5.792969 11.03125 5.792969 11.214844 5.792969 11.398438 C 5.792969 11.5 5.792969 11.605469 5.792969 11.714844 C 5.761719 11.96875 5.761719 11.96875 5.640625 12.140625 C 5.488281 12.238281 5.488281 12.238281 5.207031 12.222656 C 5.125 12.199219 5.039062 12.175781 4.949219 12.148438 C 4.824219 11.898438 4.847656 11.691406 4.84375 11.410156 C 4.84375 11.230469 4.84375 11.230469 4.84375 11.050781 C 4.84375 10.921875 4.84375 10.792969 4.839844 10.664062 C 4.839844 10.53125 4.839844 10.398438 4.839844 10.265625 C 4.839844 9.988281 4.839844 9.710938 4.839844 9.433594 C 4.835938 9.078125 4.835938 8.722656 4.832031 8.367188 C 4.832031 8.09375 4.832031 7.820312 4.832031 7.546875 C 4.832031 7.414062 4.828125 7.285156 4.828125 7.152344 C 4.828125 6.96875 4.828125 6.785156 4.828125 6.601562 C 4.828125 6.5 4.828125 6.394531 4.828125 6.285156 C 4.859375 6.03125 4.859375 6.03125 4.980469 5.859375 C 5.128906 5.761719 5.128906 5.761719 5.410156 5.777344 Z M 5.410156 5.777344 "/>
<path style=" stroke:none;fill-rule:nonzero;fill:rgb(15.686275%,18.82353%,26.666668%);fill-opacity:1;" d="M 8.230469 6.363281 C 8.460938 6.390625 8.460938 6.390625 8.605469 6.5 C 8.769531 6.714844 8.765625 6.847656 8.765625 7.117188 C 8.765625 7.253906 8.765625 7.253906 8.765625 7.398438 C 8.765625 7.496094 8.765625 7.597656 8.765625 7.699219 C 8.765625 7.855469 8.765625 7.855469 8.765625 8.011719 C 8.765625 8.230469 8.765625 8.449219 8.765625 8.664062 C 8.765625 9 8.765625 9.332031 8.765625 9.664062 C 8.765625 9.878906 8.765625 10.089844 8.765625 10.300781 C 8.765625 10.449219 8.765625 10.449219 8.765625 10.601562 C 8.765625 10.695312 8.765625 10.789062 8.765625 10.882812 C 8.765625 10.964844 8.765625 11.046875 8.765625 11.132812 C 8.730469 11.339844 8.730469 11.339844 8.609375 11.503906 C 8.460938 11.609375 8.460938 11.609375 8.179688 11.585938 C 7.921875 11.519531 7.921875 11.519531 7.828125 11.429688 C 7.820312 11.277344 7.816406 11.128906 7.816406 10.976562 C 7.816406 10.878906 7.816406 10.78125 7.816406 10.683594 C 7.816406 10.578125 7.816406 10.472656 7.816406 10.363281 C 7.816406 10.257812 7.8125 10.148438 7.8125 10.039062 C 7.8125 9.8125 7.8125 9.585938 7.8125 9.355469 C 7.8125 9.007812 7.8125 8.660156 7.808594 8.308594 C 7.808594 8.089844 7.808594 7.867188 7.808594 7.648438 C 7.808594 7.542969 7.808594 7.4375 7.808594 7.328125 C 7.808594 7.230469 7.808594 7.136719 7.808594 7.035156 C 7.808594 6.949219 7.808594 6.863281 7.808594 6.777344 C 7.839844 6.476562 7.933594 6.398438 8.230469 6.363281 Z M 8.230469 6.363281 "/>
<path style=" stroke:none;fill-rule:nonzero;fill:rgb(15.686275%,18.82353%,26.666668%);fill-opacity:1;" d="M 14.175781 7.277344 C 14.488281 7.289062 14.488281 7.289062 14.578125 7.378906 C 14.589844 7.632812 14.59375 7.882812 14.59375 8.132812 C 14.59375 8.210938 14.59375 8.285156 14.59375 8.363281 C 14.59375 8.523438 14.59375 8.683594 14.589844 8.84375 C 14.589844 9.089844 14.589844 9.335938 14.59375 9.582031 C 14.59375 9.734375 14.59375 9.890625 14.59375 10.046875 C 14.59375 10.121094 14.59375 10.195312 14.59375 10.269531 C 14.589844 10.789062 14.589844 10.789062 14.488281 10.890625 C 14.175781 10.902344 14.175781 10.902344 13.859375 10.890625 C 13.695312 10.722656 13.757812 10.492188 13.757812 10.269531 C 13.757812 10.195312 13.757812 10.121094 13.757812 10.046875 C 13.757812 9.96875 13.757812 9.894531 13.757812 9.816406 C 13.757812 9.65625 13.757812 9.496094 13.757812 9.335938 C 13.757812 9.089844 13.757812 8.84375 13.757812 8.597656 C 13.757812 8.445312 13.757812 8.289062 13.757812 8.132812 C 13.757812 8.058594 13.757812 7.984375 13.757812 7.910156 C 13.761719 7.292969 13.761719 7.292969 14.175781 7.277344 Z M 14.175781 7.277344 "/>
<path style=" stroke:none;fill-rule:nonzero;fill:rgb(15.686275%,18.82353%,26.666668%);fill-opacity:1;" d="M 3.824219 7.277344 C 4.140625 7.289062 4.140625 7.289062 4.230469 7.378906 C 4.238281 7.617188 4.242188 7.855469 4.242188 8.09375 C 4.242188 8.164062 4.242188 8.238281 4.242188 8.3125 C 4.242188 8.460938 4.242188 8.613281 4.242188 8.765625 C 4.242188 9 4.242188 9.230469 4.242188 9.464844 C 4.242188 9.613281 4.242188 9.757812 4.242188 9.90625 C 4.242188 9.976562 4.242188 10.046875 4.242188 10.117188 C 4.242188 10.609375 4.242188 10.609375 4.140625 10.710938 C 3.929688 10.714844 3.71875 10.714844 3.511719 10.710938 C 3.371094 10.429688 3.40625 10.132812 3.40625 9.828125 C 3.40625 9.757812 3.40625 9.6875 3.40625 9.617188 C 3.40625 9.46875 3.40625 9.324219 3.410156 9.175781 C 3.410156 8.949219 3.410156 8.722656 3.40625 8.5 C 3.40625 8.355469 3.40625 8.214844 3.40625 8.070312 C 3.40625 8.003906 3.40625 7.9375 3.40625 7.867188 C 3.410156 7.292969 3.410156 7.292969 3.824219 7.277344 Z M 3.824219 7.277344 "/>
</g>
</svg>
