<?xml version="1.0" encoding="UTF-8"?>
<svg xmlns="http://www.w3.org/2000/svg" xmlns:xlink="http://www.w3.org/1999/xlink" width="18px" height="18px" viewBox="0 0 18 18" version="1.1">
<g id="surface1">
<path style=" stroke:none;fill-rule:nonzero;fill:rgb(15.686275%,18.82353%,26.666668%);fill-opacity:1;" d="M 3.292969 -0.0195312 C 3.414062 -0.0234375 3.414062 -0.0234375 3.539062 -0.0234375 C 3.628906 -0.0234375 3.71875 -0.0234375 3.8125 -0.0234375 C 3.90625 -0.0234375 4 -0.0234375 4.097656 -0.0273438 C 4.355469 -0.0273438 4.613281 -0.03125 4.875 -0.03125 C 5.035156 -0.03125 5.195312 -0.03125 5.359375 -0.03125 C 5.867188 -0.0351562 6.371094 -0.0351562 6.878906 -0.0390625 C 7.464844 -0.0390625 8.046875 -0.0429688 8.632812 -0.046875 C 9.082031 -0.0507812 9.535156 -0.0507812 9.988281 -0.0507812 C 10.257812 -0.0507812 10.527344 -0.0546875 10.796875 -0.0546875 C 11.050781 -0.0585938 11.304688 -0.0585938 11.558594 -0.0585938 C 11.695312 -0.0585938 11.832031 -0.0585938 11.96875 -0.0625 C 12.378906 -0.0585938 12.65625 -0.046875 12.976562 0.230469 C 13.058594 0.316406 13.140625 0.402344 13.21875 0.492188 C 13.277344 0.550781 13.339844 0.605469 13.402344 0.664062 C 13.453125 0.71875 13.503906 0.769531 13.558594 0.824219 C 13.621094 0.882812 13.679688 0.945312 13.742188 1.003906 C 13.835938 1.101562 13.835938 1.101562 13.933594 1.195312 C 14 1.261719 14.066406 1.332031 14.132812 1.398438 C 14.273438 1.535156 14.410156 1.675781 14.550781 1.8125 C 14.726562 1.992188 14.90625 2.167969 15.082031 2.347656 C 15.21875 2.484375 15.359375 2.621094 15.496094 2.757812 C 15.59375 2.855469 15.691406 2.953125 15.789062 3.050781 C 15.875 3.140625 15.875 3.140625 15.964844 3.230469 C 16.042969 3.308594 16.042969 3.308594 16.121094 3.386719 C 16.347656 3.628906 16.324219 3.851562 16.324219 4.167969 C 16.324219 4.222656 16.324219 4.273438 16.324219 4.332031 C 16.324219 4.511719 16.324219 4.691406 16.324219 4.871094 C 16.324219 5 16.324219 5.128906 16.328125 5.257812 C 16.328125 5.605469 16.328125 5.957031 16.328125 6.308594 C 16.328125 6.527344 16.328125 6.746094 16.332031 6.964844 C 16.332031 7.648438 16.332031 8.332031 16.332031 9.015625 C 16.332031 9.808594 16.335938 10.597656 16.339844 11.386719 C 16.339844 12 16.339844 12.609375 16.34375 13.21875 C 16.34375 13.585938 16.34375 13.949219 16.34375 14.316406 C 16.347656 14.65625 16.347656 15 16.34375 15.34375 C 16.34375 15.46875 16.347656 15.597656 16.347656 15.722656 C 16.347656 15.894531 16.347656 16.066406 16.347656 16.238281 C 16.347656 16.289062 16.347656 16.335938 16.347656 16.386719 C 16.34375 16.835938 16.183594 17.191406 15.894531 17.523438 C 15.847656 17.5625 15.800781 17.601562 15.753906 17.640625 C 15.707031 17.679688 15.664062 17.71875 15.617188 17.757812 C 15.289062 17.984375 15.007812 18.019531 14.613281 18.019531 C 14.5625 18.019531 14.515625 18.019531 14.464844 18.019531 C 14.296875 18.019531 14.128906 18.019531 13.964844 18.019531 C 13.84375 18.019531 13.722656 18.019531 13.605469 18.023438 C 13.277344 18.023438 12.953125 18.023438 12.628906 18.023438 C 12.425781 18.023438 12.222656 18.023438 12.019531 18.023438 C 11.3125 18.027344 10.601562 18.027344 9.894531 18.027344 C 9.234375 18.027344 8.574219 18.027344 7.914062 18.03125 C 7.347656 18.03125 6.78125 18.03125 6.210938 18.03125 C 5.875 18.03125 5.535156 18.03125 5.199219 18.035156 C 4.878906 18.035156 4.558594 18.035156 4.242188 18.035156 C 4.125 18.035156 4.007812 18.035156 3.890625 18.035156 C 2.691406 18.042969 2.691406 18.042969 2.164062 17.582031 C 2.105469 17.511719 2.105469 17.511719 2.046875 17.441406 C 2.007812 17.394531 1.96875 17.351562 1.929688 17.304688 C 1.675781 16.933594 1.667969 16.605469 1.667969 16.171875 C 1.667969 16.109375 1.667969 16.046875 1.667969 15.980469 C 1.667969 15.765625 1.667969 15.554688 1.667969 15.339844 C 1.667969 15.1875 1.667969 15.035156 1.664062 14.882812 C 1.664062 14.464844 1.664062 14.050781 1.664062 13.636719 C 1.664062 13.289062 1.664062 12.941406 1.664062 12.59375 C 1.660156 11.777344 1.660156 10.957031 1.660156 10.140625 C 1.660156 9.296875 1.660156 8.453125 1.65625 7.609375 C 1.65625 6.882812 1.65625 6.15625 1.65625 5.433594 C 1.65625 5 1.65625 4.566406 1.652344 4.136719 C 1.652344 3.726562 1.652344 3.320312 1.652344 2.914062 C 1.652344 2.765625 1.652344 2.613281 1.652344 2.464844 C 1.652344 2.261719 1.652344 2.058594 1.652344 1.851562 C 1.652344 1.792969 1.652344 1.734375 1.652344 1.675781 C 1.65625 1.199219 1.792969 0.835938 2.105469 0.476562 C 2.152344 0.4375 2.199219 0.398438 2.246094 0.359375 C 2.292969 0.320312 2.335938 0.28125 2.382812 0.242188 C 2.679688 0.0390625 2.9375 -0.0195312 3.292969 -0.0195312 Z M 2.953125 1.335938 C 2.789062 1.640625 2.792969 1.945312 2.792969 2.28125 C 2.792969 2.34375 2.792969 2.402344 2.792969 2.464844 C 2.792969 2.664062 2.792969 2.863281 2.792969 3.0625 C 2.792969 3.207031 2.792969 3.351562 2.792969 3.492188 C 2.792969 3.882812 2.792969 4.273438 2.792969 4.664062 C 2.792969 4.988281 2.792969 5.3125 2.789062 5.636719 C 2.789062 6.40625 2.789062 7.171875 2.789062 7.9375 C 2.789062 8.730469 2.789062 9.523438 2.789062 10.3125 C 2.789062 10.992188 2.785156 11.671875 2.785156 12.351562 C 2.785156 12.757812 2.785156 13.164062 2.785156 13.570312 C 2.785156 13.953125 2.785156 14.332031 2.785156 14.714844 C 2.785156 14.855469 2.785156 14.996094 2.785156 15.136719 C 2.785156 15.328125 2.785156 15.519531 2.785156 15.707031 C 2.785156 15.765625 2.785156 15.820312 2.785156 15.875 C 2.789062 16.214844 2.832031 16.457031 3.023438 16.734375 C 3.289062 16.894531 3.535156 16.894531 3.839844 16.894531 C 3.886719 16.894531 3.933594 16.894531 3.980469 16.894531 C 4.132812 16.894531 4.289062 16.894531 4.441406 16.894531 C 4.550781 16.894531 4.660156 16.894531 4.773438 16.894531 C 5.070312 16.894531 5.371094 16.894531 5.667969 16.894531 C 5.917969 16.894531 6.167969 16.894531 6.417969 16.898438 C 7.007812 16.898438 7.597656 16.898438 8.183594 16.898438 C 8.792969 16.898438 9.398438 16.898438 10.007812 16.898438 C 10.527344 16.898438 11.050781 16.902344 11.574219 16.902344 C 11.882812 16.902344 12.195312 16.902344 12.507812 16.902344 C 12.800781 16.902344 13.09375 16.902344 13.386719 16.902344 C 13.492188 16.902344 13.601562 16.902344 13.707031 16.902344 C 13.855469 16.902344 14.003906 16.902344 14.148438 16.902344 C 14.273438 16.902344 14.273438 16.902344 14.398438 16.902344 C 14.660156 16.871094 14.824219 16.808594 15.046875 16.664062 C 15.210938 16.394531 15.203125 16.132812 15.203125 15.820312 C 15.203125 15.773438 15.203125 15.726562 15.203125 15.675781 C 15.203125 15.511719 15.203125 15.351562 15.203125 15.1875 C 15.203125 15.070312 15.203125 14.957031 15.203125 14.839844 C 15.203125 14.523438 15.203125 14.207031 15.203125 13.890625 C 15.199219 13.5625 15.199219 13.230469 15.199219 12.902344 C 15.199219 12.277344 15.199219 11.652344 15.199219 11.027344 C 15.195312 10.316406 15.195312 9.601562 15.195312 8.890625 C 15.191406 7.425781 15.191406 5.964844 15.1875 4.5 C 15.109375 4.5 15.03125 4.5 14.949219 4.496094 C 14.65625 4.496094 14.363281 4.492188 14.070312 4.484375 C 13.941406 4.484375 13.816406 4.480469 13.6875 4.480469 C 13.507812 4.480469 13.324219 4.476562 13.140625 4.472656 C 13.085938 4.472656 13.027344 4.472656 12.972656 4.472656 C 12.601562 4.460938 12.390625 4.390625 12.09375 4.148438 C 11.839844 3.847656 11.851562 3.554688 11.847656 3.179688 C 11.84375 3.121094 11.84375 3.058594 11.84375 3 C 11.839844 2.8125 11.835938 2.625 11.835938 2.4375 C 11.832031 2.3125 11.828125 2.183594 11.828125 2.058594 C 11.820312 1.746094 11.816406 1.4375 11.8125 1.125 C 10.71875 1.121094 9.625 1.117188 8.535156 1.113281 C 8.027344 1.113281 7.519531 1.113281 7.011719 1.109375 C 6.570312 1.105469 6.128906 1.105469 5.683594 1.105469 C 5.449219 1.105469 5.214844 1.105469 4.980469 1.101562 C 4.71875 1.101562 4.460938 1.101562 4.199219 1.101562 C 4.121094 1.101562 4.042969 1.097656 3.964844 1.097656 C 3.425781 1.097656 3.425781 1.097656 2.953125 1.335938 Z M 2.953125 1.335938 "/>
<path style=" stroke:none;fill-rule:nonzero;fill:rgb(15.686275%,18.82353%,26.666668%);fill-opacity:1;" d="M 3.9375 10.6875 C 7.277344 10.6875 10.621094 10.6875 14.0625 10.6875 C 14.0625 11.058594 14.0625 11.429688 14.0625 11.8125 C 10.722656 11.8125 7.378906 11.8125 3.9375 11.8125 C 3.9375 11.441406 3.9375 11.070312 3.9375 10.6875 Z M 3.9375 10.6875 "/>
<path style=" stroke:none;fill-rule:nonzero;fill:rgb(15.686275%,18.82353%,26.666668%);fill-opacity:1;" d="M 3.9375 7.875 C 7.277344 7.875 10.621094 7.875 14.0625 7.875 C 14.0625 8.246094 14.0625 8.617188 14.0625 9 C 10.722656 9 7.378906 9 3.9375 9 C 3.9375 8.628906 3.9375 8.257812 3.9375 7.875 Z M 3.9375 7.875 "/>
<path style=" stroke:none;fill-rule:nonzero;fill:rgb(15.686275%,18.82353%,26.666668%);fill-opacity:1;" d="M 3.9375 13.5 C 6.535156 13.5 9.136719 13.5 11.8125 13.5 C 11.8125 13.871094 11.8125 14.242188 11.8125 14.625 C 9.214844 14.625 6.613281 14.625 3.9375 14.625 C 3.9375 14.253906 3.9375 13.882812 3.9375 13.5 Z M 3.9375 13.5 "/>
<path style=" stroke:none;fill-rule:nonzero;fill:rgb(15.686275%,18.82353%,26.666668%);fill-opacity:1;" d="M 12.9375 13.5 C 13.308594 13.5 13.679688 13.5 14.0625 13.5 C 14.0625 13.871094 14.0625 14.242188 14.0625 14.625 C 13.691406 14.625 13.320312 14.625 12.9375 14.625 C 12.9375 14.253906 12.9375 13.882812 12.9375 13.5 Z M 12.9375 13.5 "/>
</g>
</svg>
