<?xml version="1.0" encoding="UTF-8"?>
<svg xmlns="http://www.w3.org/2000/svg" xmlns:xlink="http://www.w3.org/1999/xlink" width="16px" height="16px" viewBox="0 0 16 16" version="1.1">
<g id="surface1">
<path style=" stroke:none;fill-rule:nonzero;fill:rgb(99.607843%,99.607843%,99.607843%);fill-opacity:1;" d="M 2.8125 3.5 C 6.234375 3.5 9.660156 3.5 13.1875 3.5 C 13.25 3.714844 13.25 3.714844 13.3125 3.9375 C 13.429688 4.09375 13.429688 4.09375 13.578125 4.226562 C 13.628906 4.273438 13.683594 4.324219 13.738281 4.375 C 13.792969 4.425781 13.847656 4.480469 13.902344 4.53125 C 14.597656 5.183594 14.597656 5.183594 14.6875 5.5625 C 14.621094 5.902344 14.519531 6.078125 14.265625 6.3125 C 14.207031 6.371094 14.148438 6.425781 14.089844 6.484375 C 13.996094 6.570312 13.902344 6.65625 13.808594 6.742188 C 13.71875 6.828125 13.628906 6.914062 13.539062 7 C 13.484375 7.046875 13.429688 7.097656 13.375 7.148438 C 13.222656 7.351562 13.203125 7.5 13.1875 7.75 C 13.125 7.753906 13.058594 7.753906 12.992188 7.757812 C 12.675781 7.828125 12.585938 7.945312 12.375 8.1875 C 12.621094 8.207031 12.871094 8.230469 13.125 8.25 C 13.125 8.601562 13.125 8.953125 13.125 9.3125 C 12.988281 9.3125 12.855469 9.3125 12.714844 9.3125 C 12.582031 9.3125 12.449219 9.316406 12.316406 9.320312 C 12.226562 9.320312 12.136719 9.320312 12.042969 9.320312 C 11.910156 9.320312 11.78125 9.320312 11.648438 9.324219 C 11.527344 9.324219 11.527344 9.324219 11.40625 9.328125 C 11.128906 9.367188 11.128906 9.367188 10.8125 9.75 C 11.957031 9.78125 11.957031 9.78125 13.125 9.8125 C 13.125 10.183594 13.125 10.554688 13.125 10.9375 C 13.023438 10.933594 12.921875 10.925781 12.820312 10.921875 C 10.847656 10.714844 10.847656 10.714844 9.078125 11.285156 C 8.851562 11.515625 8.667969 11.765625 8.476562 12.027344 C 8.046875 12.605469 7.355469 12.785156 6.691406 13 C 6.445312 13.082031 6.207031 13.171875 5.964844 13.265625 C 5.722656 13.339844 5.496094 13.371094 5.25 13.3125 C 5.03125 13.15625 4.953125 13.058594 4.882812 12.800781 C 4.875 12.625 4.875 12.625 4.9375 12.5 C 4.234375 12.5 3.535156 12.5 2.8125 12.5 C 2.8125 12.148438 2.8125 11.796875 2.8125 11.4375 C 3.636719 11.417969 4.460938 11.394531 5.3125 11.375 C 5.375 11.230469 5.4375 11.085938 5.5 10.9375 C 4.632812 10.9375 3.765625 10.9375 2.875 10.9375 C 2.875 10.566406 2.875 10.195312 2.875 9.8125 C 2.972656 9.8125 3.066406 9.8125 3.167969 9.8125 C 3.527344 9.8125 3.882812 9.808594 4.242188 9.804688 C 4.398438 9.804688 4.554688 9.804688 4.707031 9.804688 C 4.929688 9.804688 5.15625 9.804688 5.378906 9.800781 C 5.445312 9.800781 5.515625 9.800781 5.585938 9.800781 C 5.652344 9.800781 5.71875 9.800781 5.785156 9.796875 C 5.839844 9.796875 5.898438 9.796875 5.957031 9.796875 C 6.1875 9.746094 6.1875 9.746094 6.5 9.375 C 5.304688 9.355469 4.109375 9.332031 2.875 9.3125 C 2.875 8.960938 2.875 8.609375 2.875 8.25 C 3.089844 8.25 3.089844 8.25 3.3125 8.25 C 3.785156 8.25 4.261719 8.25 4.738281 8.246094 C 5.027344 8.242188 5.316406 8.242188 5.601562 8.242188 C 5.882812 8.242188 6.160156 8.242188 6.4375 8.238281 C 6.542969 8.238281 6.652344 8.238281 6.757812 8.238281 C 6.90625 8.238281 7.054688 8.238281 7.203125 8.234375 C 7.269531 8.238281 7.269531 8.238281 7.335938 8.238281 C 7.734375 8.226562 7.738281 8.136719 8.0625 7.8125 C 6.328125 7.792969 4.597656 7.769531 2.8125 7.75 C 2.8125 7.398438 2.8125 7.046875 2.8125 6.6875 C 2.890625 6.6875 2.972656 6.6875 3.054688 6.6875 C 3.804688 6.6875 4.558594 6.6875 5.3125 6.683594 C 5.699219 6.679688 6.085938 6.679688 6.472656 6.679688 C 6.84375 6.679688 7.21875 6.679688 7.589844 6.675781 C 7.734375 6.675781 7.875 6.675781 8.019531 6.675781 C 8.21875 6.675781 8.417969 6.675781 8.617188 6.671875 C 8.703125 6.675781 8.703125 6.675781 8.792969 6.675781 C 8.847656 6.675781 8.902344 6.671875 8.960938 6.671875 C 9.007812 6.671875 9.054688 6.671875 9.101562 6.671875 C 9.316406 6.617188 9.316406 6.617188 9.625 6.25 C 7.375 6.230469 5.128906 6.207031 2.8125 6.1875 C 2.8125 5.816406 2.8125 5.445312 2.8125 5.0625 C 2.914062 5.0625 3.011719 5.0625 3.117188 5.0625 C 4.058594 5.0625 5.003906 5.0625 5.945312 5.058594 C 6.433594 5.054688 6.917969 5.054688 7.402344 5.054688 C 7.824219 5.054688 8.246094 5.054688 8.671875 5.050781 C 8.894531 5.050781 9.117188 5.050781 9.34375 5.050781 C 9.59375 5.050781 9.84375 5.050781 10.09375 5.046875 C 10.203125 5.050781 10.203125 5.050781 10.316406 5.050781 C 10.386719 5.050781 10.453125 5.046875 10.523438 5.046875 C 10.582031 5.046875 10.640625 5.046875 10.703125 5.046875 C 10.9375 4.996094 10.9375 4.996094 11.25 4.625 C 7.074219 4.59375 7.074219 4.59375 2.8125 4.5625 C 2.8125 4.210938 2.8125 3.859375 2.8125 3.5 Z M 2.8125 3.5 "/>
<path style=" stroke:none;fill-rule:nonzero;fill:rgb(100%,100%,100%);fill-opacity:1;" d="M 3.363281 -0.0078125 C 3.402344 -0.0078125 3.445312 -0.0078125 3.484375 -0.0078125 C 3.621094 -0.0117188 3.757812 -0.0117188 3.898438 -0.0117188 C 3.996094 -0.0117188 4.09375 -0.0117188 4.191406 -0.0117188 C 4.460938 -0.0117188 4.726562 -0.0117188 4.992188 -0.0117188 C 5.160156 -0.0117188 5.328125 -0.0117188 5.496094 -0.0117188 C 6.019531 -0.015625 6.542969 -0.015625 7.066406 -0.015625 C 7.667969 -0.015625 8.273438 -0.015625 8.875 -0.0195312 C 9.34375 -0.0195312 9.808594 -0.0195312 10.277344 -0.0195312 C 10.554688 -0.0195312 10.835938 -0.0195312 11.113281 -0.0234375 C 11.375 -0.0234375 11.636719 -0.0234375 11.898438 -0.0234375 C 11.996094 -0.0234375 12.089844 -0.0234375 12.1875 -0.0234375 C 13.316406 -0.03125 14.210938 0.183594 15.042969 0.976562 C 15.652344 1.601562 16.007812 2.300781 16.007812 3.179688 C 16.007812 3.222656 16.007812 3.265625 16.011719 3.308594 C 16.011719 3.453125 16.011719 3.59375 16.011719 3.738281 C 16.011719 3.839844 16.011719 3.941406 16.011719 4.042969 C 16.011719 4.378906 16.015625 4.714844 16.015625 5.046875 C 16.015625 5.164062 16.015625 5.28125 16.015625 5.394531 C 16.015625 5.941406 16.019531 6.484375 16.019531 7.027344 C 16.019531 7.652344 16.019531 8.28125 16.023438 8.90625 C 16.023438 9.390625 16.027344 9.875 16.027344 10.363281 C 16.027344 10.652344 16.027344 10.941406 16.027344 11.230469 C 16.03125 11.5 16.03125 11.773438 16.03125 12.046875 C 16.03125 12.144531 16.03125 12.246094 16.03125 12.34375 C 16.039062 13.410156 15.785156 14.261719 15.042969 15.050781 C 14.378906 15.679688 13.550781 16.007812 12.636719 16.007812 C 12.597656 16.007812 12.554688 16.007812 12.515625 16.007812 C 12.378906 16.011719 12.242188 16.011719 12.101562 16.011719 C 12.003906 16.011719 11.90625 16.011719 11.808594 16.011719 C 11.539062 16.011719 11.273438 16.011719 11.007812 16.011719 C 10.839844 16.011719 10.671875 16.011719 10.503906 16.011719 C 9.980469 16.015625 9.457031 16.015625 8.933594 16.015625 C 8.332031 16.015625 7.726562 16.015625 7.125 16.019531 C 6.65625 16.019531 6.191406 16.019531 5.722656 16.019531 C 5.445312 16.019531 5.164062 16.019531 4.886719 16.023438 C 4.625 16.023438 4.363281 16.023438 4.101562 16.023438 C 4.003906 16.023438 3.910156 16.023438 3.8125 16.023438 C 2.683594 16.03125 1.789062 15.816406 0.957031 15.019531 C 0.347656 14.398438 -0.0078125 13.699219 -0.0078125 12.820312 C -0.0078125 12.753906 -0.0078125 12.753906 -0.0117188 12.691406 C -0.0117188 12.546875 -0.0117188 12.40625 -0.0117188 12.261719 C -0.0117188 12.160156 -0.0117188 12.058594 -0.0117188 11.957031 C -0.0117188 11.621094 -0.015625 11.285156 -0.015625 10.949219 C -0.015625 10.835938 -0.015625 10.71875 -0.015625 10.605469 C -0.015625 10.058594 -0.0195312 9.515625 -0.0195312 8.972656 C -0.0195312 8.347656 -0.0195312 7.71875 -0.0234375 7.09375 C -0.0234375 6.609375 -0.0273438 6.125 -0.0273438 5.636719 C -0.0273438 5.347656 -0.0273438 5.058594 -0.0273438 4.769531 C -0.03125 4.5 -0.03125 4.226562 -0.03125 3.953125 C -0.03125 3.855469 -0.03125 3.753906 -0.03125 3.65625 C -0.0390625 2.589844 0.214844 1.738281 0.957031 0.949219 C 1.621094 0.320312 2.449219 -0.0078125 3.363281 -0.0078125 Z M 2.3125 1.5625 C 2.261719 1.589844 2.210938 1.621094 2.160156 1.648438 C 1.644531 2.027344 1.378906 2.503906 1.25 3.125 C 1.222656 3.445312 1.222656 3.761719 1.226562 4.082031 C 1.226562 4.175781 1.226562 4.269531 1.226562 4.367188 C 1.222656 4.625 1.222656 4.878906 1.226562 5.136719 C 1.226562 5.40625 1.226562 5.675781 1.222656 5.945312 C 1.222656 6.398438 1.226562 6.851562 1.226562 7.304688 C 1.226562 7.824219 1.226562 8.347656 1.226562 8.871094 C 1.222656 9.320312 1.222656 9.769531 1.226562 10.21875 C 1.226562 10.488281 1.226562 10.753906 1.222656 11.023438 C 1.222656 11.273438 1.222656 11.527344 1.226562 11.777344 C 1.226562 11.871094 1.226562 11.960938 1.226562 12.054688 C 1.222656 12.820312 1.304688 13.460938 1.8125 14.0625 C 1.96875 14.210938 2.125 14.332031 2.3125 14.4375 C 2.347656 14.457031 2.378906 14.476562 2.414062 14.5 C 2.878906 14.746094 3.359375 14.722656 3.871094 14.71875 C 3.972656 14.71875 4.070312 14.71875 4.171875 14.722656 C 4.441406 14.722656 4.710938 14.722656 4.984375 14.722656 C 5.265625 14.71875 5.550781 14.722656 5.835938 14.722656 C 6.3125 14.722656 6.789062 14.722656 7.265625 14.71875 C 7.816406 14.71875 8.367188 14.71875 8.917969 14.71875 C 9.390625 14.722656 9.863281 14.722656 10.335938 14.722656 C 10.621094 14.722656 10.902344 14.722656 11.183594 14.722656 C 11.449219 14.722656 11.714844 14.722656 11.980469 14.71875 C 12.078125 14.71875 12.175781 14.71875 12.273438 14.71875 C 12.789062 14.722656 13.234375 14.710938 13.6875 14.4375 C 13.738281 14.410156 13.789062 14.378906 13.839844 14.351562 C 14.355469 13.972656 14.621094 13.496094 14.75 12.875 C 14.777344 12.554688 14.777344 12.238281 14.773438 11.917969 C 14.773438 11.824219 14.773438 11.730469 14.773438 11.632812 C 14.777344 11.375 14.777344 11.121094 14.773438 10.863281 C 14.773438 10.59375 14.773438 10.324219 14.777344 10.054688 C 14.777344 9.601562 14.773438 9.148438 14.773438 8.695312 C 14.773438 8.175781 14.773438 7.652344 14.773438 7.128906 C 14.777344 6.679688 14.777344 6.230469 14.773438 5.78125 C 14.773438 5.511719 14.773438 5.246094 14.777344 4.976562 C 14.777344 4.726562 14.777344 4.472656 14.773438 4.222656 C 14.773438 4.128906 14.773438 4.039062 14.773438 3.945312 C 14.777344 3.179688 14.695312 2.539062 14.1875 1.9375 C 14.03125 1.789062 13.875 1.667969 13.6875 1.5625 C 13.652344 1.542969 13.621094 1.523438 13.585938 1.5 C 13.121094 1.253906 12.640625 1.277344 12.128906 1.28125 C 12.027344 1.28125 11.929688 1.28125 11.828125 1.277344 C 11.558594 1.277344 11.289062 1.277344 11.015625 1.277344 C 10.734375 1.28125 10.449219 1.277344 10.164062 1.277344 C 9.6875 1.277344 9.210938 1.277344 8.734375 1.28125 C 8.183594 1.28125 7.632812 1.28125 7.082031 1.28125 C 6.609375 1.277344 6.136719 1.277344 5.664062 1.277344 C 5.378906 1.277344 5.097656 1.277344 4.816406 1.277344 C 4.550781 1.277344 4.285156 1.277344 4.019531 1.28125 C 3.921875 1.28125 3.824219 1.28125 3.726562 1.28125 C 3.210938 1.277344 2.765625 1.289062 2.3125 1.5625 Z M 2.3125 1.5625 "/>
<path style=" stroke:none;fill-rule:nonzero;fill:rgb(21.960784%,27.058825%,32.156864%);fill-opacity:1;" d="M 12.5625 5.125 C 12.796875 5.234375 12.945312 5.375 13.125 5.5625 C 13.039062 5.761719 12.933594 5.894531 12.78125 6.050781 C 12.734375 6.097656 12.6875 6.140625 12.640625 6.191406 C 12.59375 6.238281 12.542969 6.289062 12.492188 6.34375 C 12.410156 6.421875 12.410156 6.421875 12.332031 6.503906 C 12.1875 6.648438 12.042969 6.792969 11.898438 6.941406 C 11.804688 7.03125 11.714844 7.121094 11.625 7.214844 C 11.339844 7.5 11.058594 7.785156 10.773438 8.070312 C 10.445312 8.398438 10.117188 8.726562 9.792969 9.054688 C 9.539062 9.3125 9.289062 9.566406 9.035156 9.820312 C 8.882812 9.972656 8.730469 10.121094 8.582031 10.273438 C 8.414062 10.445312 8.242188 10.613281 8.074219 10.78125 C 8.023438 10.832031 7.976562 10.882812 7.925781 10.933594 C 7.578125 11.277344 7.195312 11.5625 6.6875 11.5625 C 6.765625 10.929688 7.035156 10.617188 7.476562 10.183594 C 7.53125 10.128906 7.585938 10.074219 7.640625 10.015625 C 7.792969 9.867188 7.941406 9.71875 8.09375 9.570312 C 8.25 9.414062 8.40625 9.257812 8.5625 9.101562 C 8.859375 8.804688 9.160156 8.507812 9.457031 8.214844 C 9.796875 7.875 10.132812 7.539062 10.472656 7.203125 C 11.167969 6.507812 11.863281 5.816406 12.5625 5.125 Z M 12.5625 5.125 "/>
</g>
</svg>
