<?xml version="1.0" encoding="UTF-8"?>
<svg xmlns="http://www.w3.org/2000/svg" xmlns:xlink="http://www.w3.org/1999/xlink" width="18px" height="18px" viewBox="0 0 18 18" version="1.1">
<g id="surface1">
<path style=" stroke:none;fill-rule:nonzero;fill:rgb(15.686275%,18.82353%,26.666668%);fill-opacity:1;" d="M 2.472656 -0.0078125 C 2.53125 -0.0078125 2.589844 -0.0078125 2.648438 -0.0078125 C 2.808594 -0.0117188 2.96875 -0.0117188 3.128906 -0.0078125 C 3.304688 -0.0078125 3.476562 -0.0117188 3.648438 -0.0117188 C 3.988281 -0.0117188 4.328125 -0.0117188 4.667969 -0.0117188 C 4.945312 -0.0117188 5.21875 -0.0117188 5.496094 -0.0117188 C 5.535156 -0.0117188 5.574219 -0.0117188 5.613281 -0.0117188 C 5.695312 -0.0117188 5.773438 -0.0117188 5.851562 -0.0117188 C 6.601562 -0.0117188 7.347656 -0.0117188 8.097656 -0.0117188 C 8.78125 -0.0117188 9.464844 -0.0117188 10.148438 -0.0117188 C 10.851562 -0.0117188 11.554688 -0.0117188 12.257812 -0.0117188 C 12.652344 -0.0117188 13.046875 -0.0117188 13.441406 -0.0117188 C 13.777344 -0.015625 14.113281 -0.015625 14.445312 -0.0117188 C 14.617188 -0.0117188 14.789062 -0.0117188 14.960938 -0.0117188 C 15.117188 -0.015625 15.273438 -0.015625 15.429688 -0.0117188 C 15.488281 -0.0117188 15.542969 -0.0117188 15.601562 -0.0117188 C 16.257812 -0.015625 16.851562 0.164062 17.332031 0.625 C 17.855469 1.152344 18.011719 1.75 18.007812 2.472656 C 18.007812 2.53125 18.007812 2.589844 18.007812 2.648438 C 18.011719 2.808594 18.011719 2.96875 18.007812 3.128906 C 18.007812 3.304688 18.011719 3.476562 18.011719 3.648438 C 18.011719 3.988281 18.011719 4.328125 18.011719 4.667969 C 18.011719 4.945312 18.011719 5.21875 18.011719 5.496094 C 18.011719 5.535156 18.011719 5.574219 18.011719 5.613281 C 18.011719 5.695312 18.011719 5.773438 18.011719 5.851562 C 18.011719 6.601562 18.011719 7.347656 18.011719 8.097656 C 18.011719 8.78125 18.011719 9.464844 18.011719 10.148438 C 18.011719 10.851562 18.011719 11.554688 18.011719 12.257812 C 18.011719 12.652344 18.011719 13.046875 18.011719 13.441406 C 18.015625 13.777344 18.015625 14.113281 18.011719 14.445312 C 18.011719 14.617188 18.011719 14.789062 18.011719 14.960938 C 18.015625 15.117188 18.015625 15.273438 18.011719 15.429688 C 18.011719 15.488281 18.011719 15.542969 18.011719 15.601562 C 18.015625 16.257812 17.835938 16.851562 17.375 17.332031 C 16.847656 17.855469 16.25 18.011719 15.527344 18.007812 C 15.46875 18.007812 15.410156 18.007812 15.351562 18.007812 C 15.191406 18.011719 15.03125 18.011719 14.871094 18.007812 C 14.695312 18.007812 14.523438 18.011719 14.351562 18.011719 C 14.011719 18.011719 13.671875 18.011719 13.332031 18.011719 C 13.054688 18.011719 12.78125 18.011719 12.503906 18.011719 C 12.464844 18.011719 12.425781 18.011719 12.386719 18.011719 C 12.304688 18.011719 12.226562 18.011719 12.148438 18.011719 C 11.398438 18.011719 10.652344 18.011719 9.902344 18.011719 C 9.21875 18.011719 8.535156 18.011719 7.851562 18.011719 C 7.148438 18.011719 6.445312 18.011719 5.742188 18.011719 C 5.347656 18.011719 4.953125 18.011719 4.558594 18.011719 C 4.222656 18.015625 3.886719 18.015625 3.554688 18.011719 C 3.382812 18.011719 3.210938 18.011719 3.039062 18.011719 C 2.882812 18.015625 2.726562 18.015625 2.570312 18.011719 C 2.511719 18.011719 2.457031 18.011719 2.398438 18.011719 C 1.742188 18.015625 1.148438 17.835938 0.667969 17.375 C 0.144531 16.847656 -0.0117188 16.25 -0.0078125 15.527344 C -0.0078125 15.46875 -0.0078125 15.410156 -0.0078125 15.351562 C -0.0117188 15.191406 -0.0117188 15.03125 -0.0078125 14.871094 C -0.0078125 14.695312 -0.0117188 14.523438 -0.0117188 14.351562 C -0.0117188 14.011719 -0.0117188 13.671875 -0.0117188 13.332031 C -0.0117188 13.054688 -0.0117188 12.78125 -0.0117188 12.503906 C -0.0117188 12.464844 -0.0117188 12.425781 -0.0117188 12.386719 C -0.0117188 12.304688 -0.0117188 12.226562 -0.0117188 12.148438 C -0.0117188 11.398438 -0.0117188 10.652344 -0.0117188 9.902344 C -0.0117188 9.21875 -0.0117188 8.535156 -0.0117188 7.851562 C -0.0117188 7.148438 -0.0117188 6.445312 -0.0117188 5.742188 C -0.0117188 5.347656 -0.0117188 4.953125 -0.0117188 4.558594 C -0.015625 4.222656 -0.015625 3.886719 -0.0117188 3.554688 C -0.0117188 3.382812 -0.0117188 3.210938 -0.0117188 3.039062 C -0.015625 2.882812 -0.015625 2.726562 -0.0117188 2.570312 C -0.0117188 2.511719 -0.0117188 2.457031 -0.0117188 2.398438 C -0.015625 1.742188 0.164062 1.148438 0.625 0.667969 C 1.152344 0.144531 1.75 -0.0117188 2.472656 -0.0078125 Z M 1.425781 1.425781 C 1.398438 1.453125 1.371094 1.476562 1.34375 1.503906 C 1.128906 1.808594 1.0625 2.113281 1.070312 2.480469 C 1.070312 2.523438 1.070312 2.5625 1.066406 2.609375 C 1.066406 2.722656 1.070312 2.839844 1.070312 2.957031 C 1.070312 3.082031 1.070312 3.207031 1.070312 3.332031 C 1.070312 3.550781 1.070312 3.765625 1.070312 3.984375 C 1.074219 4.300781 1.074219 4.613281 1.074219 4.925781 C 1.074219 5.4375 1.074219 5.945312 1.078125 6.457031 C 1.078125 6.953125 1.078125 7.445312 1.082031 7.941406 C 1.082031 7.972656 1.082031 8.003906 1.082031 8.035156 C 1.082031 8.1875 1.082031 8.339844 1.082031 8.496094 C 1.082031 9.765625 1.085938 11.035156 1.089844 12.304688 C 1.132812 12.273438 1.179688 12.238281 1.222656 12.207031 C 1.246094 12.1875 1.273438 12.167969 1.296875 12.148438 C 1.402344 12.070312 1.503906 11.984375 1.605469 11.894531 C 1.648438 11.859375 1.691406 11.820312 1.730469 11.785156 C 1.765625 11.757812 1.765625 11.757812 1.796875 11.726562 C 1.902344 11.636719 2.011719 11.546875 2.117188 11.453125 C 2.136719 11.4375 2.15625 11.417969 2.179688 11.402344 C 2.304688 11.292969 2.429688 11.1875 2.558594 11.085938 C 2.679688 10.984375 2.800781 10.882812 2.917969 10.773438 C 3.066406 10.640625 3.222656 10.511719 3.378906 10.382812 C 3.449219 10.324219 3.519531 10.265625 3.589844 10.207031 C 3.609375 10.191406 3.628906 10.175781 3.648438 10.160156 C 3.699219 10.117188 3.75 10.074219 3.804688 10.027344 C 4.132812 9.761719 4.496094 9.632812 4.921875 9.667969 C 5.417969 9.746094 5.730469 10.007812 6.097656 10.328125 C 6.222656 10.441406 6.351562 10.546875 6.484375 10.652344 C 6.59375 10.738281 6.695312 10.824219 6.800781 10.914062 C 6.839844 10.945312 6.878906 10.980469 6.917969 11.011719 C 6.972656 11.058594 7.03125 11.109375 7.085938 11.15625 C 7.140625 11.203125 7.195312 11.246094 7.246094 11.292969 C 7.277344 11.316406 7.308594 11.34375 7.339844 11.371094 C 7.417969 11.4375 7.417969 11.4375 7.523438 11.425781 C 7.59375 11.367188 7.65625 11.308594 7.71875 11.242188 C 7.738281 11.222656 7.757812 11.203125 7.777344 11.183594 C 7.847656 11.113281 7.914062 11.046875 7.976562 10.980469 C 8.027344 10.933594 8.074219 10.886719 8.121094 10.835938 C 8.222656 10.734375 8.328125 10.628906 8.429688 10.527344 C 8.589844 10.363281 8.753906 10.199219 8.917969 10.035156 C 9.320312 9.632812 9.722656 9.226562 10.125 8.820312 C 10.441406 8.503906 10.753906 8.1875 11.066406 7.875 C 11.226562 7.710938 11.390625 7.550781 11.550781 7.386719 C 11.652344 7.285156 11.75 7.183594 11.851562 7.082031 C 11.898438 7.035156 11.945312 6.988281 11.992188 6.941406 C 12.398438 6.53125 12.761719 6.238281 13.367188 6.21875 C 13.828125 6.242188 14.160156 6.441406 14.464844 6.777344 C 14.589844 6.917969 14.710938 7.0625 14.828125 7.210938 C 14.925781 7.335938 15.023438 7.457031 15.125 7.582031 C 15.144531 7.605469 15.164062 7.628906 15.183594 7.652344 C 15.222656 7.703125 15.261719 7.753906 15.304688 7.800781 C 15.417969 7.941406 15.535156 8.085938 15.648438 8.226562 C 15.746094 8.34375 15.839844 8.460938 15.9375 8.582031 C 16.121094 8.808594 16.304688 9.035156 16.484375 9.265625 C 16.613281 9.425781 16.738281 9.585938 16.875 9.738281 C 16.886719 9.738281 16.898438 9.738281 16.910156 9.738281 C 16.914062 8.742188 16.917969 7.746094 16.917969 6.75 C 16.921875 6.285156 16.921875 5.824219 16.921875 5.359375 C 16.925781 4.957031 16.925781 4.554688 16.925781 4.148438 C 16.925781 3.9375 16.925781 3.722656 16.929688 3.507812 C 16.929688 3.308594 16.929688 3.105469 16.929688 2.90625 C 16.929688 2.832031 16.929688 2.757812 16.929688 2.683594 C 16.933594 2.234375 16.921875 1.882812 16.65625 1.503906 C 16.613281 1.464844 16.613281 1.464844 16.574219 1.425781 C 16.535156 1.386719 16.535156 1.386719 16.496094 1.34375 C 16.144531 1.097656 15.800781 1.0625 15.382812 1.066406 C 15.328125 1.066406 15.269531 1.066406 15.210938 1.066406 C 15.054688 1.066406 14.898438 1.066406 14.742188 1.066406 C 14.570312 1.066406 14.402344 1.066406 14.230469 1.066406 C 13.898438 1.066406 13.566406 1.066406 13.234375 1.066406 C 12.964844 1.066406 12.695312 1.066406 12.425781 1.066406 C 12.386719 1.066406 12.347656 1.066406 12.308594 1.066406 C 12.230469 1.066406 12.152344 1.066406 12.074219 1.066406 C 11.34375 1.066406 10.609375 1.066406 9.878906 1.066406 C 9.25 1.066406 8.625 1.066406 7.996094 1.066406 C 7.265625 1.066406 6.535156 1.066406 5.808594 1.066406 C 5.730469 1.066406 5.652344 1.066406 5.574219 1.066406 C 5.535156 1.066406 5.496094 1.066406 5.457031 1.066406 C 5.1875 1.066406 4.917969 1.066406 4.648438 1.066406 C 4.320312 1.066406 3.992188 1.066406 3.664062 1.066406 C 3.496094 1.066406 3.328125 1.066406 3.160156 1.066406 C 3.007812 1.066406 2.855469 1.066406 2.699219 1.066406 C 2.644531 1.066406 2.589844 1.066406 2.535156 1.066406 C 2.121094 1.0625 1.730469 1.117188 1.425781 1.425781 Z M 13.078125 7.382812 C 12.960938 7.480469 12.855469 7.585938 12.75 7.695312 C 12.71875 7.726562 12.6875 7.757812 12.652344 7.789062 C 12.566406 7.875 12.480469 7.964844 12.394531 8.050781 C 12.304688 8.144531 12.210938 8.234375 12.121094 8.324219 C 11.96875 8.480469 11.8125 8.632812 11.660156 8.789062 C 11.464844 8.984375 11.269531 9.179688 11.074219 9.378906 C 10.902344 9.546875 10.734375 9.714844 10.566406 9.886719 C 10.53125 9.921875 10.492188 9.957031 10.457031 9.996094 C 10.339844 10.113281 10.21875 10.234375 10.101562 10.355469 C 10.054688 10.398438 10.054688 10.398438 10.011719 10.445312 C 9.863281 10.59375 9.71875 10.746094 9.582031 10.90625 C 9.507812 10.988281 9.433594 11.070312 9.355469 11.148438 C 9.320312 11.179688 9.289062 11.210938 9.257812 11.246094 C 9.222656 11.277344 9.191406 11.3125 9.15625 11.347656 C 9.121094 11.382812 9.085938 11.417969 9.050781 11.453125 C 8.976562 11.527344 8.902344 11.601562 8.828125 11.675781 C 8.734375 11.769531 8.636719 11.863281 8.542969 11.960938 C 8.472656 12.03125 8.398438 12.105469 8.324219 12.179688 C 8.289062 12.214844 8.253906 12.25 8.222656 12.285156 C 8.171875 12.332031 8.125 12.382812 8.074219 12.429688 C 8.046875 12.457031 8.019531 12.484375 7.992188 12.515625 C 7.828125 12.660156 7.671875 12.734375 7.453125 12.726562 C 7.226562 12.660156 7.085938 12.5625 6.914062 12.402344 C 6.867188 12.363281 6.820312 12.320312 6.773438 12.277344 C 6.75 12.257812 6.730469 12.238281 6.707031 12.21875 C 6.628906 12.148438 6.546875 12.082031 6.464844 12.019531 C 6.308594 11.898438 6.160156 11.769531 6.007812 11.640625 C 5.855469 11.511719 5.703125 11.386719 5.546875 11.261719 C 5.476562 11.203125 5.402344 11.140625 5.332031 11.078125 C 5.3125 11.058594 5.292969 11.042969 5.273438 11.023438 C 5.234375 10.988281 5.195312 10.957031 5.15625 10.921875 C 5.027344 10.808594 4.917969 10.746094 4.746094 10.722656 C 4.570312 10.78125 4.441406 10.898438 4.304688 11.019531 C 4.261719 11.058594 4.21875 11.097656 4.171875 11.136719 C 4.152344 11.15625 4.128906 11.175781 4.105469 11.195312 C 4.011719 11.277344 3.914062 11.359375 3.8125 11.441406 C 3.652344 11.578125 3.496094 11.714844 3.335938 11.851562 C 3.191406 11.976562 3.050781 12.097656 2.902344 12.214844 C 2.679688 12.394531 2.464844 12.585938 2.246094 12.773438 C 1.976562 13.007812 1.707031 13.238281 1.4375 13.46875 C 1.417969 13.484375 1.398438 13.5 1.378906 13.515625 C 1.238281 13.636719 1.238281 13.636719 1.15625 13.683594 C 1.082031 13.742188 1.082031 13.742188 1.070312 13.839844 C 1.070312 13.878906 1.070312 13.914062 1.070312 13.953125 C 1.070312 13.996094 1.070312 14.039062 1.070312 14.085938 C 1.070312 14.132812 1.070312 14.179688 1.070312 14.226562 C 1.070312 14.273438 1.070312 14.324219 1.070312 14.371094 C 1.070312 14.472656 1.070312 14.574219 1.070312 14.675781 C 1.070312 14.804688 1.070312 14.9375 1.066406 15.066406 C 1.066406 15.164062 1.066406 15.265625 1.066406 15.367188 C 1.066406 15.4375 1.066406 15.507812 1.066406 15.578125 C 1.070312 15.925781 1.140625 16.207031 1.34375 16.496094 C 1.386719 16.535156 1.386719 16.535156 1.425781 16.574219 C 1.464844 16.613281 1.464844 16.613281 1.503906 16.65625 C 1.855469 16.902344 2.199219 16.9375 2.617188 16.933594 C 2.671875 16.933594 2.730469 16.933594 2.789062 16.933594 C 2.945312 16.933594 3.101562 16.933594 3.257812 16.933594 C 3.429688 16.933594 3.597656 16.933594 3.769531 16.933594 C 4.101562 16.933594 4.433594 16.933594 4.765625 16.933594 C 5.035156 16.933594 5.304688 16.933594 5.574219 16.933594 C 5.632812 16.933594 5.632812 16.933594 5.691406 16.933594 C 5.769531 16.933594 5.847656 16.933594 5.925781 16.933594 C 6.65625 16.933594 7.390625 16.933594 8.121094 16.933594 C 8.75 16.933594 9.375 16.933594 10.003906 16.933594 C 10.734375 16.933594 11.464844 16.933594 12.191406 16.933594 C 12.269531 16.933594 12.347656 16.933594 12.425781 16.933594 C 12.464844 16.933594 12.503906 16.933594 12.542969 16.933594 C 12.8125 16.933594 13.082031 16.933594 13.351562 16.933594 C 13.679688 16.933594 14.007812 16.933594 14.335938 16.933594 C 14.503906 16.933594 14.671875 16.933594 14.839844 16.933594 C 14.992188 16.933594 15.144531 16.933594 15.300781 16.933594 C 15.355469 16.933594 15.410156 16.933594 15.464844 16.933594 C 15.851562 16.9375 16.171875 16.882812 16.496094 16.65625 C 16.535156 16.613281 16.535156 16.613281 16.574219 16.574219 C 16.601562 16.546875 16.628906 16.523438 16.65625 16.496094 C 16.871094 16.1875 16.9375 15.878906 16.9375 15.511719 C 16.9375 15.445312 16.9375 15.445312 16.9375 15.378906 C 16.941406 15.265625 16.941406 15.148438 16.941406 15.03125 C 16.941406 14.957031 16.941406 14.886719 16.941406 14.8125 C 16.945312 14.558594 16.945312 14.300781 16.945312 14.046875 C 16.945312 13.808594 16.945312 13.574219 16.949219 13.335938 C 16.953125 13.132812 16.953125 12.925781 16.953125 12.722656 C 16.953125 12.601562 16.953125 12.480469 16.957031 12.359375 C 16.988281 11.742188 16.988281 11.742188 16.71875 11.210938 C 16.65625 11.152344 16.589844 11.09375 16.523438 11.039062 C 16.488281 10.996094 16.453125 10.953125 16.417969 10.90625 C 16.226562 10.660156 16.03125 10.417969 15.832031 10.175781 C 15.632812 9.9375 15.4375 9.695312 15.242188 9.457031 C 15.167969 9.363281 15.09375 9.269531 15.015625 9.175781 C 14.976562 9.128906 14.941406 9.082031 14.902344 9.035156 C 14.804688 8.917969 14.710938 8.800781 14.613281 8.679688 C 14.433594 8.457031 14.25 8.234375 14.074219 8.007812 C 14.027344 7.949219 13.980469 7.886719 13.933594 7.828125 C 13.902344 7.789062 13.871094 7.75 13.839844 7.707031 C 13.792969 7.648438 13.746094 7.589844 13.699219 7.53125 C 13.671875 7.5 13.648438 7.464844 13.617188 7.429688 C 13.4375 7.253906 13.285156 7.257812 13.078125 7.382812 Z M 13.078125 7.382812 "/>
<path style=" stroke:none;fill-rule:nonzero;fill:rgb(15.686275%,18.82353%,26.666668%);fill-opacity:1;" d="M 7.121094 2.628906 C 7.199219 2.6875 7.273438 2.75 7.347656 2.8125 C 7.382812 2.835938 7.417969 2.863281 7.453125 2.890625 C 7.871094 3.246094 8.164062 3.851562 8.226562 4.394531 C 8.28125 5.164062 8.140625 5.859375 7.628906 6.460938 C 7.605469 6.488281 7.582031 6.511719 7.558594 6.539062 C 7.539062 6.5625 7.519531 6.582031 7.5 6.605469 C 7.066406 7.074219 6.425781 7.308594 5.804688 7.359375 C 5.078125 7.382812 4.398438 7.136719 3.863281 6.640625 C 3.382812 6.171875 3.097656 5.527344 3.085938 4.851562 C 3.082031 4.078125 3.347656 3.457031 3.875 2.890625 C 4.730469 2.070312 6.144531 1.949219 7.121094 2.628906 Z M 4.503906 3.839844 C 4.222656 4.25 4.144531 4.644531 4.21875 5.132812 C 4.320312 5.523438 4.589844 5.851562 4.929688 6.0625 C 5.273438 6.246094 5.628906 6.296875 6.011719 6.222656 C 6.46875 6.082031 6.78125 5.835938 7.003906 5.410156 C 7.171875 5.050781 7.203125 4.644531 7.066406 4.265625 C 6.882812 3.839844 6.597656 3.550781 6.167969 3.371094 C 5.570312 3.15625 4.902344 3.351562 4.503906 3.839844 Z M 4.503906 3.839844 "/>
</g>
</svg>
