<svg width="25" height="25" viewBox="0 0 25 25" fill="none" xmlns="http://www.w3.org/2000/svg">
<path d="M6.39441 0.0040085C6.54301 0.0040085 6.69162 0.0040085 6.84023 0.0040085C7.19688 0.0040085 7.55354 0.0040085 7.9102 0.0040085C8.20317 0.0040085 8.49613 0.0040085 8.78485 0.0040085C8.82732 0.0040085 8.86977 0.0040085 8.91223 0.0040085C8.99715 0.0040085 9.08207 0.0040085 9.16699 0.0040085C9.95673 0.0040085 10.7507 0.0040085 11.5405 0.0040085C12.2623 0.0040085 12.9841 0.0040085 13.7059 0.000114218C14.4531 0.000114218 15.1962 0.000114218 15.9392 0.000114218C16.0241 0.000114218 16.1091 0.000114218 16.194 0.000114218C16.2364 0.000114218 16.2746 0.000114218 16.3171 0.000114218C16.6101 0.000114218 16.8988 0.000114218 17.1918 0.000114218C17.5442 0.000114218 17.9008 0.000114218 18.2532 0.000114218C18.4358 0.000114218 18.6141 0.000114218 18.7967 0.000114218C20.5588 -0.00767445 22.0448 0.381759 23.3483 1.51112C24.6264 2.68331 24.9958 4.17874 25 5.7832C25 5.94287 25 6.10643 25 6.2661C25 6.48418 25 6.69837 25 6.91645C25 7.34094 25 7.76152 25 8.18601C25 8.68059 25 9.17517 25 9.66585C25 10.546 25 11.43 24.9958 12.3101C24.9958 13.163 24.9958 14.0158 24.9958 14.8687C24.9958 15.7994 24.9958 16.7341 24.9958 17.6648C24.9958 17.7622 24.9958 17.8634 24.9958 17.9608C24.9958 18.0114 24.9958 18.0581 24.9958 18.1088C24.9958 18.4554 24.9958 18.7981 24.9958 19.1408C24.9958 19.5614 24.9958 19.9781 24.9958 20.3986C24.9958 20.6089 24.9958 20.8231 24.9958 21.0373C24.9958 21.232 24.9958 21.4267 24.9915 21.6254C24.9915 21.6955 24.9915 21.7656 24.9915 21.8357C24.9958 22.7508 24.724 23.5141 24.0149 24.1761C23.6795 24.441 23.3101 24.6513 22.9025 24.8109C22.8431 24.8304 22.8431 24.8304 22.7794 24.8577C22.0618 25.0835 21.1532 25.0329 20.4611 24.7603C20.4144 24.7447 20.372 24.7291 20.3252 24.7136C19.7733 24.4955 19.3487 24.0437 18.9411 23.6543C18.8392 23.5647 18.7373 23.483 18.6311 23.3973C18.3467 23.1675 18.0749 22.9222 17.8074 22.6729C17.748 22.6184 17.6928 22.5678 17.6333 22.5133C17.4805 22.3731 17.3234 22.229 17.1705 22.0849C17.0049 21.9369 16.8436 21.7889 16.6823 21.6409C16.3765 21.3566 16.0666 21.0763 15.7609 20.792C15.4127 20.4726 15.0603 20.1494 14.7122 19.8301C13.9903 19.168 13.2728 18.5099 12.551 17.8479C12.3472 17.9257 12.2198 18.0465 12.0627 18.1906C12.0202 18.2256 12.0202 18.2256 11.982 18.2645C11.8886 18.3502 11.7995 18.432 11.706 18.5177C11.6424 18.5761 11.5744 18.6384 11.5107 18.6968C11.3664 18.8292 11.2263 18.9577 11.0861 19.0901C10.8611 19.2965 10.6403 19.4991 10.4153 19.7055C9.90153 20.1806 9.38353 20.6557 8.86977 21.1308C8.39848 21.563 7.92718 21.9992 7.45588 22.4315C7.2351 22.634 7.01006 22.8404 6.78928 23.0429C6.64916 23.1714 6.51329 23.2999 6.37318 23.4284C6.30949 23.4868 6.2458 23.5453 6.18211 23.6037C5.26924 24.4488 5.26924 24.4488 4.75124 24.6785C4.67906 24.7097 4.67906 24.7097 4.60688 24.7447C4.1653 24.9083 3.77468 24.9823 3.30338 24.9745C3.24818 24.9745 3.19299 24.9745 3.13779 24.9745C2.72169 24.9667 2.37777 24.9161 1.99139 24.7603C1.94469 24.7447 1.89798 24.7252 1.85128 24.7097C1.06579 24.3864 0.501079 23.7867 0.186881 23.0624C0.0340279 22.6184 0.0127986 22.2095 0.0127986 21.7461C0.0127986 21.676 0.0127986 21.602 0.0127986 21.528C0.0127986 21.3255 0.0127986 21.1269 0.0127986 20.9244C0.0127986 20.7063 0.0127986 20.4921 0.0127986 20.274C0.00855185 19.8495 0.00855189 19.4251 0.00855189 19.0006C0.00855189 18.654 0.00855189 18.3074 0.00855189 17.9608C0.00855189 16.9794 0.00855189 15.998 0.00855189 15.0167C0.00855189 14.966 0.00855189 14.9115 0.00855189 14.857C0.00855189 14.8025 0.00855189 14.7519 0.00855189 14.6973C0.00855189 13.8406 0.00855187 12.9838 0.00430623 12.1271C0.00430623 11.2431 0.00430623 10.3629 0.00430623 9.48282C0.00430623 8.98824 0.00430622 8.49366 6.05759e-05 7.99908C6.05759e-05 7.57849 6.05759e-05 7.1579 6.05759e-05 6.73731C6.05759e-05 6.52313 6.05759e-05 6.30894 6.05759e-05 6.09475C-0.00418507 4.46692 0.212356 3.06106 1.40546 1.78372C1.43518 1.75256 1.46065 1.71752 1.49038 1.68636C2.70895 0.299978 4.57291 0.000114218 6.39441 0.0040085ZM4.20776 2.44576C4.17379 2.46523 4.13558 2.48081 4.10161 2.49638C3.77892 2.65605 3.51568 2.85466 3.26517 3.10001C3.2312 3.12727 3.19723 3.15842 3.16327 3.18957C2.37353 3.93729 2.30135 4.95371 2.30135 5.93897C2.30135 6.00518 2.30135 6.07528 2.30135 6.14537C2.30135 6.3323 2.30135 6.52313 2.30135 6.71395C2.30135 6.91645 2.30135 7.11896 2.30135 7.32536C2.30135 7.72647 2.30135 8.1237 2.30135 8.52481C2.30135 8.84804 2.30135 9.17517 2.30135 9.4984C2.30135 10.4214 2.30135 11.3404 2.30135 12.2634C2.30135 12.314 2.30135 12.3607 2.30135 12.4153C2.30135 12.462 2.30135 12.5126 2.30135 12.5632C2.30135 13.3694 2.30135 14.1755 2.2971 14.9816C2.2971 15.8111 2.2971 16.6367 2.2971 17.4662C2.2971 17.9296 2.2971 18.3931 2.2971 18.8604C2.2971 19.2537 2.2971 19.6509 2.2971 20.0443C2.2971 20.2468 2.2971 20.4493 2.2971 20.6518C2.2971 20.8348 2.2971 21.0217 2.2971 21.2048C2.2971 21.3021 2.2971 21.3995 2.2971 21.5007C2.2971 21.9369 2.30135 22.3147 2.64527 22.6418C2.86181 22.817 3.06561 22.8754 3.35009 22.8599C3.74071 22.8209 4.01669 22.5288 4.27994 22.2796C4.31391 22.2485 4.34788 22.2173 4.38609 22.1822C4.49648 22.081 4.60688 21.9758 4.71727 21.8746C4.82766 21.7694 4.93806 21.6682 5.0527 21.563C5.12063 21.5007 5.18857 21.4384 5.2565 21.3722C5.40935 21.2281 5.56645 21.0918 5.73629 20.9594C6.02077 20.7336 6.27977 20.4921 6.54301 20.2468C6.59821 20.1922 6.65765 20.1416 6.71285 20.091C6.83174 19.9781 6.95487 19.869 7.07375 19.7561C7.26482 19.5808 7.45589 19.4017 7.64695 19.2264C7.67667 19.1992 7.71064 19.168 7.74461 19.1369C7.8083 19.0746 7.87623 19.0162 7.94416 18.9538C8.38574 18.5449 8.83156 18.136 9.27314 17.7271C9.57035 17.4467 9.87181 17.1702 10.1733 16.8937C10.3304 16.7496 10.4917 16.6017 10.6488 16.4537C10.7974 16.3174 10.946 16.1811 11.0946 16.0448C11.1498 15.9941 11.205 15.9435 11.2602 15.8929C11.5999 15.5736 11.9056 15.3204 12.3939 15.2425C12.4406 15.2425 12.483 15.2425 12.5298 15.2425C12.5765 15.2425 12.6189 15.2425 12.6656 15.2425C13.1327 15.3204 13.4171 15.5969 13.7356 15.8968C13.7865 15.9396 13.8332 15.9825 13.88 16.0253C14.0116 16.146 14.139 16.2668 14.2706 16.3836C14.4022 16.5121 14.5423 16.6367 14.6782 16.7613C14.9329 16.9989 15.1919 17.2364 15.4467 17.474C15.8246 17.8206 16.2025 18.1711 16.5761 18.5177C16.6058 18.541 16.6355 18.5683 16.661 18.5956C16.7162 18.6462 16.7714 18.6968 16.8266 18.7474C16.988 18.8954 17.1493 19.0434 17.3106 19.1953C17.3871 19.2654 17.4635 19.3355 17.5399 19.4056C17.6333 19.4913 17.7267 19.5769 17.8159 19.6626C18.0409 19.869 18.2702 20.0637 18.508 20.2546C18.6396 20.3597 18.7628 20.4726 18.8859 20.5856C18.9114 20.6089 18.9326 20.6323 18.9581 20.6557C19.0133 20.7063 19.0642 20.753 19.1194 20.8037C19.2043 20.8815 19.285 20.9594 19.3699 21.0373C19.6119 21.2593 19.8497 21.4813 20.0875 21.7032C20.2361 21.8395 20.3804 21.9758 20.5291 22.1121C20.5842 22.1667 20.6394 22.2173 20.6946 22.2679C20.7753 22.3419 20.8517 22.412 20.9282 22.486C20.9749 22.5249 21.0173 22.5678 21.064 22.6106C21.2551 22.7547 21.4547 22.8521 21.7052 22.8715C22.0448 22.8326 22.2486 22.7313 22.4907 22.5055C22.7412 22.1511 22.7072 21.7656 22.703 21.3566C22.703 21.2865 22.703 21.2165 22.703 21.1464C22.703 20.9594 22.703 20.7686 22.703 20.5778C22.703 20.3714 22.703 20.165 22.703 19.9586C22.703 19.5575 22.703 19.1525 22.703 18.7513C22.703 18.4242 22.703 18.0971 22.703 17.77C22.703 17.6999 22.703 17.6999 22.703 17.6259C22.703 17.5324 22.703 17.4389 22.703 17.3416C22.703 16.4537 22.703 15.5658 22.703 14.6779C22.703 13.9146 22.703 13.1552 22.703 12.3919C22.703 11.5079 22.703 10.6239 22.703 9.73595C22.703 9.64249 22.703 9.54902 22.703 9.45556C22.703 9.40883 22.703 9.3621 22.703 9.31147C22.703 8.98435 22.703 8.66112 22.703 8.33399C22.703 7.93287 22.703 7.53565 22.703 7.13454C22.703 6.93203 22.703 6.72953 22.703 6.52702C22.703 6.34009 22.703 6.15316 22.703 5.96624C22.703 5.86888 22.703 5.77152 22.703 5.67027C22.6987 4.64606 22.4567 3.77762 21.6797 3.01433C20.9409 2.36787 20.0365 2.11863 19.0302 2.11863C18.975 2.11863 18.9156 2.11863 18.8562 2.11863C18.6651 2.11863 18.4698 2.11863 18.2745 2.11474C18.1386 2.11474 17.9985 2.11474 17.8584 2.11474C17.4805 2.11474 17.1026 2.11474 16.7247 2.11474C16.4912 2.11474 16.2534 2.11474 16.0199 2.11474C15.366 2.11474 14.7122 2.11474 14.0583 2.11474C14.0158 2.11474 13.9734 2.11474 13.9309 2.11474C13.8672 2.11474 13.8672 2.11474 13.8035 2.11474C13.7186 2.11474 13.6337 2.11474 13.5488 2.11084C13.4851 2.11084 13.4851 2.11084 13.4214 2.11084C12.7378 2.11084 12.0542 2.11084 11.3749 2.11084C10.6743 2.11084 9.96947 2.10695 9.26889 2.10695C8.87827 2.10695 8.4834 2.10695 8.08853 2.10695C7.7531 2.10695 7.41767 2.10695 7.08224 2.10695C6.91241 2.10695 6.74257 2.10695 6.57273 2.10695C5.35416 2.09527 5.35416 2.09527 4.20776 2.44576Z" fill="#283044"/>
</svg>
