<?xml version="1.0" encoding="UTF-8"?>
<svg xmlns="http://www.w3.org/2000/svg" xmlns:xlink="http://www.w3.org/1999/xlink" width="25px" height="25px" viewBox="0 0 25 25" version="1.1">
<g id="surface1">
<path style=" stroke:none;fill-rule:nonzero;fill:rgb(86.274511%,92.54902%,98.823529%);fill-opacity:1;" d="M 6.882812 -0.0273438 C 7.019531 -0.0273438 7.15625 -0.0273438 7.292969 -0.0273438 C 7.621094 -0.0273438 7.949219 -0.0273438 8.277344 -0.0273438 C 8.546875 -0.0273438 8.816406 -0.0273438 9.082031 -0.0273438 C 9.121094 -0.0273438 9.160156 -0.0273438 9.199219 -0.0273438 C 9.277344 -0.0273438 9.355469 -0.0273438 9.433594 -0.0273438 C 10.160156 -0.0273438 10.890625 -0.0273438 11.617188 -0.0273438 C 12.28125 -0.0273438 12.945312 -0.0273438 13.609375 -0.03125 C 14.296875 -0.03125 14.980469 -0.03125 15.664062 -0.03125 C 15.742188 -0.03125 15.820312 -0.03125 15.898438 -0.03125 C 15.9375 -0.03125 15.972656 -0.03125 16.011719 -0.03125 C 16.28125 -0.03125 16.546875 -0.03125 16.816406 -0.03125 C 17.140625 -0.03125 17.46875 -0.03125 17.792969 -0.03125 C 17.960938 -0.03125 18.125 -0.03125 18.292969 -0.03125 C 19.914062 -0.0390625 21.28125 0.351562 22.480469 1.484375 C 23.65625 2.660156 23.996094 4.160156 24 5.769531 C 24 5.929688 24 6.09375 24 6.253906 C 24 6.472656 24 6.6875 24 6.90625 C 24 7.332031 24 7.753906 24 8.179688 C 24 8.675781 24 9.171875 24 9.664062 C 24 10.546875 24 11.433594 23.996094 12.316406 C 23.996094 13.171875 23.996094 14.027344 23.996094 14.882812 C 23.996094 15.816406 23.996094 16.753906 23.996094 17.6875 C 23.996094 17.785156 23.996094 17.886719 23.996094 17.984375 C 23.996094 18.035156 23.996094 18.082031 23.996094 18.132812 C 23.996094 18.480469 23.996094 18.824219 23.996094 19.167969 C 23.996094 19.589844 23.996094 20.007812 23.996094 20.429688 C 23.996094 20.640625 23.996094 20.855469 23.996094 21.070312 C 23.996094 21.265625 23.996094 21.460938 23.992188 21.660156 C 23.992188 21.730469 23.992188 21.800781 23.992188 21.871094 C 23.996094 22.789062 23.746094 23.554688 23.09375 24.21875 C 22.785156 24.484375 22.445312 24.695312 22.070312 24.855469 C 22.015625 24.875 22.015625 24.875 21.957031 24.902344 C 21.296875 25.128906 20.460938 25.078125 19.824219 24.804688 C 19.78125 24.789062 19.742188 24.773438 19.699219 24.757812 C 19.191406 24.539062 18.800781 24.085938 18.425781 23.695312 C 18.332031 23.605469 18.238281 23.523438 18.140625 23.4375 C 17.878906 23.207031 17.628906 22.960938 17.382812 22.710938 C 17.328125 22.65625 17.277344 22.605469 17.222656 22.550781 C 17.082031 22.410156 16.9375 22.265625 16.796875 22.121094 C 16.644531 21.972656 16.496094 21.824219 16.347656 21.675781 C 16.066406 21.390625 15.78125 21.109375 15.5 20.824219 C 15.179688 20.503906 14.855469 20.179688 14.535156 19.859375 C 13.871094 19.195312 13.210938 18.535156 12.546875 17.871094 C 12.359375 17.949219 12.242188 18.070312 12.097656 18.214844 C 12.058594 18.25 12.058594 18.25 12.023438 18.289062 C 11.9375 18.375 11.855469 18.457031 11.769531 18.542969 C 11.710938 18.601562 11.648438 18.664062 11.589844 18.722656 C 11.457031 18.855469 11.328125 18.984375 11.199219 19.117188 C 10.992188 19.324219 10.789062 19.527344 10.582031 19.734375 C 10.109375 20.210938 9.632812 20.6875 9.160156 21.164062 C 8.726562 21.597656 8.292969 22.035156 7.859375 22.46875 C 7.65625 22.671875 7.449219 22.878906 7.246094 23.082031 C 7.117188 23.210938 6.992188 23.339844 6.863281 23.46875 C 6.804688 23.527344 6.746094 23.585938 6.6875 23.644531 C 5.847656 24.492188 5.847656 24.492188 5.371094 24.722656 C 5.304688 24.753906 5.304688 24.753906 5.238281 24.789062 C 4.832031 24.953125 4.472656 25.027344 4.039062 25.019531 C 3.988281 25.019531 3.9375 25.019531 3.886719 25.019531 C 3.503906 25.011719 3.1875 24.960938 2.832031 24.804688 C 2.789062 24.789062 2.746094 24.769531 2.703125 24.753906 C 1.980469 24.429688 1.460938 23.828125 1.171875 23.101562 C 1.03125 22.65625 1.011719 22.246094 1.011719 21.78125 C 1.011719 21.710938 1.011719 21.636719 1.011719 21.5625 C 1.011719 21.359375 1.011719 21.160156 1.011719 20.957031 C 1.011719 20.738281 1.011719 20.523438 1.011719 20.304688 C 1.007812 19.878906 1.007812 19.453125 1.007812 19.027344 C 1.007812 18.679688 1.007812 18.332031 1.007812 17.984375 C 1.007812 17 1.007812 16.015625 1.007812 15.03125 C 1.007812 14.980469 1.007812 14.925781 1.007812 14.871094 C 1.007812 14.816406 1.007812 14.765625 1.007812 14.710938 C 1.007812 13.851562 1.007812 12.992188 1.003906 12.132812 C 1.003906 11.246094 1.003906 10.363281 1.003906 9.480469 C 1.003906 8.984375 1.003906 8.488281 1 7.992188 C 1 7.570312 1 7.148438 1 6.726562 C 1 6.511719 1 6.296875 1 6.082031 C 0.996094 4.449219 1.195312 3.039062 2.292969 1.757812 C 2.320312 1.726562 2.34375 1.691406 2.371094 1.660156 C 3.492188 0.269531 5.207031 -0.03125 6.882812 -0.0273438 Z M 6.882812 -0.0273438 "/>
<path style=" stroke:none;fill-rule:nonzero;fill:rgb(15.686275%,18.82353%,26.666668%);fill-opacity:1;" d="M 6.882812 -0.0273438 C 7.019531 -0.0273438 7.15625 -0.0273438 7.292969 -0.0273438 C 7.621094 -0.0273438 7.949219 -0.0273438 8.277344 -0.0273438 C 8.546875 -0.0273438 8.816406 -0.0273438 9.082031 -0.0273438 C 9.121094 -0.0273438 9.160156 -0.0273438 9.199219 -0.0273438 C 9.277344 -0.0273438 9.355469 -0.0273438 9.433594 -0.0273438 C 10.160156 -0.0273438 10.890625 -0.0273438 11.617188 -0.0273438 C 12.28125 -0.0273438 12.945312 -0.0273438 13.609375 -0.03125 C 14.296875 -0.03125 14.980469 -0.03125 15.664062 -0.03125 C 15.742188 -0.03125 15.820312 -0.03125 15.898438 -0.03125 C 15.9375 -0.03125 15.972656 -0.03125 16.011719 -0.03125 C 16.28125 -0.03125 16.546875 -0.03125 16.816406 -0.03125 C 17.140625 -0.03125 17.46875 -0.03125 17.792969 -0.03125 C 17.960938 -0.03125 18.125 -0.03125 18.292969 -0.03125 C 19.914062 -0.0390625 21.28125 0.351562 22.480469 1.484375 C 23.65625 2.660156 23.996094 4.160156 24 5.769531 C 24 5.929688 24 6.09375 24 6.253906 C 24 6.472656 24 6.6875 24 6.90625 C 24 7.332031 24 7.753906 24 8.179688 C 24 8.675781 24 9.171875 24 9.664062 C 24 10.546875 24 11.433594 23.996094 12.316406 C 23.996094 13.171875 23.996094 14.027344 23.996094 14.882812 C 23.996094 15.816406 23.996094 16.753906 23.996094 17.6875 C 23.996094 17.785156 23.996094 17.886719 23.996094 17.984375 C 23.996094 18.035156 23.996094 18.082031 23.996094 18.132812 C 23.996094 18.480469 23.996094 18.824219 23.996094 19.167969 C 23.996094 19.589844 23.996094 20.007812 23.996094 20.429688 C 23.996094 20.640625 23.996094 20.855469 23.996094 21.070312 C 23.996094 21.265625 23.996094 21.460938 23.992188 21.660156 C 23.992188 21.730469 23.992188 21.800781 23.992188 21.871094 C 23.996094 22.789062 23.746094 23.554688 23.09375 24.21875 C 22.785156 24.484375 22.445312 24.695312 22.070312 24.855469 C 22.015625 24.875 22.015625 24.875 21.957031 24.902344 C 21.296875 25.128906 20.460938 25.078125 19.824219 24.804688 C 19.78125 24.789062 19.742188 24.773438 19.699219 24.757812 C 19.191406 24.539062 18.800781 24.085938 18.425781 23.695312 C 18.332031 23.605469 18.238281 23.523438 18.140625 23.4375 C 17.878906 23.207031 17.628906 22.960938 17.382812 22.710938 C 17.328125 22.65625 17.277344 22.605469 17.222656 22.550781 C 17.082031 22.410156 16.9375 22.265625 16.796875 22.121094 C 16.644531 21.972656 16.496094 21.824219 16.347656 21.675781 C 16.066406 21.390625 15.78125 21.109375 15.5 20.824219 C 15.179688 20.503906 14.855469 20.179688 14.535156 19.859375 C 13.871094 19.195312 13.210938 18.535156 12.546875 17.871094 C 12.359375 17.949219 12.242188 18.070312 12.097656 18.214844 C 12.058594 18.25 12.058594 18.25 12.023438 18.289062 C 11.9375 18.375 11.855469 18.457031 11.769531 18.542969 C 11.710938 18.601562 11.648438 18.664062 11.589844 18.722656 C 11.457031 18.855469 11.328125 18.984375 11.199219 19.117188 C 10.992188 19.324219 10.789062 19.527344 10.582031 19.734375 C 10.109375 20.210938 9.632812 20.6875 9.160156 21.164062 C 8.726562 21.597656 8.292969 22.035156 7.859375 22.46875 C 7.65625 22.671875 7.449219 22.878906 7.246094 23.082031 C 7.117188 23.210938 6.992188 23.339844 6.863281 23.46875 C 6.804688 23.527344 6.746094 23.585938 6.6875 23.644531 C 5.847656 24.492188 5.847656 24.492188 5.371094 24.722656 C 5.304688 24.753906 5.304688 24.753906 5.238281 24.789062 C 4.832031 24.953125 4.472656 25.027344 4.039062 25.019531 C 3.988281 25.019531 3.9375 25.019531 3.886719 25.019531 C 3.503906 25.011719 3.1875 24.960938 2.832031 24.804688 C 2.789062 24.789062 2.746094 24.769531 2.703125 24.753906 C 1.980469 24.429688 1.460938 23.828125 1.171875 23.101562 C 1.03125 22.65625 1.011719 22.246094 1.011719 21.78125 C 1.011719 21.710938 1.011719 21.636719 1.011719 21.5625 C 1.011719 21.359375 1.011719 21.160156 1.011719 20.957031 C 1.011719 20.738281 1.011719 20.523438 1.011719 20.304688 C 1.007812 19.878906 1.007812 19.453125 1.007812 19.027344 C 1.007812 18.679688 1.007812 18.332031 1.007812 17.984375 C 1.007812 17 1.007812 16.015625 1.007812 15.03125 C 1.007812 14.980469 1.007812 14.925781 1.007812 14.871094 C 1.007812 14.816406 1.007812 14.765625 1.007812 14.710938 C 1.007812 13.851562 1.007812 12.992188 1.003906 12.132812 C 1.003906 11.246094 1.003906 10.363281 1.003906 9.480469 C 1.003906 8.984375 1.003906 8.488281 1 7.992188 C 1 7.570312 1 7.148438 1 6.726562 C 1 6.511719 1 6.296875 1 6.082031 C 0.996094 4.449219 1.195312 3.039062 2.292969 1.757812 C 2.320312 1.726562 2.34375 1.691406 2.371094 1.660156 C 3.492188 0.269531 5.207031 -0.03125 6.882812 -0.0273438 Z M 4.871094 2.421875 C 4.839844 2.441406 4.804688 2.457031 4.773438 2.472656 C 4.476562 2.632812 4.234375 2.832031 4.003906 3.078125 C 3.972656 3.105469 3.941406 3.136719 3.910156 3.167969 C 3.183594 3.917969 3.117188 4.9375 3.117188 5.925781 C 3.117188 5.992188 3.117188 6.0625 3.117188 6.132812 C 3.117188 6.320312 3.117188 6.511719 3.117188 6.703125 C 3.117188 6.90625 3.117188 7.109375 3.117188 7.316406 C 3.117188 7.71875 3.117188 8.117188 3.117188 8.519531 C 3.117188 8.84375 3.117188 9.171875 3.117188 9.496094 C 3.117188 10.421875 3.117188 11.34375 3.117188 12.269531 C 3.117188 12.320312 3.117188 12.367188 3.117188 12.421875 C 3.117188 12.46875 3.117188 12.519531 3.117188 12.570312 C 3.117188 13.378906 3.117188 14.1875 3.113281 14.996094 C 3.113281 15.828125 3.113281 16.65625 3.113281 17.488281 C 3.113281 17.953125 3.113281 18.417969 3.113281 18.886719 C 3.113281 19.28125 3.113281 19.679688 3.113281 20.074219 C 3.113281 20.277344 3.113281 20.480469 3.113281 20.683594 C 3.113281 20.867188 3.113281 21.054688 3.113281 21.238281 C 3.113281 21.335938 3.113281 21.433594 3.113281 21.535156 C 3.113281 21.972656 3.117188 22.351562 3.433594 22.679688 C 3.632812 22.855469 3.820312 22.914062 4.082031 22.898438 C 4.441406 22.859375 4.695312 22.566406 4.9375 22.316406 C 4.96875 22.285156 5 22.253906 5.035156 22.21875 C 5.136719 22.117188 5.238281 22.011719 5.339844 21.910156 C 5.441406 21.804688 5.542969 21.703125 5.648438 21.597656 C 5.710938 21.535156 5.773438 21.472656 5.835938 21.40625 C 5.976562 21.261719 6.121094 21.125 6.277344 20.992188 C 6.539062 20.765625 6.777344 20.523438 7.019531 20.277344 C 7.070312 20.222656 7.125 20.171875 7.175781 20.121094 C 7.285156 20.007812 7.398438 19.898438 7.507812 19.785156 C 7.683594 19.609375 7.859375 19.429688 8.035156 19.253906 C 8.0625 19.226562 8.09375 19.195312 8.125 19.164062 C 8.183594 19.101562 8.246094 19.042969 8.308594 18.980469 C 8.714844 18.570312 9.125 18.160156 9.53125 17.75 C 9.804688 17.46875 10.082031 17.191406 10.359375 16.914062 C 10.503906 16.769531 10.652344 16.621094 10.796875 16.472656 C 10.933594 16.335938 11.070312 16.199219 11.207031 16.0625 C 11.257812 16.011719 11.308594 15.960938 11.359375 15.910156 C 11.671875 15.589844 11.953125 15.335938 12.402344 15.257812 C 12.445312 15.257812 12.484375 15.257812 12.527344 15.257812 C 12.570312 15.257812 12.609375 15.257812 12.652344 15.257812 C 13.082031 15.335938 13.34375 15.613281 13.636719 15.914062 C 13.683594 15.957031 13.726562 16 13.769531 16.042969 C 13.890625 16.164062 14.007812 16.285156 14.128906 16.402344 C 14.25 16.53125 14.378906 16.65625 14.503906 16.78125 C 14.738281 17.019531 14.976562 17.257812 15.210938 17.496094 C 15.558594 17.84375 15.90625 18.195312 16.25 18.542969 C 16.277344 18.566406 16.304688 18.59375 16.328125 18.621094 C 16.378906 18.671875 16.429688 18.722656 16.480469 18.773438 C 16.628906 18.921875 16.777344 19.070312 16.925781 19.222656 C 16.996094 19.292969 17.066406 19.363281 17.136719 19.433594 C 17.222656 19.519531 17.308594 19.605469 17.390625 19.691406 C 17.597656 19.898438 17.808594 20.09375 18.027344 20.285156 C 18.148438 20.390625 18.261719 20.503906 18.375 20.617188 C 18.398438 20.640625 18.417969 20.664062 18.441406 20.6875 C 18.492188 20.738281 18.539062 20.785156 18.589844 20.835938 C 18.667969 20.914062 18.742188 20.992188 18.820312 21.070312 C 19.042969 21.292969 19.261719 21.515625 19.480469 21.738281 C 19.617188 21.875 19.75 22.011719 19.886719 22.148438 C 19.9375 22.203125 19.988281 22.253906 20.039062 22.304688 C 20.113281 22.378906 20.183594 22.449219 20.253906 22.523438 C 20.296875 22.5625 20.335938 22.605469 20.378906 22.648438 C 20.554688 22.792969 20.738281 22.890625 20.96875 22.910156 C 21.28125 22.871094 21.46875 22.769531 21.691406 22.542969 C 21.921875 22.1875 21.890625 21.800781 21.886719 21.390625 C 21.886719 21.320312 21.886719 21.25 21.886719 21.179688 C 21.886719 20.992188 21.886719 20.800781 21.886719 20.609375 C 21.886719 20.402344 21.886719 20.195312 21.886719 19.988281 C 21.886719 19.585938 21.886719 19.179688 21.886719 18.777344 C 21.886719 18.449219 21.886719 18.121094 21.886719 17.792969 C 21.886719 17.722656 21.886719 17.722656 21.886719 17.648438 C 21.886719 17.554688 21.886719 17.460938 21.886719 17.363281 C 21.886719 16.472656 21.886719 15.582031 21.886719 14.691406 C 21.886719 13.925781 21.886719 13.164062 21.886719 12.398438 C 21.886719 11.511719 21.886719 10.625 21.886719 9.734375 C 21.886719 9.640625 21.886719 9.546875 21.886719 9.453125 C 21.886719 9.40625 21.886719 9.359375 21.886719 9.308594 C 21.886719 8.980469 21.886719 8.65625 21.886719 8.328125 C 21.886719 7.925781 21.886719 7.527344 21.886719 7.125 C 21.886719 6.921875 21.886719 6.71875 21.886719 6.515625 C 21.886719 6.328125 21.886719 6.140625 21.886719 5.953125 C 21.886719 5.855469 21.886719 5.757812 21.886719 5.65625 C 21.882812 4.628906 21.660156 3.757812 20.945312 2.992188 C 20.265625 2.34375 19.433594 2.09375 18.507812 2.09375 C 18.457031 2.09375 18.402344 2.09375 18.347656 2.09375 C 18.171875 2.09375 17.992188 2.09375 17.8125 2.089844 C 17.6875 2.089844 17.558594 2.089844 17.429688 2.089844 C 17.082031 2.089844 16.734375 2.089844 16.386719 2.089844 C 16.171875 2.089844 15.953125 2.089844 15.738281 2.089844 C 15.136719 2.089844 14.535156 2.089844 13.933594 2.089844 C 13.894531 2.089844 13.855469 2.089844 13.816406 2.089844 C 13.757812 2.089844 13.757812 2.089844 13.699219 2.089844 C 13.621094 2.089844 13.542969 2.089844 13.464844 2.085938 C 13.40625 2.085938 13.40625 2.085938 13.347656 2.085938 C 12.71875 2.085938 12.089844 2.085938 11.464844 2.085938 C 10.820312 2.085938 10.171875 2.082031 9.527344 2.082031 C 9.167969 2.082031 8.804688 2.082031 8.441406 2.082031 C 8.132812 2.082031 7.824219 2.082031 7.515625 2.082031 C 7.359375 2.082031 7.203125 2.082031 7.046875 2.082031 C 5.925781 2.070312 5.925781 2.070312 4.871094 2.421875 Z M 4.871094 2.421875 "/>
</g>
</svg>
