<?xml version="1.0" encoding="UTF-8"?>
<svg xmlns="http://www.w3.org/2000/svg" xmlns:xlink="http://www.w3.org/1999/xlink" width="20px" height="px" viewBox="0 0 19 19" version="1.1">
<g id="surface1">
<path style=" stroke:none;fill-rule:nonzero;fill:rgb(15.686275%,18.82353%,26.666668%);fill-opacity:1;" d="M 1.597656 -0.00390625 C 1.613281 -0.00390625 1.613281 -0.00390625 1.628906 -0.00390625 C 1.648438 -0.00390625 1.667969 -0.00390625 1.6875 -0.00390625 C 1.707031 -0.00390625 1.726562 -0.00390625 1.746094 -0.00390625 C 1.871094 -0.00390625 1.984375 0 2.105469 0.0351562 C 2.125 0.0390625 2.144531 0.0429688 2.164062 0.046875 C 2.234375 0.0625 2.300781 0.0859375 2.371094 0.113281 C 2.378906 0.117188 2.386719 0.121094 2.394531 0.125 C 2.4375 0.140625 2.480469 0.164062 2.523438 0.1875 C 2.550781 0.203125 2.578125 0.214844 2.605469 0.230469 C 2.628906 0.238281 2.652344 0.25 2.675781 0.261719 C 2.679688 0.265625 2.6875 0.269531 2.695312 0.273438 C 2.75 0.300781 2.808594 0.332031 2.867188 0.363281 C 2.9375 0.402344 3.007812 0.441406 3.078125 0.476562 C 3.144531 0.511719 3.210938 0.542969 3.277344 0.578125 C 3.332031 0.609375 3.386719 0.636719 3.445312 0.667969 C 3.515625 0.699219 3.585938 0.738281 3.65625 0.777344 C 3.707031 0.804688 3.761719 0.832031 3.8125 0.859375 C 3.859375 0.878906 3.902344 0.902344 3.945312 0.925781 C 4.003906 0.960938 4.066406 0.992188 4.132812 1.023438 C 4.238281 1.078125 4.34375 1.132812 4.449219 1.191406 C 4.519531 1.230469 4.585938 1.265625 4.65625 1.300781 C 4.730469 1.332031 4.800781 1.371094 4.871094 1.410156 C 4.949219 1.457031 5.027344 1.496094 5.109375 1.535156 C 5.207031 1.582031 5.300781 1.632812 5.398438 1.6875 C 5.476562 1.730469 5.554688 1.769531 5.636719 1.808594 C 5.695312 1.839844 5.757812 1.871094 5.816406 1.90625 C 5.867188 1.933594 5.914062 1.957031 5.964844 1.984375 C 6.011719 2.003906 6.054688 2.03125 6.097656 2.054688 C 6.164062 2.089844 6.226562 2.121094 6.292969 2.152344 C 6.339844 2.175781 6.386719 2.199219 6.429688 2.230469 C 6.445312 2.238281 6.464844 2.246094 6.480469 2.253906 C 6.507812 2.269531 6.535156 2.28125 6.558594 2.296875 C 6.582031 2.308594 6.601562 2.316406 6.625 2.328125 C 6.652344 2.339844 6.683594 2.355469 6.710938 2.371094 C 6.714844 2.371094 6.722656 2.375 6.730469 2.378906 C 6.785156 2.410156 6.84375 2.441406 6.902344 2.472656 C 6.972656 2.511719 7.042969 2.546875 7.117188 2.582031 C 7.1875 2.621094 7.261719 2.660156 7.332031 2.699219 C 7.394531 2.730469 7.453125 2.761719 7.515625 2.792969 C 7.535156 2.804688 7.558594 2.816406 7.578125 2.824219 C 7.613281 2.84375 7.648438 2.859375 7.679688 2.878906 C 7.742188 2.910156 7.800781 2.941406 7.859375 2.972656 C 7.925781 3.007812 7.992188 3.042969 8.058594 3.074219 C 8.101562 3.09375 8.144531 3.117188 8.183594 3.144531 C 8.210938 3.160156 8.238281 3.171875 8.265625 3.183594 C 8.296875 3.199219 8.324219 3.214844 8.351562 3.226562 C 8.359375 3.234375 8.371094 3.238281 8.378906 3.242188 C 8.429688 3.265625 8.480469 3.292969 8.53125 3.324219 C 8.585938 3.355469 8.644531 3.382812 8.707031 3.414062 C 8.8125 3.464844 8.914062 3.519531 9.019531 3.578125 C 9.09375 3.617188 9.167969 3.65625 9.242188 3.691406 C 9.3125 3.726562 9.382812 3.765625 9.453125 3.804688 C 9.53125 3.847656 9.609375 3.890625 9.691406 3.925781 C 9.789062 3.976562 9.882812 4.027344 9.980469 4.082031 C 10.046875 4.117188 10.117188 4.152344 10.1875 4.1875 C 10.308594 4.246094 10.429688 4.3125 10.546875 4.378906 C 10.640625 4.429688 10.734375 4.476562 10.828125 4.523438 C 10.914062 4.5625 10.996094 4.605469 11.078125 4.652344 C 11.125 4.679688 11.175781 4.703125 11.226562 4.726562 C 11.269531 4.75 11.3125 4.773438 11.359375 4.800781 C 11.421875 4.835938 11.488281 4.867188 11.554688 4.898438 C 11.601562 4.921875 11.644531 4.945312 11.6875 4.972656 C 11.710938 4.988281 11.730469 4.996094 11.753906 5.007812 C 11.785156 5.019531 11.8125 5.035156 11.839844 5.046875 C 11.847656 5.050781 11.851562 5.054688 11.859375 5.058594 C 11.917969 5.089844 11.976562 5.121094 12.035156 5.152344 C 12.097656 5.1875 12.164062 5.21875 12.226562 5.253906 C 12.257812 5.269531 12.289062 5.285156 12.320312 5.300781 C 12.351562 5.316406 12.378906 5.332031 12.410156 5.347656 C 12.472656 5.378906 12.53125 5.410156 12.59375 5.445312 C 12.648438 5.472656 12.703125 5.503906 12.757812 5.53125 C 12.796875 5.550781 12.832031 5.566406 12.871094 5.585938 C 12.898438 5.601562 12.925781 5.617188 12.953125 5.628906 C 12.996094 5.652344 13.042969 5.675781 13.089844 5.703125 C 13.164062 5.742188 13.242188 5.78125 13.320312 5.820312 C 13.363281 5.839844 13.402344 5.863281 13.445312 5.890625 C 13.46875 5.90625 13.5 5.917969 13.527344 5.929688 C 13.554688 5.945312 13.585938 5.960938 13.613281 5.976562 C 13.683594 6.015625 13.757812 6.050781 13.828125 6.085938 C 13.929688 6.136719 14.03125 6.191406 14.128906 6.246094 C 14.210938 6.289062 14.292969 6.332031 14.375 6.371094 C 14.480469 6.425781 14.585938 6.480469 14.691406 6.539062 C 14.761719 6.578125 14.832031 6.613281 14.902344 6.648438 C 15.003906 6.699219 15.105469 6.753906 15.207031 6.808594 C 15.296875 6.859375 15.386719 6.902344 15.476562 6.949219 C 15.550781 6.984375 15.625 7.023438 15.695312 7.0625 C 15.734375 7.085938 15.777344 7.105469 15.816406 7.125 C 15.847656 7.140625 15.878906 7.15625 15.90625 7.175781 C 15.984375 7.214844 16.058594 7.253906 16.136719 7.292969 C 16.183594 7.3125 16.230469 7.339844 16.273438 7.367188 C 16.289062 7.378906 16.304688 7.386719 16.324219 7.394531 C 16.351562 7.40625 16.378906 7.417969 16.402344 7.433594 C 16.425781 7.445312 16.445312 7.457031 16.46875 7.464844 C 16.496094 7.480469 16.523438 7.492188 16.554688 7.507812 C 16.558594 7.511719 16.566406 7.515625 16.570312 7.519531 C 16.628906 7.546875 16.6875 7.578125 16.746094 7.609375 C 16.808594 7.644531 16.875 7.679688 16.941406 7.710938 C 17.019531 7.753906 17.097656 7.792969 17.175781 7.835938 C 17.238281 7.871094 17.296875 7.902344 17.359375 7.933594 C 17.378906 7.941406 17.402344 7.953125 17.421875 7.964844 C 17.457031 7.980469 17.488281 8 17.523438 8.015625 C 17.585938 8.046875 17.644531 8.078125 17.703125 8.113281 C 17.769531 8.148438 17.835938 8.179688 17.902344 8.210938 C 17.945312 8.234375 17.988281 8.257812 18.027344 8.285156 C 18.054688 8.300781 18.082031 8.3125 18.109375 8.324219 C 18.140625 8.339844 18.171875 8.355469 18.203125 8.371094 C 18.261719 8.40625 18.324219 8.4375 18.386719 8.46875 C 18.4375 8.496094 18.488281 8.527344 18.535156 8.5625 C 18.542969 8.566406 18.554688 8.570312 18.5625 8.578125 C 18.597656 8.605469 18.628906 8.632812 18.664062 8.664062 C 18.667969 8.671875 18.675781 8.675781 18.683594 8.683594 C 18.710938 8.710938 18.738281 8.738281 18.757812 8.769531 C 18.757812 8.777344 18.757812 8.785156 18.757812 8.789062 C 18.769531 8.792969 18.777344 8.796875 18.785156 8.800781 C 18.804688 8.824219 18.816406 8.847656 18.832031 8.875 C 18.839844 8.886719 18.847656 8.894531 18.851562 8.90625 C 18.914062 9.011719 18.949219 9.121094 18.980469 9.238281 C 18.984375 9.246094 18.984375 9.25 18.988281 9.257812 C 19.007812 9.332031 19.003906 9.40625 19.003906 9.480469 C 19.003906 9.488281 19.003906 9.496094 19.003906 9.503906 C 19.003906 9.613281 18.996094 9.714844 18.960938 9.820312 C 18.960938 9.828125 18.957031 9.839844 18.957031 9.847656 C 18.929688 9.945312 18.878906 10.074219 18.804688 10.144531 C 18.796875 10.15625 18.792969 10.164062 18.785156 10.175781 C 18.773438 10.203125 18.761719 10.21875 18.738281 10.238281 C 18.714844 10.261719 18.691406 10.289062 18.671875 10.316406 C 18.648438 10.34375 18.628906 10.355469 18.601562 10.371094 C 18.59375 10.378906 18.585938 10.386719 18.578125 10.394531 C 18.554688 10.417969 18.535156 10.433594 18.507812 10.449219 C 18.496094 10.457031 18.484375 10.460938 18.472656 10.46875 C 18.335938 10.546875 18.199219 10.625 18.058594 10.691406 C 17.960938 10.738281 17.867188 10.789062 17.773438 10.839844 C 17.691406 10.886719 17.605469 10.929688 17.519531 10.972656 C 17.445312 11.007812 17.375 11.046875 17.304688 11.085938 C 17.207031 11.140625 17.109375 11.191406 17.011719 11.238281 C 16.945312 11.269531 16.878906 11.304688 16.8125 11.34375 C 16.734375 11.390625 16.652344 11.429688 16.570312 11.46875 C 16.503906 11.5 16.4375 11.535156 16.371094 11.574219 C 16.339844 11.589844 16.308594 11.609375 16.273438 11.625 C 16.222656 11.652344 16.171875 11.679688 16.121094 11.707031 C 16.054688 11.742188 15.984375 11.777344 15.914062 11.8125 C 15.867188 11.832031 15.824219 11.859375 15.78125 11.886719 C 15.761719 11.898438 15.746094 11.90625 15.726562 11.914062 C 15.699219 11.925781 15.675781 11.9375 15.652344 11.953125 C 15.632812 11.964844 15.632812 11.964844 15.605469 11.976562 C 15.554688 11.996094 15.511719 12.023438 15.464844 12.046875 C 15.445312 12.058594 15.425781 12.070312 15.40625 12.078125 C 15.398438 12.085938 15.386719 12.089844 15.378906 12.09375 C 15.332031 12.117188 15.289062 12.140625 15.242188 12.164062 C 15.171875 12.199219 15.105469 12.234375 15.035156 12.273438 C 14.972656 12.308594 14.90625 12.339844 14.839844 12.371094 C 14.792969 12.394531 14.75 12.417969 14.707031 12.449219 C 14.683594 12.460938 14.664062 12.46875 14.640625 12.480469 C 14.601562 12.5 14.5625 12.519531 14.519531 12.542969 C 14.453125 12.578125 14.386719 12.613281 14.320312 12.644531 C 14.253906 12.675781 14.191406 12.710938 14.132812 12.746094 C 14.050781 12.789062 13.972656 12.832031 13.890625 12.871094 C 13.8125 12.910156 13.734375 12.949219 13.65625 12.992188 C 13.5625 13.046875 13.46875 13.09375 13.375 13.140625 C 13.304688 13.175781 13.238281 13.207031 13.171875 13.246094 C 13.097656 13.289062 13.023438 13.328125 12.945312 13.363281 C 12.851562 13.410156 12.761719 13.460938 12.671875 13.511719 C 12.582031 13.558594 12.492188 13.605469 12.398438 13.652344 C 12.332031 13.683594 12.265625 13.71875 12.199219 13.757812 C 12.164062 13.773438 12.132812 13.792969 12.097656 13.808594 C 12.046875 13.835938 11.996094 13.863281 11.945312 13.890625 C 11.882812 13.925781 11.816406 13.957031 11.753906 13.988281 C 11.707031 14.007812 11.667969 14.03125 11.625 14.058594 C 11.597656 14.074219 11.570312 14.085938 11.542969 14.101562 C 11.523438 14.109375 11.507812 14.117188 11.488281 14.128906 C 11.457031 14.148438 11.457031 14.148438 11.429688 14.160156 C 11.382812 14.179688 11.335938 14.207031 11.289062 14.230469 C 11.269531 14.242188 11.25 14.253906 11.230469 14.261719 C 11.222656 14.265625 11.214844 14.273438 11.203125 14.277344 C 11.160156 14.300781 11.113281 14.324219 11.066406 14.347656 C 10.992188 14.386719 10.914062 14.425781 10.835938 14.46875 C 10.78125 14.5 10.726562 14.527344 10.667969 14.558594 C 10.640625 14.570312 10.613281 14.585938 10.585938 14.597656 C 10.5625 14.613281 10.539062 14.625 10.511719 14.636719 C 10.472656 14.660156 10.429688 14.679688 10.386719 14.703125 C 10.300781 14.75 10.214844 14.796875 10.125 14.839844 C 10.074219 14.863281 10.027344 14.886719 9.980469 14.914062 C 9.949219 14.933594 9.914062 14.949219 9.882812 14.964844 C 9.875 14.96875 9.871094 14.972656 9.863281 14.976562 C 9.832031 14.992188 9.800781 15.007812 9.769531 15.023438 C 9.695312 15.0625 9.621094 15.101562 9.550781 15.140625 C 9.472656 15.1875 9.390625 15.226562 9.3125 15.265625 C 9.214844 15.3125 9.121094 15.367188 9.027344 15.417969 C 8.941406 15.464844 8.859375 15.507812 8.773438 15.546875 C 8.691406 15.585938 8.613281 15.628906 8.535156 15.671875 C 8.441406 15.722656 8.347656 15.773438 8.253906 15.820312 C 8.175781 15.859375 8.097656 15.898438 8.023438 15.941406 C 7.949219 15.984375 7.875 16.023438 7.796875 16.058594 C 7.765625 16.074219 7.730469 16.089844 7.699219 16.105469 C 7.691406 16.109375 7.683594 16.113281 7.679688 16.117188 C 7.582031 16.167969 7.488281 16.21875 7.394531 16.269531 C 7.390625 16.273438 7.382812 16.277344 7.375 16.28125 C 7.363281 16.289062 7.347656 16.296875 7.335938 16.300781 C 7.308594 16.316406 7.277344 16.332031 7.246094 16.347656 C 7.226562 16.355469 7.207031 16.367188 7.183594 16.378906 C 7.160156 16.394531 7.132812 16.40625 7.105469 16.417969 C 7.070312 16.433594 7.039062 16.453125 7.003906 16.46875 C 6.914062 16.519531 6.824219 16.566406 6.730469 16.613281 C 6.664062 16.648438 6.597656 16.683594 6.53125 16.71875 C 6.476562 16.75 6.421875 16.777344 6.363281 16.808594 C 6.339844 16.820312 6.316406 16.832031 6.292969 16.84375 C 6.253906 16.863281 6.21875 16.882812 6.183594 16.898438 C 6.125 16.929688 6.066406 16.960938 6.011719 16.992188 C 5.945312 17.027344 5.878906 17.058594 5.8125 17.089844 C 5.765625 17.113281 5.722656 17.136719 5.675781 17.164062 C 5.644531 17.183594 5.609375 17.199219 5.578125 17.214844 C 5.570312 17.21875 5.566406 17.222656 5.558594 17.226562 C 5.535156 17.238281 5.507812 17.25 5.484375 17.265625 C 5.355469 17.328125 5.226562 17.398438 5.101562 17.464844 C 5.023438 17.511719 4.945312 17.550781 4.867188 17.589844 C 4.796875 17.621094 4.730469 17.65625 4.664062 17.695312 C 4.5625 17.75 4.460938 17.804688 4.355469 17.855469 C 4.277344 17.894531 4.199219 17.933594 4.125 17.980469 C 4.054688 18.019531 3.988281 18.050781 3.917969 18.085938 C 3.84375 18.121094 3.773438 18.160156 3.703125 18.199219 C 3.609375 18.25 3.515625 18.300781 3.417969 18.347656 C 3.335938 18.386719 3.257812 18.429688 3.175781 18.472656 C 3.136719 18.496094 3.097656 18.515625 3.058594 18.535156 C 3.050781 18.539062 3.042969 18.542969 3.039062 18.550781 C 3.007812 18.566406 2.976562 18.582031 2.945312 18.59375 C 2.898438 18.613281 2.855469 18.640625 2.808594 18.664062 C 2.800781 18.667969 2.789062 18.675781 2.78125 18.679688 C 2.726562 18.707031 2.671875 18.738281 2.621094 18.769531 C 2.59375 18.785156 2.566406 18.796875 2.535156 18.808594 C 2.511719 18.820312 2.484375 18.832031 2.457031 18.847656 C 2.347656 18.898438 2.242188 18.9375 2.125 18.960938 C 2.101562 18.96875 2.082031 18.972656 2.058594 18.976562 C 1.992188 18.996094 1.925781 19 1.851562 19.003906 C 1.84375 19.003906 1.835938 19.003906 1.824219 19.003906 C 1.453125 19.007812 1.453125 19.007812 1.28125 18.953125 C 1.265625 18.949219 1.253906 18.945312 1.238281 18.941406 C 1.085938 18.894531 0.925781 18.832031 0.796875 18.734375 C 0.78125 18.722656 0.765625 18.714844 0.75 18.707031 C 0.722656 18.6875 0.695312 18.667969 0.667969 18.644531 C 0.660156 18.640625 0.660156 18.640625 0.652344 18.632812 C 0.636719 18.621094 0.625 18.609375 0.613281 18.597656 C 0.613281 18.59375 0.613281 18.585938 0.613281 18.582031 C 0.605469 18.578125 0.597656 18.578125 0.59375 18.574219 C 0.542969 18.550781 0.511719 18.503906 0.476562 18.460938 C 0.460938 18.445312 0.460938 18.445312 0.4375 18.425781 C 0.414062 18.40625 0.414062 18.398438 0.40625 18.371094 C 0.398438 18.367188 0.390625 18.363281 0.378906 18.359375 C 0.363281 18.339844 0.347656 18.320312 0.332031 18.296875 C 0.324219 18.285156 0.324219 18.285156 0.316406 18.277344 C 0.28125 18.222656 0.246094 18.164062 0.214844 18.105469 C 0.207031 18.09375 0.203125 18.082031 0.195312 18.070312 C 0.0976562 17.898438 0.046875 17.710938 0.0078125 17.511719 C 0.0078125 17.503906 0.0078125 17.496094 0.00390625 17.488281 C 0 17.441406 0 17.398438 0 17.355469 C 0 17.34375 -0.00390625 17.335938 -0.00390625 17.324219 C -0.00390625 17.304688 -0.00390625 17.285156 -0.00390625 17.265625 C -0.00390625 17.234375 -0.00390625 17.203125 -0.00390625 17.171875 C -0.00390625 17.058594 0 16.953125 0.0273438 16.84375 C 0.03125 16.835938 0.03125 16.828125 0.0351562 16.816406 C 0.09375 16.558594 0.210938 16.335938 0.351562 16.113281 C 0.378906 16.074219 0.402344 16.03125 0.425781 15.988281 C 0.445312 15.953125 0.464844 15.921875 0.488281 15.886719 C 0.515625 15.839844 0.542969 15.792969 0.570312 15.746094 C 0.589844 15.710938 0.609375 15.675781 0.632812 15.640625 C 0.65625 15.605469 0.679688 15.566406 0.699219 15.527344 C 0.710938 15.503906 0.726562 15.484375 0.742188 15.464844 C 0.75 15.449219 0.757812 15.4375 0.761719 15.425781 C 0.785156 15.382812 0.808594 15.34375 0.835938 15.300781 C 0.855469 15.265625 0.878906 15.230469 0.902344 15.195312 C 0.90625 15.1875 0.910156 15.179688 0.914062 15.175781 C 0.929688 15.144531 0.949219 15.117188 0.964844 15.085938 C 0.980469 15.054688 1 15.027344 1.019531 14.996094 C 1.046875 14.949219 1.074219 14.902344 1.101562 14.855469 C 1.128906 14.804688 1.160156 14.757812 1.191406 14.707031 C 1.234375 14.640625 1.273438 14.570312 1.3125 14.5 C 1.339844 14.453125 1.367188 14.410156 1.394531 14.363281 C 1.417969 14.328125 1.4375 14.289062 1.460938 14.25 C 1.554688 14.082031 1.554688 14.082031 1.601562 14.015625 C 1.625 13.988281 1.625 13.988281 1.636719 13.957031 C 1.648438 13.933594 1.660156 13.917969 1.675781 13.894531 C 1.695312 13.867188 1.710938 13.835938 1.726562 13.804688 C 1.75 13.753906 1.78125 13.707031 1.816406 13.660156 C 1.828125 13.640625 1.828125 13.640625 1.839844 13.617188 C 1.859375 13.582031 1.878906 13.546875 1.898438 13.511719 C 1.90625 13.5 1.914062 13.484375 1.925781 13.472656 C 1.929688 13.460938 1.929688 13.460938 1.9375 13.453125 C 1.980469 13.382812 2.023438 13.308594 2.0625 13.238281 C 2.085938 13.199219 2.109375 13.160156 2.132812 13.125 C 2.148438 13.097656 2.160156 13.074219 2.175781 13.050781 C 2.179688 13.042969 2.183594 13.035156 2.1875 13.03125 C 2.195312 13.015625 2.199219 13.003906 2.207031 12.992188 C 2.21875 12.976562 2.226562 12.960938 2.234375 12.945312 C 2.242188 12.945312 2.25 12.945312 2.253906 12.945312 C 2.253906 12.941406 2.257812 12.933594 2.257812 12.925781 C 2.265625 12.894531 2.277344 12.871094 2.296875 12.84375 C 2.296875 12.839844 2.300781 12.832031 2.304688 12.828125 C 2.3125 12.816406 2.320312 12.804688 2.328125 12.792969 C 2.347656 12.761719 2.367188 12.730469 2.386719 12.695312 C 2.390625 12.691406 2.394531 12.683594 2.398438 12.675781 C 2.425781 12.628906 2.457031 12.578125 2.484375 12.527344 C 2.496094 12.511719 2.507812 12.492188 2.515625 12.476562 C 2.519531 12.46875 2.523438 12.460938 2.527344 12.453125 C 2.535156 12.445312 2.539062 12.4375 2.542969 12.429688 C 2.546875 12.421875 2.550781 12.414062 2.554688 12.40625 C 2.5625 12.398438 2.566406 12.390625 2.570312 12.382812 C 2.574219 12.382812 2.582031 12.382812 2.589844 12.382812 C 2.589844 12.378906 2.589844 12.371094 2.589844 12.363281 C 2.597656 12.332031 2.609375 12.3125 2.628906 12.285156 C 2.632812 12.277344 2.640625 12.269531 2.644531 12.257812 C 2.65625 12.242188 2.667969 12.226562 2.675781 12.210938 C 2.707031 12.164062 2.734375 12.113281 2.761719 12.066406 C 2.785156 12.023438 2.808594 11.980469 2.832031 11.941406 C 2.859375 11.902344 2.882812 11.863281 2.902344 11.820312 C 2.910156 11.820312 2.917969 11.820312 2.921875 11.820312 C 2.925781 11.808594 2.925781 11.808594 2.929688 11.792969 C 2.9375 11.753906 2.957031 11.730469 2.980469 11.699219 C 3 11.675781 3.011719 11.648438 3.023438 11.621094 C 3.035156 11.601562 3.046875 11.585938 3.058594 11.566406 C 3.058594 11.5625 3.0625 11.554688 3.066406 11.550781 C 3.097656 11.496094 3.132812 11.445312 3.164062 11.390625 C 3.191406 11.351562 3.214844 11.3125 3.238281 11.269531 C 3.25 11.242188 3.265625 11.21875 3.28125 11.195312 C 3.285156 11.191406 3.289062 11.183594 3.289062 11.175781 C 3.296875 11.164062 3.304688 11.152344 3.3125 11.140625 C 3.320312 11.128906 3.328125 11.113281 3.335938 11.101562 C 3.417969 10.960938 3.417969 10.960938 3.449219 10.917969 C 3.46875 10.886719 3.484375 10.859375 3.496094 10.828125 C 3.511719 10.804688 3.527344 10.785156 3.542969 10.761719 C 3.546875 10.753906 3.550781 10.746094 3.554688 10.738281 C 3.574219 10.703125 3.59375 10.667969 3.617188 10.632812 C 3.648438 10.578125 3.683594 10.523438 3.714844 10.464844 C 3.734375 10.429688 3.757812 10.394531 3.777344 10.359375 C 3.800781 10.324219 3.824219 10.285156 3.84375 10.246094 C 3.890625 10.164062 3.9375 10.082031 3.992188 10.003906 C 4.011719 9.96875 4.03125 9.933594 4.050781 9.898438 C 4.070312 9.863281 4.089844 9.832031 4.109375 9.800781 C 4.210938 9.648438 4.210938 9.648438 4.285156 9.484375 C 4.28125 9.464844 4.28125 9.464844 4.265625 9.441406 C 4.261719 9.433594 4.257812 9.425781 4.25 9.417969 C 4.246094 9.410156 4.242188 9.402344 4.234375 9.394531 C 4.230469 9.386719 4.226562 9.375 4.21875 9.367188 C 4.203125 9.34375 4.191406 9.320312 4.175781 9.296875 C 4.164062 9.28125 4.164062 9.28125 4.15625 9.265625 C 4.136719 9.234375 4.117188 9.203125 4.097656 9.175781 C 4.09375 9.160156 4.085938 9.148438 4.078125 9.136719 C 4.070312 9.125 4.0625 9.117188 4.054688 9.105469 C 4.035156 9.070312 4.015625 9.035156 4 9 C 3.949219 8.910156 3.894531 8.820312 3.835938 8.734375 C 3.824219 8.714844 3.824219 8.714844 3.808594 8.6875 C 3.792969 8.652344 3.773438 8.621094 3.753906 8.589844 C 3.726562 8.546875 3.699219 8.503906 3.675781 8.457031 C 3.660156 8.433594 3.644531 8.410156 3.628906 8.386719 C 3.617188 8.367188 3.605469 8.34375 3.589844 8.320312 C 3.574219 8.292969 3.558594 8.261719 3.539062 8.234375 C 3.53125 8.222656 3.527344 8.207031 3.519531 8.195312 C 3.515625 8.191406 3.511719 8.183594 3.507812 8.175781 C 3.496094 8.15625 3.480469 8.132812 3.46875 8.109375 C 3.445312 8.066406 3.417969 8.027344 3.390625 7.984375 C 3.386719 7.976562 3.382812 7.96875 3.375 7.960938 C 3.371094 7.953125 3.367188 7.945312 3.359375 7.933594 C 3.347656 7.914062 3.347656 7.914062 3.347656 7.882812 C 3.34375 7.882812 3.335938 7.882812 3.332031 7.882812 C 3.316406 7.863281 3.304688 7.84375 3.292969 7.820312 C 3.285156 7.808594 3.277344 7.796875 3.269531 7.78125 C 3.265625 7.777344 3.261719 7.769531 3.257812 7.761719 C 3.238281 7.730469 3.21875 7.695312 3.199219 7.664062 C 3.167969 7.609375 3.132812 7.554688 3.101562 7.5 C 3.078125 7.457031 3.054688 7.417969 3.03125 7.378906 C 3.027344 7.367188 3.019531 7.359375 3.015625 7.351562 C 3.003906 7.332031 2.992188 7.3125 2.980469 7.292969 C 2.953125 7.253906 2.929688 7.210938 2.90625 7.167969 C 2.882812 7.132812 2.863281 7.09375 2.839844 7.058594 C 2.824219 7.03125 2.804688 7.003906 2.789062 6.972656 C 2.777344 6.949219 2.761719 6.925781 2.746094 6.898438 C 2.730469 6.875 2.714844 6.851562 2.703125 6.828125 C 2.679688 6.789062 2.660156 6.753906 2.636719 6.71875 C 2.621094 6.691406 2.605469 6.667969 2.589844 6.640625 C 2.550781 6.574219 2.511719 6.507812 2.46875 6.445312 C 2.453125 6.417969 2.4375 6.386719 2.421875 6.359375 C 2.410156 6.339844 2.398438 6.320312 2.382812 6.300781 C 2.378906 6.289062 2.371094 6.277344 2.363281 6.261719 C 2.339844 6.21875 2.316406 6.179688 2.289062 6.136719 C 2.265625 6.101562 2.246094 6.0625 2.222656 6.023438 C 2.207031 5.996094 2.207031 5.996094 2.191406 5.976562 C 2.175781 5.953125 2.175781 5.9375 2.171875 5.910156 C 2.164062 5.910156 2.160156 5.910156 2.152344 5.910156 C 2.148438 5.902344 2.140625 5.890625 2.136719 5.882812 C 2.128906 5.871094 2.125 5.859375 2.117188 5.847656 C 2.113281 5.839844 2.109375 5.835938 2.105469 5.828125 C 2.089844 5.796875 2.070312 5.769531 2.050781 5.738281 C 2.039062 5.71875 2.027344 5.695312 2.015625 5.675781 C 2.003906 5.652344 1.992188 5.632812 1.976562 5.613281 C 1.96875 5.601562 1.960938 5.585938 1.949219 5.570312 C 1.9375 5.542969 1.921875 5.519531 1.90625 5.496094 C 1.882812 5.457031 1.859375 5.414062 1.835938 5.375 C 1.832031 5.367188 1.828125 5.359375 1.820312 5.351562 C 1.8125 5.335938 1.804688 5.316406 1.792969 5.300781 C 1.773438 5.265625 1.75 5.230469 1.726562 5.199219 C 1.710938 5.171875 1.699219 5.152344 1.683594 5.125 C 1.644531 5.050781 1.597656 4.976562 1.554688 4.90625 C 1.519531 4.851562 1.484375 4.796875 1.457031 4.738281 C 1.414062 4.65625 1.363281 4.578125 1.308594 4.5 C 1.296875 4.476562 1.292969 4.457031 1.289062 4.433594 C 1.285156 4.433594 1.277344 4.433594 1.269531 4.433594 C 1.265625 4.425781 1.261719 4.414062 1.257812 4.40625 C 1.226562 4.347656 1.191406 4.292969 1.15625 4.238281 C 1.132812 4.199219 1.113281 4.164062 1.089844 4.125 C 1.058594 4.074219 1.03125 4.023438 1 3.972656 C 0.992188 3.960938 0.992188 3.960938 0.984375 3.945312 C 0.976562 3.9375 0.972656 3.929688 0.96875 3.921875 C 0.957031 3.898438 0.957031 3.898438 0.957031 3.871094 C 0.949219 3.871094 0.941406 3.871094 0.9375 3.871094 C 0.921875 3.847656 0.910156 3.828125 0.898438 3.804688 C 0.894531 3.796875 0.890625 3.792969 0.886719 3.785156 C 0.875 3.765625 0.863281 3.746094 0.851562 3.726562 C 0.816406 3.660156 0.816406 3.660156 0.773438 3.597656 C 0.753906 3.566406 0.738281 3.539062 0.722656 3.507812 C 0.710938 3.492188 0.699219 3.476562 0.6875 3.460938 C 0.671875 3.4375 0.660156 3.410156 0.648438 3.382812 C 0.636719 3.363281 0.625 3.34375 0.613281 3.324219 C 0.574219 3.257812 0.574219 3.257812 0.554688 3.226562 C 0.53125 3.179688 0.5 3.132812 0.472656 3.089844 C 0.410156 2.988281 0.410156 2.988281 0.386719 2.949219 C 0.375 2.925781 0.363281 2.90625 0.351562 2.886719 C 0.335938 2.863281 0.324219 2.839844 0.308594 2.8125 C 0.292969 2.789062 0.277344 2.761719 0.261719 2.738281 C 0.144531 2.539062 0.0664062 2.34375 0.0195312 2.117188 C 0.015625 2.109375 0.015625 2.101562 0.0117188 2.09375 C -0.00390625 2 -0.00390625 1.902344 -0.00390625 1.808594 C -0.00390625 1.777344 -0.00390625 1.75 -0.00390625 1.71875 C -0.00390625 1.59375 0.0078125 1.476562 0.0390625 1.355469 C 0.0390625 1.339844 0.0429688 1.328125 0.046875 1.3125 C 0.0625 1.246094 0.0820312 1.183594 0.109375 1.121094 C 0.121094 1.097656 0.128906 1.074219 0.136719 1.050781 C 0.152344 1.007812 0.175781 0.964844 0.195312 0.925781 C 0.199219 0.917969 0.203125 0.914062 0.203125 0.90625 C 0.222656 0.875 0.238281 0.847656 0.257812 0.820312 C 0.269531 0.804688 0.277344 0.789062 0.285156 0.769531 C 0.304688 0.742188 0.324219 0.714844 0.34375 0.6875 C 0.347656 0.679688 0.351562 0.675781 0.355469 0.671875 C 0.367188 0.65625 0.378906 0.640625 0.390625 0.628906 C 0.394531 0.628906 0.402344 0.628906 0.40625 0.628906 C 0.410156 0.621094 0.414062 0.617188 0.414062 0.609375 C 0.4375 0.558594 0.480469 0.527344 0.523438 0.492188 C 0.539062 0.476562 0.539062 0.476562 0.558594 0.449219 C 0.578125 0.425781 0.585938 0.425781 0.613281 0.417969 C 0.617188 0.410156 0.617188 0.402344 0.621094 0.390625 C 0.636719 0.378906 0.636719 0.378906 0.652344 0.363281 C 0.660156 0.359375 0.664062 0.355469 0.671875 0.351562 C 0.675781 0.34375 0.683594 0.339844 0.691406 0.335938 C 0.699219 0.328125 0.703125 0.324219 0.710938 0.320312 C 0.757812 0.285156 0.804688 0.257812 0.851562 0.230469 C 0.867188 0.222656 0.882812 0.210938 0.898438 0.203125 C 0.972656 0.164062 1.046875 0.125 1.132812 0.09375 C 1.140625 0.0898438 1.152344 0.0859375 1.164062 0.0820312 C 1.21875 0.0625 1.273438 0.0507812 1.328125 0.0351562 C 1.339844 0.0351562 1.347656 0.03125 1.359375 0.03125 C 1.441406 0.0117188 1.515625 0 1.597656 -0.00390625 Z M 1.597656 -0.00390625 "/>
<path style=" stroke:none;fill-rule:nonzero;fill:rgb(86.274511%,92.54902%,98.823529%);fill-opacity:1;" d="M 5.210938 9.984375 C 5.21875 9.984375 5.226562 9.984375 5.238281 9.984375 C 5.265625 9.984375 5.292969 9.984375 5.324219 9.984375 C 5.34375 9.984375 5.363281 9.984375 5.386719 9.984375 C 5.441406 9.984375 5.5 9.984375 5.558594 9.984375 C 5.613281 9.988281 5.667969 9.988281 5.726562 9.984375 C 5.839844 9.984375 5.957031 9.984375 6.070312 9.988281 C 6.1875 9.988281 6.304688 9.988281 6.421875 9.988281 C 6.429688 9.988281 6.4375 9.988281 6.445312 9.988281 C 6.484375 9.988281 6.523438 9.988281 6.558594 9.988281 C 6.832031 9.988281 7.105469 9.988281 7.378906 9.988281 C 7.648438 9.988281 7.921875 9.988281 8.191406 9.988281 C 8.203125 9.988281 8.203125 9.988281 8.214844 9.988281 C 8.292969 9.988281 8.371094 9.988281 8.445312 9.988281 C 8.636719 9.988281 8.828125 9.988281 9.019531 9.988281 C 9.027344 9.988281 9.035156 9.988281 9.046875 9.988281 C 9.46875 9.988281 9.890625 9.988281 10.3125 9.988281 C 10.460938 9.988281 10.605469 9.988281 10.753906 9.988281 C 10.765625 9.988281 10.765625 9.988281 10.78125 9.988281 C 11.203125 9.988281 11.625 9.988281 12.050781 9.988281 C 12.078125 9.988281 12.105469 9.988281 12.132812 9.988281 C 12.3125 9.988281 12.496094 9.988281 12.675781 9.988281 C 13.039062 9.988281 13.402344 9.988281 13.761719 9.988281 C 13.78125 9.988281 13.796875 9.988281 13.816406 9.988281 C 14.589844 9.988281 15.367188 9.988281 16.144531 9.992188 C 16.152344 9.992188 16.152344 9.992188 16.164062 9.992188 C 16.527344 9.992188 16.890625 9.992188 17.253906 9.992188 C 17.21875 10.019531 17.183594 10.042969 17.144531 10.0625 C 17.085938 10.089844 17.03125 10.121094 16.976562 10.152344 C 16.910156 10.1875 16.84375 10.21875 16.777344 10.253906 C 16.671875 10.304688 16.566406 10.363281 16.460938 10.421875 C 16.382812 10.464844 16.304688 10.503906 16.226562 10.539062 C 16.144531 10.582031 16.0625 10.625 15.976562 10.667969 C 15.9375 10.691406 15.894531 10.714844 15.851562 10.738281 C 15.84375 10.742188 15.84375 10.742188 15.832031 10.746094 C 15.804688 10.761719 15.773438 10.777344 15.746094 10.789062 C 15.671875 10.828125 15.597656 10.867188 15.523438 10.910156 C 15.441406 10.957031 15.359375 11 15.273438 11.039062 C 15.164062 11.09375 15.054688 11.152344 14.949219 11.214844 C 14.859375 11.261719 14.765625 11.308594 14.675781 11.351562 C 14.578125 11.398438 14.578125 11.398438 14.484375 11.457031 C 14.460938 11.46875 14.4375 11.480469 14.414062 11.488281 C 14.386719 11.503906 14.359375 11.515625 14.332031 11.53125 C 14.324219 11.535156 14.324219 11.535156 14.3125 11.539062 C 14.25 11.574219 14.1875 11.605469 14.125 11.640625 C 14.066406 11.671875 14.003906 11.703125 13.945312 11.734375 C 13.875 11.769531 13.808594 11.804688 13.738281 11.84375 C 13.671875 11.882812 13.601562 11.917969 13.527344 11.949219 C 13.484375 11.96875 13.445312 11.992188 13.40625 12.019531 C 13.378906 12.035156 13.351562 12.046875 13.320312 12.058594 C 13.292969 12.074219 13.261719 12.09375 13.230469 12.109375 C 13.125 12.167969 13.019531 12.222656 12.910156 12.273438 C 12.832031 12.3125 12.832031 12.3125 12.757812 12.355469 C 12.710938 12.382812 12.664062 12.40625 12.617188 12.429688 C 12.511719 12.480469 12.40625 12.539062 12.300781 12.597656 C 12.226562 12.636719 12.152344 12.675781 12.074219 12.710938 C 11.972656 12.761719 11.871094 12.816406 11.773438 12.871094 C 11.691406 12.914062 11.609375 12.957031 11.527344 12.996094 C 11.460938 13.03125 11.394531 13.066406 11.328125 13.105469 C 11.253906 13.148438 11.175781 13.183594 11.101562 13.222656 C 11.027344 13.257812 10.957031 13.296875 10.882812 13.335938 C 10.84375 13.355469 10.804688 13.378906 10.761719 13.398438 C 10.734375 13.414062 10.703125 13.429688 10.671875 13.445312 C 10.597656 13.488281 10.519531 13.527344 10.441406 13.566406 C 10.394531 13.585938 10.351562 13.609375 10.308594 13.640625 C 10.285156 13.652344 10.265625 13.664062 10.242188 13.671875 C 10.210938 13.683594 10.183594 13.699219 10.15625 13.714844 C 10.148438 13.71875 10.144531 13.722656 10.136719 13.722656 C 10.078125 13.753906 10.019531 13.785156 9.964844 13.816406 C 9.898438 13.851562 9.835938 13.886719 9.769531 13.917969 C 9.691406 13.957031 9.613281 14 9.539062 14.039062 C 9.484375 14.070312 9.425781 14.101562 9.371094 14.128906 C 9.347656 14.140625 9.320312 14.152344 9.296875 14.164062 C 9.261719 14.183594 9.222656 14.203125 9.1875 14.222656 C 9.132812 14.25 9.078125 14.277344 9.023438 14.308594 C 8.960938 14.34375 8.902344 14.375 8.839844 14.40625 C 8.808594 14.421875 8.777344 14.4375 8.75 14.453125 C 8.710938 14.472656 8.675781 14.488281 8.640625 14.507812 C 8.585938 14.535156 8.53125 14.5625 8.480469 14.59375 C 8.414062 14.628906 8.347656 14.664062 8.28125 14.695312 C 8.230469 14.71875 8.179688 14.746094 8.132812 14.773438 C 8.101562 14.789062 8.070312 14.804688 8.035156 14.824219 C 8.03125 14.828125 8.023438 14.828125 8.019531 14.832031 C 7.992188 14.847656 7.96875 14.859375 7.941406 14.871094 C 7.820312 14.933594 7.699219 15 7.578125 15.066406 C 7.492188 15.113281 7.410156 15.152344 7.324219 15.195312 C 7.246094 15.234375 7.164062 15.277344 7.085938 15.320312 C 7 15.367188 6.914062 15.414062 6.824219 15.457031 C 6.734375 15.5 6.644531 15.546875 6.558594 15.597656 C 6.457031 15.652344 6.351562 15.707031 6.246094 15.757812 C 6.179688 15.792969 6.113281 15.828125 6.046875 15.863281 C 6.015625 15.882812 5.980469 15.898438 5.949219 15.914062 C 5.898438 15.941406 5.847656 15.96875 5.796875 15.996094 C 5.730469 16.03125 5.667969 16.0625 5.601562 16.09375 C 5.558594 16.117188 5.515625 16.140625 5.476562 16.164062 C 5.449219 16.179688 5.421875 16.191406 5.394531 16.203125 C 5.304688 16.246094 5.214844 16.296875 5.125 16.347656 C 5.050781 16.386719 4.976562 16.425781 4.898438 16.464844 C 4.839844 16.496094 4.777344 16.527344 4.71875 16.558594 C 4.65625 16.59375 4.597656 16.625 4.535156 16.65625 C 4.503906 16.671875 4.472656 16.6875 4.445312 16.703125 C 4.40625 16.722656 4.371094 16.738281 4.335938 16.757812 C 4.28125 16.785156 4.226562 16.8125 4.175781 16.84375 C 4.117188 16.875 4.0625 16.902344 4.003906 16.929688 C 3.910156 16.976562 3.820312 17.023438 3.730469 17.074219 C 3.640625 17.125 3.550781 17.171875 3.457031 17.214844 C 3.390625 17.25 3.324219 17.285156 3.257812 17.320312 C 3.179688 17.367188 3.101562 17.40625 3.019531 17.445312 C 2.921875 17.492188 2.824219 17.546875 2.730469 17.597656 C 2.660156 17.636719 2.589844 17.671875 2.519531 17.707031 C 2.457031 17.738281 2.394531 17.769531 2.332031 17.804688 C 2.320312 17.808594 2.320312 17.808594 2.3125 17.816406 C 2.285156 17.828125 2.257812 17.84375 2.234375 17.859375 C 1.949219 18.019531 1.949219 18.019531 1.816406 18.019531 C 1.804688 18.019531 1.789062 18.019531 1.777344 18.019531 C 1.652344 18.019531 1.542969 18.011719 1.429688 17.960938 C 1.421875 17.957031 1.414062 17.957031 1.410156 17.953125 C 1.34375 17.925781 1.289062 17.890625 1.234375 17.847656 C 1.234375 17.839844 1.234375 17.832031 1.234375 17.828125 C 1.230469 17.824219 1.222656 17.824219 1.21875 17.820312 C 1.191406 17.804688 1.171875 17.785156 1.148438 17.761719 C 1.144531 17.757812 1.140625 17.75 1.136719 17.746094 C 0.976562 17.566406 0.945312 17.355469 0.957031 17.121094 C 0.957031 17.113281 0.957031 17.109375 0.957031 17.101562 C 0.960938 17.039062 0.980469 16.984375 1.003906 16.929688 C 1.007812 16.917969 1.011719 16.910156 1.015625 16.902344 C 1.035156 16.855469 1.054688 16.816406 1.085938 16.777344 C 1.09375 16.765625 1.101562 16.75 1.109375 16.734375 C 1.125 16.707031 1.140625 16.679688 1.160156 16.65625 C 1.167969 16.640625 1.171875 16.625 1.179688 16.605469 C 1.183594 16.605469 1.191406 16.605469 1.195312 16.605469 C 1.199219 16.601562 1.203125 16.59375 1.203125 16.585938 C 1.214844 16.5625 1.226562 16.539062 1.242188 16.515625 C 1.261719 16.480469 1.28125 16.445312 1.304688 16.40625 C 1.328125 16.363281 1.355469 16.316406 1.382812 16.273438 C 1.40625 16.234375 1.429688 16.195312 1.453125 16.15625 C 1.46875 16.128906 1.484375 16.105469 1.5 16.082031 C 1.503906 16.074219 1.507812 16.066406 1.511719 16.0625 C 1.519531 16.046875 1.527344 16.035156 1.535156 16.023438 C 1.554688 15.992188 1.570312 15.964844 1.585938 15.933594 C 1.605469 15.902344 1.621094 15.871094 1.640625 15.839844 C 1.664062 15.804688 1.683594 15.765625 1.707031 15.730469 C 1.746094 15.660156 1.789062 15.59375 1.828125 15.527344 C 1.871094 15.457031 1.914062 15.386719 1.953125 15.316406 C 1.972656 15.277344 1.996094 15.242188 2.019531 15.207031 C 2.042969 15.179688 2.042969 15.179688 2.054688 15.148438 C 2.070312 15.121094 2.085938 15.097656 2.101562 15.070312 C 2.117188 15.046875 2.128906 15.023438 2.144531 14.996094 C 2.15625 14.976562 2.167969 14.953125 2.179688 14.933594 C 2.1875 14.921875 2.191406 14.914062 2.199219 14.902344 C 2.210938 14.882812 2.222656 14.863281 2.238281 14.839844 C 2.253906 14.816406 2.265625 14.792969 2.28125 14.765625 C 2.308594 14.71875 2.335938 14.671875 2.367188 14.625 C 2.386719 14.59375 2.402344 14.5625 2.417969 14.53125 C 2.429688 14.507812 2.445312 14.492188 2.457031 14.472656 C 2.46875 14.457031 2.476562 14.441406 2.484375 14.425781 C 2.503906 14.386719 2.527344 14.351562 2.550781 14.3125 C 2.566406 14.285156 2.582031 14.257812 2.601562 14.230469 C 2.621094 14.195312 2.640625 14.160156 2.664062 14.128906 C 2.671875 14.113281 2.679688 14.097656 2.6875 14.082031 C 2.707031 14.046875 2.730469 14.011719 2.75 13.976562 C 2.769531 13.945312 2.785156 13.917969 2.800781 13.890625 C 2.808594 13.882812 2.8125 13.871094 2.816406 13.863281 C 2.828125 13.847656 2.835938 13.832031 2.84375 13.816406 C 2.867188 13.78125 2.886719 13.746094 2.910156 13.714844 C 2.929688 13.683594 2.949219 13.648438 2.964844 13.617188 C 2.984375 13.578125 3.007812 13.542969 3.027344 13.507812 C 3.03125 13.5 3.039062 13.492188 3.042969 13.484375 C 3.070312 13.441406 3.09375 13.398438 3.125 13.355469 C 3.144531 13.320312 3.164062 13.285156 3.183594 13.25 C 3.222656 13.175781 3.265625 13.105469 3.3125 13.035156 C 3.335938 13 3.355469 12.964844 3.375 12.929688 C 3.390625 12.898438 3.414062 12.863281 3.433594 12.832031 C 3.453125 12.800781 3.472656 12.765625 3.492188 12.730469 C 3.5 12.722656 3.5 12.722656 3.503906 12.710938 C 3.519531 12.6875 3.535156 12.660156 3.550781 12.632812 C 3.574219 12.59375 3.59375 12.554688 3.621094 12.519531 C 3.65625 12.460938 3.691406 12.398438 3.726562 12.339844 C 3.753906 12.292969 3.78125 12.246094 3.808594 12.203125 C 3.832031 12.167969 3.851562 12.132812 3.871094 12.097656 C 3.894531 12.046875 3.921875 12 3.953125 11.953125 C 3.972656 11.925781 3.992188 11.894531 4.007812 11.863281 C 4.027344 11.828125 4.046875 11.796875 4.070312 11.765625 C 4.089844 11.738281 4.089844 11.738281 4.105469 11.710938 C 4.121094 11.675781 4.136719 11.648438 4.15625 11.617188 C 4.160156 11.605469 4.167969 11.597656 4.175781 11.585938 C 4.1875 11.566406 4.199219 11.542969 4.210938 11.523438 C 4.230469 11.496094 4.25 11.464844 4.265625 11.433594 C 4.277344 11.410156 4.289062 11.394531 4.304688 11.375 C 4.3125 11.359375 4.320312 11.347656 4.324219 11.335938 C 4.347656 11.292969 4.375 11.25 4.398438 11.210938 C 4.421875 11.171875 4.445312 11.132812 4.464844 11.09375 C 4.480469 11.070312 4.492188 11.050781 4.507812 11.03125 C 4.515625 11.015625 4.527344 11 4.535156 10.984375 C 4.550781 10.953125 4.570312 10.917969 4.589844 10.886719 C 4.609375 10.855469 4.628906 10.824219 4.648438 10.792969 C 4.6875 10.722656 4.726562 10.65625 4.765625 10.589844 C 4.796875 10.542969 4.824219 10.496094 4.851562 10.449219 C 4.859375 10.4375 4.859375 10.4375 4.867188 10.421875 C 4.875 10.40625 4.886719 10.390625 4.894531 10.371094 C 4.917969 10.335938 4.9375 10.304688 4.960938 10.269531 C 4.980469 10.242188 4.992188 10.21875 5.007812 10.1875 C 5.039062 10.132812 5.070312 10.082031 5.101562 10.027344 C 5.105469 10.023438 5.109375 10.015625 5.113281 10.007812 C 5.140625 9.980469 5.175781 9.984375 5.210938 9.984375 Z M 5.210938 9.984375 "/>
<path style=" stroke:none;fill-rule:nonzero;fill:rgb(86.274511%,92.54902%,98.823529%);fill-opacity:1;" d="M 2.007812 1.027344 C 2.019531 1.035156 2.019531 1.035156 2.035156 1.039062 C 2.121094 1.078125 2.207031 1.125 2.292969 1.171875 C 2.316406 1.1875 2.34375 1.199219 2.367188 1.214844 C 2.375 1.21875 2.378906 1.222656 2.386719 1.226562 C 2.453125 1.261719 2.515625 1.292969 2.582031 1.324219 C 2.65625 1.359375 2.726562 1.398438 2.800781 1.4375 C 2.832031 1.453125 2.863281 1.472656 2.894531 1.488281 C 2.933594 1.507812 2.972656 1.527344 3.011719 1.546875 C 3.082031 1.589844 3.15625 1.628906 3.234375 1.664062 C 3.335938 1.714844 3.4375 1.765625 3.535156 1.820312 C 3.617188 1.867188 3.695312 1.910156 3.78125 1.949219 C 3.886719 2 3.992188 2.058594 4.097656 2.117188 C 4.167969 2.15625 4.234375 2.191406 4.304688 2.222656 C 4.425781 2.285156 4.546875 2.347656 4.664062 2.414062 C 4.742188 2.457031 4.820312 2.5 4.902344 2.535156 C 4.945312 2.554688 4.988281 2.578125 5.027344 2.601562 C 5.078125 2.628906 5.128906 2.65625 5.183594 2.683594 C 5.214844 2.699219 5.246094 2.714844 5.277344 2.734375 C 5.292969 2.742188 5.308594 2.75 5.324219 2.757812 C 5.351562 2.769531 5.378906 2.785156 5.40625 2.800781 C 5.425781 2.8125 5.449219 2.820312 5.472656 2.832031 C 5.511719 2.851562 5.550781 2.871094 5.585938 2.890625 C 5.65625 2.929688 5.726562 2.96875 5.796875 3.003906 C 5.875 3.042969 5.949219 3.082031 6.023438 3.121094 C 6.089844 3.15625 6.152344 3.191406 6.21875 3.21875 C 6.261719 3.238281 6.300781 3.261719 6.335938 3.289062 C 6.363281 3.304688 6.390625 3.316406 6.421875 3.328125 C 6.453125 3.34375 6.484375 3.363281 6.519531 3.378906 C 6.589844 3.417969 6.660156 3.457031 6.734375 3.492188 C 6.832031 3.539062 6.929688 3.589844 7.027344 3.644531 C 7.117188 3.695312 7.210938 3.742188 7.300781 3.785156 C 7.398438 3.835938 7.496094 3.886719 7.589844 3.941406 C 7.664062 3.980469 7.738281 4.019531 7.816406 4.054688 C 7.917969 4.105469 8.019531 4.160156 8.117188 4.214844 C 8.199219 4.257812 8.28125 4.300781 8.363281 4.34375 C 8.429688 4.375 8.492188 4.40625 8.554688 4.441406 C 8.625 4.484375 8.695312 4.519531 8.769531 4.554688 C 8.894531 4.617188 9.019531 4.683594 9.144531 4.753906 C 9.164062 4.765625 9.183594 4.773438 9.203125 4.785156 C 9.308594 4.832031 9.40625 4.886719 9.507812 4.941406 C 9.515625 4.945312 9.523438 4.949219 9.535156 4.953125 C 9.585938 4.980469 9.636719 5.011719 9.691406 5.039062 C 9.71875 5.054688 9.75 5.070312 9.777344 5.082031 C 9.796875 5.089844 9.8125 5.101562 9.832031 5.109375 C 9.859375 5.128906 9.859375 5.128906 9.890625 5.140625 C 9.9375 5.160156 9.984375 5.1875 10.03125 5.214844 C 10.050781 5.222656 10.070312 5.234375 10.089844 5.242188 C 10.097656 5.25 10.105469 5.253906 10.117188 5.257812 C 10.160156 5.28125 10.207031 5.304688 10.25 5.328125 C 10.273438 5.339844 10.292969 5.351562 10.316406 5.363281 C 10.347656 5.378906 10.378906 5.394531 10.414062 5.410156 C 10.472656 5.441406 10.535156 5.476562 10.597656 5.507812 C 10.664062 5.546875 10.734375 5.582031 10.804688 5.613281 C 10.84375 5.632812 10.882812 5.65625 10.921875 5.679688 C 10.945312 5.695312 10.976562 5.707031 11.003906 5.71875 C 11.035156 5.738281 11.070312 5.753906 11.101562 5.773438 C 11.183594 5.816406 11.261719 5.859375 11.347656 5.898438 C 11.390625 5.917969 11.429688 5.941406 11.46875 5.964844 C 11.496094 5.984375 11.523438 5.992188 11.550781 6.007812 C 11.582031 6.023438 11.617188 6.042969 11.648438 6.058594 C 11.71875 6.097656 11.789062 6.132812 11.863281 6.167969 C 11.9375 6.203125 12.011719 6.246094 12.085938 6.289062 C 12.152344 6.324219 12.21875 6.359375 12.285156 6.390625 C 12.382812 6.4375 12.476562 6.488281 12.570312 6.542969 C 12.65625 6.589844 12.738281 6.628906 12.824219 6.671875 C 12.898438 6.707031 12.96875 6.746094 13.042969 6.785156 C 13.082031 6.808594 13.121094 6.828125 13.164062 6.847656 C 13.191406 6.863281 13.222656 6.878906 13.253906 6.898438 C 13.324219 6.933594 13.394531 6.972656 13.464844 7.003906 C 13.542969 7.042969 13.621094 7.085938 13.699219 7.128906 C 13.742188 7.15625 13.785156 7.179688 13.832031 7.199219 C 13.855469 7.207031 13.875 7.21875 13.898438 7.230469 C 13.902344 7.234375 13.910156 7.238281 13.917969 7.238281 C 14.03125 7.300781 14.148438 7.363281 14.265625 7.425781 C 14.292969 7.441406 14.320312 7.457031 14.351562 7.472656 C 14.378906 7.484375 14.402344 7.496094 14.425781 7.511719 C 14.445312 7.523438 14.445312 7.523438 14.472656 7.535156 C 14.519531 7.554688 14.566406 7.582031 14.613281 7.605469 C 14.632812 7.617188 14.652344 7.625 14.671875 7.636719 C 14.683594 7.644531 14.683594 7.644531 14.699219 7.652344 C 14.742188 7.675781 14.789062 7.699219 14.835938 7.722656 C 14.855469 7.734375 14.878906 7.742188 14.898438 7.753906 C 14.929688 7.769531 14.960938 7.789062 14.996094 7.804688 C 15.058594 7.835938 15.117188 7.867188 15.179688 7.902344 C 15.246094 7.9375 15.316406 7.972656 15.386719 8.007812 C 15.425781 8.027344 15.464844 8.046875 15.503906 8.074219 C 15.53125 8.089844 15.558594 8.101562 15.585938 8.113281 C 15.617188 8.128906 15.652344 8.148438 15.683594 8.164062 C 15.765625 8.210938 15.847656 8.25 15.929688 8.289062 C 15.972656 8.3125 16.011719 8.332031 16.050781 8.359375 C 16.078125 8.375 16.105469 8.386719 16.132812 8.398438 C 16.167969 8.417969 16.199219 8.433594 16.234375 8.453125 C 16.300781 8.488281 16.367188 8.523438 16.4375 8.558594 C 16.535156 8.605469 16.628906 8.65625 16.722656 8.707031 C 16.8125 8.757812 16.902344 8.804688 16.996094 8.847656 C 17.085938 8.890625 17.171875 8.941406 17.257812 8.988281 C 17.257812 8.992188 17.257812 8.996094 17.257812 9 C 16.886719 9 16.515625 9 16.144531 9 C 16.136719 9 16.128906 9 16.121094 9 C 15.34375 9.003906 14.566406 9.003906 13.789062 9.003906 C 13.773438 9.003906 13.757812 9.003906 13.738281 9.003906 C 13.375 9.003906 13.015625 9.003906 12.652344 9.003906 C 12.46875 9.003906 12.289062 9.003906 12.105469 9.003906 C 12.078125 9.003906 12.050781 9.003906 12.023438 9.003906 C 11.601562 9.003906 11.179688 9.003906 10.753906 9.007812 C 10.742188 9.007812 10.742188 9.007812 10.726562 9.007812 C 10.582031 9.007812 10.433594 9.007812 10.289062 9.007812 C 9.867188 9.007812 9.445312 9.007812 9.023438 9.007812 C 9.011719 9.007812 9.003906 9.007812 8.996094 9.007812 C 8.804688 9.007812 8.613281 9.007812 8.425781 9.007812 C 8.347656 9.007812 8.269531 9.007812 8.195312 9.007812 C 8.1875 9.007812 8.175781 9.007812 8.167969 9.007812 C 7.898438 9.007812 7.628906 9.007812 7.359375 9.007812 C 7.085938 9.011719 6.8125 9.011719 6.539062 9.011719 C 6.503906 9.011719 6.464844 9.011719 6.429688 9.011719 C 6.421875 9.011719 6.414062 9.011719 6.40625 9.011719 C 6.289062 9.011719 6.171875 9.011719 6.054688 9.011719 C 5.941406 9.011719 5.824219 9.011719 5.710938 9.011719 C 5.648438 9.011719 5.585938 9.011719 5.527344 9.011719 C 5.46875 9.011719 5.414062 9.011719 5.359375 9.011719 C 5.339844 9.011719 5.316406 9.011719 5.296875 9.011719 C 5.148438 9.011719 5.148438 9.011719 5.105469 8.980469 C 5.085938 8.953125 5.074219 8.933594 5.066406 8.902344 C 5.058594 8.894531 5.054688 8.886719 5.046875 8.875 C 5.042969 8.867188 5.039062 8.859375 5.035156 8.851562 C 4.976562 8.746094 4.914062 8.644531 4.851562 8.542969 C 4.839844 8.523438 4.828125 8.503906 4.816406 8.488281 C 4.8125 8.480469 4.808594 8.472656 4.800781 8.460938 C 4.789062 8.4375 4.773438 8.414062 4.761719 8.386719 C 4.742188 8.355469 4.722656 8.328125 4.707031 8.296875 C 4.671875 8.242188 4.640625 8.1875 4.609375 8.128906 C 4.585938 8.09375 4.566406 8.058594 4.542969 8.027344 C 4.5 7.953125 4.457031 7.878906 4.410156 7.804688 C 4.382812 7.753906 4.351562 7.703125 4.324219 7.65625 C 4.285156 7.589844 4.246094 7.527344 4.207031 7.460938 C 4.183594 7.421875 4.160156 7.382812 4.136719 7.34375 C 4.121094 7.316406 4.105469 7.289062 4.089844 7.261719 C 4.070312 7.230469 4.050781 7.199219 4.03125 7.167969 C 3.988281 7.09375 3.945312 7.019531 3.898438 6.941406 C 3.886719 6.921875 3.875 6.902344 3.859375 6.878906 C 3.84375 6.851562 3.824219 6.824219 3.808594 6.796875 C 3.789062 6.757812 3.769531 6.722656 3.746094 6.683594 C 3.710938 6.632812 3.683594 6.582031 3.652344 6.527344 C 3.636719 6.503906 3.621094 6.476562 3.605469 6.449219 C 3.574219 6.402344 3.546875 6.355469 3.519531 6.308594 C 3.5 6.265625 3.472656 6.226562 3.449219 6.1875 C 3.441406 6.175781 3.4375 6.167969 3.433594 6.160156 C 3.421875 6.140625 3.410156 6.121094 3.398438 6.101562 C 3.371094 6.0625 3.347656 6.019531 3.324219 5.976562 C 3.296875 5.933594 3.273438 5.894531 3.246094 5.851562 C 3.230469 5.824219 3.214844 5.796875 3.199219 5.769531 C 3.191406 5.757812 3.1875 5.746094 3.179688 5.738281 C 3.164062 5.714844 3.148438 5.6875 3.136719 5.664062 C 3.125 5.644531 3.113281 5.625 3.101562 5.609375 C 3.070312 5.554688 3.039062 5.5 3.007812 5.449219 C 3.003906 5.441406 3 5.433594 2.996094 5.425781 C 2.976562 5.398438 2.960938 5.371094 2.945312 5.339844 C 2.933594 5.320312 2.917969 5.300781 2.90625 5.277344 C 2.882812 5.242188 2.859375 5.207031 2.839844 5.167969 C 2.828125 5.148438 2.816406 5.128906 2.800781 5.109375 C 2.792969 5.097656 2.789062 5.085938 2.78125 5.070312 C 2.757812 5.027344 2.734375 4.988281 2.707031 4.949219 C 2.667969 4.882812 2.628906 4.816406 2.589844 4.746094 C 2.546875 4.675781 2.503906 4.605469 2.460938 4.535156 C 2.457031 4.53125 2.453125 4.523438 2.449219 4.515625 C 2.441406 4.503906 2.433594 4.492188 2.425781 4.476562 C 2.410156 4.449219 2.390625 4.417969 2.375 4.390625 C 2.355469 4.359375 2.339844 4.328125 2.320312 4.296875 C 2.296875 4.257812 2.277344 4.222656 2.253906 4.183594 C 2.234375 4.148438 2.210938 4.113281 2.191406 4.078125 C 2.183594 4.066406 2.179688 4.054688 2.171875 4.046875 C 2.160156 4.023438 2.144531 4 2.132812 3.980469 C 2.128906 3.972656 2.125 3.96875 2.121094 3.960938 C 2.109375 3.945312 2.101562 3.929688 2.089844 3.914062 C 2.078125 3.890625 2.078125 3.890625 2.078125 3.871094 C 2.070312 3.871094 2.066406 3.871094 2.058594 3.871094 C 2.054688 3.859375 2.050781 3.851562 2.046875 3.839844 C 2.023438 3.796875 1.996094 3.753906 1.972656 3.710938 C 1.949219 3.675781 1.925781 3.640625 1.90625 3.605469 C 1.875 3.546875 1.839844 3.488281 1.804688 3.429688 C 1.785156 3.398438 1.761719 3.363281 1.742188 3.328125 C 1.714844 3.28125 1.6875 3.234375 1.65625 3.191406 C 1.644531 3.167969 1.628906 3.140625 1.617188 3.117188 C 1.59375 3.078125 1.574219 3.042969 1.550781 3.007812 C 1.546875 3 1.542969 2.988281 1.535156 2.980469 C 1.523438 2.957031 1.507812 2.933594 1.492188 2.90625 C 1.488281 2.902344 1.484375 2.894531 1.480469 2.886719 C 1.441406 2.816406 1.441406 2.816406 1.394531 2.746094 C 1.375 2.71875 1.359375 2.691406 1.34375 2.660156 C 1.335938 2.644531 1.324219 2.628906 1.3125 2.609375 C 1.296875 2.59375 1.296875 2.59375 1.285156 2.566406 C 1.269531 2.53125 1.25 2.496094 1.226562 2.464844 C 1.191406 2.40625 1.160156 2.351562 1.125 2.292969 C 1.121094 2.285156 1.117188 2.277344 1.113281 2.269531 C 1.105469 2.257812 1.105469 2.257812 1.101562 2.246094 C 1.089844 2.226562 1.078125 2.210938 1.0625 2.191406 C 1.035156 2.148438 1.015625 2.105469 1 2.058594 C 0.996094 2.050781 0.992188 2.042969 0.988281 2.035156 C 0.921875 1.855469 0.941406 1.625 1.011719 1.449219 C 1.046875 1.371094 1.097656 1.289062 1.160156 1.230469 C 1.167969 1.222656 1.171875 1.214844 1.179688 1.207031 C 1.394531 0.992188 1.726562 0.90625 2.007812 1.027344 Z M 2.007812 1.027344 "/>
</g>
</svg>
