<svg width="26" height="25" viewBox="0 0 26 25" fill="none" xmlns="http://www.w3.org/2000/svg">
<path d="M8.64883 0.0138358C8.69139 0.0136273 8.73395 0.0134188 8.7778 0.0132041C9.00205 0.0121487 9.2263 0.0114117 9.45056 0.0109263C9.68124 0.0103552 9.9119 0.00858664 10.1426 0.00656994C10.3212 0.00523347 10.4999 0.00480456 10.6786 0.00462073C10.7637 0.00437235 10.8487 0.00377976 10.9338 0.00282863C11.0525 0.00158216 11.171 0.00163005 11.2897 0.00198546C11.3417 0.00100266 11.3417 0.00100266 11.3948 0C11.6452 0.00272805 11.7861 0.0739274 11.9795 0.230613C12.1659 0.48382 12.2773 0.770928 12.2578 1.08813C12.1965 1.37092 12.052 1.5931 11.8464 1.79061C11.627 1.93038 11.4168 1.93298 11.165 1.94405C11.1197 1.94616 11.0744 1.94828 11.0277 1.95045C10.6104 1.96835 10.193 1.97728 9.77542 1.98617C7.53356 1.9665 7.53356 1.9665 5.3368 2.32765C5.30222 2.33763 5.26765 2.3476 5.23202 2.35787C4.20567 2.66187 3.30435 3.16338 2.75072 4.11781C2.64997 4.33463 2.57156 4.55545 2.49718 4.78273C2.48633 4.81537 2.47548 4.84801 2.4643 4.88165C2.18189 5.74273 2.07075 6.62239 2.0321 7.5257C2.03011 7.56937 2.02811 7.61303 2.02605 7.65802C1.95999 9.14667 1.97489 10.6387 1.97707 12.1285C1.97745 12.4194 1.97732 12.7104 1.97689 13.0014C1.96976 15.2669 1.96976 15.2669 2.03606 17.5312C2.0391 17.5964 2.0391 17.5964 2.04219 17.6629C2.11157 19.0939 2.35312 20.5746 3.31801 21.6869C4.24149 22.5149 5.46409 22.8443 6.67877 22.9268C6.72697 22.9301 6.77518 22.9333 6.82485 22.9367C8.57839 23.0528 10.327 23.0662 12.0834 23.0621C12.3575 23.0615 12.6316 23.0617 12.9056 23.0623C14.4492 23.0659 15.9903 23.0626 17.5319 22.974C17.5857 22.971 17.6395 22.968 17.6949 22.965C18.8575 22.8984 20.2723 22.737 21.2082 21.9682C21.2417 21.9682 21.2752 21.9682 21.3097 21.9682C21.3295 21.922 21.3295 21.922 21.3497 21.8749C21.4314 21.7267 21.5394 21.6522 21.6721 21.5517C21.8034 21.419 21.8831 21.2631 21.9688 21.0987C21.9856 21.0671 22.0024 21.0355 22.0196 21.003C22.0713 20.9043 22.1216 20.805 22.1717 20.7055C22.1884 20.6733 22.2051 20.641 22.2224 20.6077C22.4851 20.0845 22.6122 19.5522 22.6851 18.9729C22.6977 18.8774 22.6977 18.8774 22.7106 18.78C22.7749 18.2741 22.8179 17.7677 22.8469 17.2586C22.8993 16.3858 22.8993 16.3858 23.151 16.1151C23.1801 16.0824 23.2091 16.0498 23.2391 16.0162C23.4717 15.8201 23.7152 15.8052 24.0078 15.8112C24.3109 15.8527 24.4947 16.0084 24.6785 16.2461C24.9703 16.7877 24.791 17.5875 24.7451 18.1865C24.7417 18.2308 24.7383 18.275 24.7349 18.3205C24.6198 19.7977 24.3254 21.3435 23.3887 22.5309C23.3379 22.6033 23.2872 22.6757 23.2365 22.7482C23.1015 22.9297 22.946 23.0718 22.7736 23.2167C22.6697 23.3029 22.6697 23.3029 22.552 23.4323C22.3892 23.5883 22.2122 23.6947 22.0196 23.8095C21.979 23.835 21.9385 23.8604 21.8967 23.8867C21.8547 23.9129 21.8126 23.9391 21.7692 23.9662C21.7311 23.99 21.693 24.0138 21.6537 24.0383C21.2729 24.2489 20.8813 24.3838 20.4635 24.5C20.4081 24.5155 20.3526 24.5309 20.2955 24.5468C19.0489 24.8856 17.7959 25.0023 16.5081 24.9992C16.4088 24.9993 16.3096 24.9995 16.2103 24.9997C15.9444 25.0002 15.6785 25 15.4126 24.9997C15.132 24.9994 14.8514 24.9996 14.5708 24.9998C14.0999 25 13.6291 24.9998 13.1582 24.9993C12.6167 24.9987 12.0753 24.9989 11.5338 24.9994C11.0658 24.9999 10.5977 25 10.1297 24.9997C9.8515 24.9996 9.57335 24.9995 9.29519 24.9999C9.03347 25.0002 8.77175 24.9999 8.51002 24.9994C8.41499 24.9992 8.31995 24.9993 8.22491 24.9995C7.30733 25.0015 6.39416 24.9416 5.49209 24.7654C5.43445 24.7543 5.37681 24.7433 5.31742 24.732C4.88512 24.6462 4.48078 24.5294 4.06912 24.3722C3.98788 24.3462 3.90655 24.3206 3.82509 24.2954C2.6511 23.8934 1.66669 22.9908 1.07621 21.9054C1.03305 21.8264 0.98719 21.749 0.940901 21.6719C0.0207362 20.0313 0.00444244 17.7367 0.00515264 15.8963C0.0050003 15.8155 0.00482762 15.7348 0.00463656 15.654C0.00419447 15.4374 0.00407028 15.2208 0.00403769 15.0042C0.00400129 14.8679 0.00389179 14.7317 0.00375837 14.5954C0.00329104 14.117 0.00308223 13.6387 0.00312236 13.1604C0.00315271 12.7192 0.00261964 12.278 0.00181707 11.8368C0.00114685 11.4543 0.000882009 11.0718 0.000914126 10.6893C0.000926856 10.4625 0.00079417 10.2357 0.000246393 10.0089C-0.00389856 8.16338 0.0392171 6.31932 0.519593 4.52699C0.52939 4.48948 0.539186 4.45197 0.54928 4.41333C0.776027 3.55895 1.21837 2.61455 1.88869 2.02077C1.92216 2.02077 1.95563 2.02077 1.99011 2.02077C2.00315 1.99059 2.01618 1.96042 2.02961 1.92933C2.22438 1.57338 2.63527 1.35989 2.97574 1.16725C3.01603 1.14374 3.05633 1.12024 3.09785 1.09602C4.74993 0.145532 6.78525 0.0216714 8.64883 0.0138358Z" fill="#283044"/>
<path d="M19.8042 2.88364C19.867 2.93636 19.9293 2.98966 19.9912 3.04348C20.0712 3.10668 20.1515 3.16954 20.2321 3.23208C20.2684 3.26076 20.3047 3.28944 20.3422 3.31899C20.4142 3.37537 20.4877 3.42979 20.5624 3.48242C20.5915 3.50636 20.6205 3.53029 20.6504 3.55495C20.6504 3.58871 20.6504 3.62246 20.6504 3.65724C20.6919 3.67455 20.6919 3.67455 20.7342 3.69221C20.8886 3.77956 21.008 3.89613 21.1353 4.01847C21.3307 4.20301 21.5283 4.38026 21.7374 4.54913C21.9496 4.72129 22.1505 4.90175 22.3491 5.08937C22.5936 5.32027 22.8451 5.53778 23.1063 5.74949C23.2724 5.88611 23.4316 6.02944 23.5906 6.17425C23.6829 6.25683 23.7772 6.33517 23.8735 6.41281C23.9347 6.46661 23.9347 6.46661 23.9971 6.5215C23.9971 6.55525 23.9971 6.58901 23.9971 6.62379C24.027 6.6377 24.057 6.65161 24.0878 6.66595C24.2863 6.77245 24.4401 6.93204 24.6056 7.08412C24.6335 7.10947 24.6615 7.13482 24.6903 7.16094C24.7849 7.24683 24.8791 7.33324 24.9732 7.41977C25.019 7.46134 25.019 7.46134 25.0658 7.50375C25.2485 7.67332 25.3871 7.84098 25.5183 8.05592C25.545 8.09488 25.5718 8.13385 25.5993 8.17399C25.6238 8.20993 25.6483 8.24586 25.6736 8.28288C25.6982 8.31868 25.7229 8.35448 25.7483 8.39137C25.9652 8.75605 25.9998 9.03447 25.9969 9.45607C25.9979 9.50671 25.9989 9.55735 25.9999 9.60952C25.9995 10.31 25.6081 10.8191 25.1634 11.3293C25.0482 11.4389 24.93 11.543 24.8094 11.6464C24.6965 11.7431 24.6965 11.7431 24.5802 11.8952C24.4391 12.0625 24.2859 12.1802 24.1124 12.3113C24.0016 12.3998 23.9049 12.4927 23.8069 12.5952C23.6773 12.7309 23.5507 12.8202 23.3886 12.9149C23.3034 12.9994 23.219 13.0848 23.1351 13.1706C22.8204 13.4693 22.4956 13.7517 22.1595 14.0254C21.9644 14.1885 21.7784 14.3607 21.5918 14.5336C21.3557 14.7519 21.1134 14.9629 20.8691 15.1718C20.7684 15.2583 20.6764 15.3445 20.5838 15.4403C20.3826 15.6386 20.1622 15.8095 19.9405 15.9838C19.9119 16.0082 19.8832 16.0327 19.8537 16.0579C19.3996 16.4264 18.828 16.5462 18.2592 16.517C17.6768 16.4519 17.2585 16.2274 16.8784 15.7842C16.4224 15.1861 16.3873 14.3598 16.391 13.631C16.4077 13.5803 16.4244 13.5297 16.4417 13.4775C16.0325 13.4751 15.6233 13.4733 15.2141 13.4722C15.0238 13.4717 14.8336 13.471 14.6434 13.4698C13.8374 13.4649 13.0346 13.4712 12.23 13.5233C12.1661 13.5274 12.1022 13.5314 12.0364 13.5356C11.5472 13.5705 11.0803 13.6429 10.6103 13.7844C10.5777 13.7941 10.5452 13.8038 10.5116 13.8138C10.2881 13.8818 10.0689 13.9593 9.8497 14.0402C9.79362 14.0597 9.73753 14.0793 9.67975 14.0995C8.8072 14.4243 7.96834 14.9075 7.19944 15.4329C7.05615 15.5265 6.9093 15.6003 6.75654 15.6769C6.61101 15.7678 6.46812 15.8623 6.32494 15.957C6.05983 16.1207 5.79136 16.1168 5.48886 16.086C5.20089 15.9883 5.01882 15.7878 4.87581 15.5236C4.80627 15.2921 4.81469 15.0671 4.81698 14.8265C4.81736 14.774 4.81774 14.7215 4.81814 14.6674C4.83091 13.7375 4.98524 12.8497 5.18461 11.9431C5.19313 11.9023 5.20166 11.8616 5.21044 11.8195C5.32551 11.2792 5.53082 10.7851 5.75824 10.284C5.78527 10.224 5.8123 10.164 5.84015 10.1021C6.00075 9.75878 6.18029 9.45361 6.40917 9.152C6.50402 9.02637 6.59082 8.89717 6.67731 8.76558C7.17653 8.07641 7.82728 7.50062 8.53131 7.03297C8.57471 7.00396 8.61811 6.97495 8.66283 6.94506C10.9319 5.51079 13.8231 5.21373 16.4417 5.4474C16.4312 5.38938 16.4208 5.33136 16.41 5.27158C16.3328 4.55525 16.491 3.67413 16.9176 3.09103C17.615 2.24968 18.9576 2.2504 19.8042 2.88364ZM18.4193 4.37331C18.3152 4.63267 18.3071 4.84692 18.3151 5.12094C18.3164 5.20665 18.3176 5.29236 18.3188 5.37807C18.3213 5.51186 18.3242 5.64562 18.3276 5.77938C18.3307 5.90941 18.3324 6.03941 18.3341 6.16946C18.3361 6.22862 18.3361 6.22862 18.3382 6.28897C18.3411 6.60679 18.2604 6.87808 18.0398 7.1131C17.7945 7.32787 17.6121 7.34642 17.296 7.34873C17.2592 7.34907 17.2224 7.34942 17.1845 7.34977C17.1044 7.35049 17.0243 7.35109 16.9442 7.35161C16.8163 7.35245 16.6884 7.35364 16.5605 7.35493C16.1967 7.35853 15.8329 7.36158 15.4691 7.36424C12.9445 7.38324 10.4777 7.58815 8.58201 9.48804C8.21143 9.87394 7.91814 10.2907 7.66928 10.7667C7.63133 10.8337 7.63133 10.8337 7.59262 10.902C7.19268 11.6421 6.98161 12.495 6.85796 13.3241C6.89875 13.3035 6.89875 13.3035 6.94036 13.2825C7.02743 13.2386 7.11452 13.1947 7.20162 13.1509C7.31754 13.0923 7.43334 13.0336 7.54905 12.9747C7.72208 12.8866 7.89567 12.7997 8.06942 12.713C8.17257 12.6611 8.27498 12.6079 8.3774 12.5545C9.17679 12.1463 10.0363 11.9261 10.9114 11.7481C10.9589 11.7381 11.0064 11.7282 11.0554 11.7179C12.0881 11.5215 13.1477 11.5178 14.1947 11.5243C14.3165 11.5248 14.4383 11.5252 14.5602 11.5257C14.9169 11.5273 15.2736 11.5303 15.6304 11.5339C15.7086 11.5347 15.7086 11.5347 15.7885 11.5354C16.0656 11.5382 16.3428 11.5419 16.6199 11.5475C16.7008 11.5491 16.7816 11.5505 16.8625 11.5516C17.7917 11.5658 17.7917 11.5658 18.0802 11.8568C18.278 12.1746 18.3391 12.3874 18.3291 12.7567C18.3287 12.7998 18.3282 12.8429 18.3278 12.8873C18.3262 13.0244 18.3237 13.1614 18.321 13.2985C18.3186 13.4356 18.3164 13.5726 18.3148 13.7097C18.3138 13.7948 18.3123 13.8798 18.3103 13.9649C18.3073 14.199 18.3302 14.3821 18.4193 14.6028C18.7246 14.5065 18.9719 14.3015 19.1949 14.0757C19.3563 13.9134 19.5266 13.7645 19.6996 13.615C19.7676 13.5559 19.8355 13.4969 19.9034 13.4378C19.9523 13.3953 19.9523 13.3953 20.0022 13.3519C20.1525 13.2206 20.3009 13.0871 20.4491 12.9535C20.5484 12.8643 20.6484 12.776 20.7486 12.6879C20.9016 12.5535 21.0519 12.4166 21.2018 12.2788C21.4182 12.0808 21.6433 11.898 21.8757 11.7195C21.9064 11.692 21.9371 11.6646 21.9688 11.6362C21.9688 11.6025 21.9688 11.5687 21.9688 11.5339C21.9976 11.5205 22.0264 11.5072 22.0561 11.4934C22.3703 11.3254 22.6351 11.0728 22.8815 10.8179C22.9413 10.7641 23.0016 10.7109 23.0622 10.658C23.1372 10.592 23.2122 10.5259 23.2872 10.4598C23.3241 10.4275 23.3241 10.4275 23.3617 10.3946C23.443 10.3231 23.5236 10.2509 23.6041 10.1785C23.6427 10.1449 23.6427 10.1449 23.6821 10.1106C23.8734 9.93727 23.985 9.76848 24.0985 9.53919C24.0985 9.34251 23.9679 9.17427 23.845 9.02771C23.7217 8.90885 23.5953 8.79495 23.4664 8.68227C23.3336 8.56353 23.2095 8.43863 23.0843 8.31165C22.7519 7.99453 22.4122 7.69302 22.0557 7.40359C21.8646 7.24409 21.6836 7.07431 21.5013 6.9047C21.3136 6.73504 21.1177 6.57689 20.9198 6.4196C20.8106 6.324 20.7348 6.22959 20.6504 6.11232C20.6138 6.09016 20.5772 6.06801 20.5395 6.04519C20.255 5.87303 20.0219 5.63179 19.7884 5.39625C19.6889 5.30637 19.5884 5.21787 19.4875 5.12973C19.423 5.07345 19.3589 5.01679 19.2954 4.9595C18.8974 4.56825 18.8974 4.56825 18.4193 4.37331Z" fill="#283044"/>
</svg>
