<?xml version="1.0" encoding="UTF-8"?>
<svg xmlns="http://www.w3.org/2000/svg" xmlns:xlink="http://www.w3.org/1999/xlink" width="px" height="25px" viewBox="0 0 26 25" version="1.1">
<g id="surface1">
<path style=" stroke:none;fill-rule:nonzero;fill:rgb(15.686275%,18.82353%,26.666668%);fill-opacity:1;" d="M 8.648438 -0.0117188 C 8.691406 -0.0117188 8.734375 -0.0117188 8.777344 -0.0117188 C 9.003906 -0.015625 9.226562 -0.015625 9.453125 -0.015625 C 9.683594 -0.015625 9.914062 -0.015625 10.144531 -0.0195312 C 10.324219 -0.0195312 10.503906 -0.0195312 10.679688 -0.0195312 C 10.765625 -0.0234375 10.851562 -0.0234375 10.9375 -0.0234375 C 11.054688 -0.0234375 11.175781 -0.0234375 11.292969 -0.0234375 C 11.34375 -0.0234375 11.34375 -0.0234375 11.398438 -0.0273438 C 11.648438 -0.0234375 11.789062 0.046875 11.984375 0.203125 C 12.171875 0.457031 12.28125 0.746094 12.261719 1.0625 C 12.203125 1.347656 12.058594 1.570312 11.851562 1.765625 C 11.632812 1.90625 11.421875 1.910156 11.167969 1.921875 C 11.125 1.921875 11.078125 1.925781 11.03125 1.925781 C 10.613281 1.945312 10.195312 1.953125 9.777344 1.964844 C 7.53125 1.945312 7.53125 1.945312 5.332031 2.304688 C 5.296875 2.316406 5.261719 2.324219 5.226562 2.335938 C 4.199219 2.640625 3.296875 3.140625 2.742188 4.097656 C 2.640625 4.316406 2.5625 4.535156 2.488281 4.765625 C 2.476562 4.796875 2.464844 4.828125 2.457031 4.863281 C 2.171875 5.726562 2.0625 6.605469 2.023438 7.511719 C 2.019531 7.554688 2.019531 7.597656 2.015625 7.644531 C 1.949219 9.136719 1.964844 10.628906 1.96875 12.121094 C 1.96875 12.414062 1.96875 12.703125 1.96875 12.996094 C 1.960938 15.265625 1.960938 15.265625 2.027344 17.535156 C 2.03125 17.597656 2.03125 17.597656 2.03125 17.664062 C 2.101562 19.097656 2.34375 20.582031 3.308594 21.695312 C 4.234375 22.523438 5.460938 22.855469 6.675781 22.9375 C 6.722656 22.941406 6.773438 22.945312 6.820312 22.949219 C 8.578125 23.0625 10.328125 23.078125 12.089844 23.074219 C 12.363281 23.074219 12.636719 23.074219 12.910156 23.074219 C 14.457031 23.078125 16 23.074219 17.546875 22.984375 C 17.597656 22.980469 17.652344 22.980469 17.707031 22.976562 C 18.871094 22.910156 20.289062 22.746094 21.226562 21.976562 C 21.261719 21.976562 21.292969 21.976562 21.328125 21.976562 C 21.347656 21.929688 21.347656 21.929688 21.367188 21.882812 C 21.449219 21.734375 21.558594 21.660156 21.691406 21.558594 C 21.824219 21.425781 21.902344 21.269531 21.988281 21.105469 C 22.003906 21.074219 22.023438 21.042969 22.039062 21.011719 C 22.089844 20.910156 22.140625 20.8125 22.191406 20.710938 C 22.207031 20.679688 22.226562 20.648438 22.242188 20.613281 C 22.503906 20.089844 22.632812 19.558594 22.707031 18.976562 C 22.71875 18.882812 22.71875 18.882812 22.730469 18.785156 C 22.796875 18.277344 22.839844 17.769531 22.867188 17.261719 C 22.921875 16.386719 22.921875 16.386719 23.171875 16.113281 C 23.203125 16.082031 23.230469 16.050781 23.261719 16.015625 C 23.492188 15.820312 23.738281 15.804688 24.03125 15.808594 C 24.332031 15.851562 24.519531 16.007812 24.703125 16.246094 C 24.992188 16.789062 24.816406 17.589844 24.769531 18.191406 C 24.765625 18.234375 24.761719 18.277344 24.757812 18.324219 C 24.644531 19.804688 24.347656 21.351562 23.410156 22.539062 C 23.359375 22.613281 23.308594 22.6875 23.257812 22.757812 C 23.121094 22.941406 22.96875 23.082031 22.792969 23.226562 C 22.691406 23.3125 22.691406 23.3125 22.570312 23.445312 C 22.410156 23.601562 22.230469 23.707031 22.039062 23.820312 C 22 23.847656 21.957031 23.871094 21.917969 23.898438 C 21.875 23.925781 21.832031 23.953125 21.789062 23.980469 C 21.75 24.003906 21.710938 24.027344 21.671875 24.050781 C 21.292969 24.261719 20.898438 24.398438 20.480469 24.511719 C 20.425781 24.527344 20.371094 24.542969 20.3125 24.558594 C 19.0625 24.898438 17.808594 25.015625 16.519531 25.011719 C 16.421875 25.011719 16.320312 25.011719 16.222656 25.015625 C 15.953125 25.015625 15.6875 25.015625 15.421875 25.015625 C 15.140625 25.011719 14.859375 25.015625 14.578125 25.015625 C 14.109375 25.015625 13.636719 25.015625 13.164062 25.011719 C 12.621094 25.011719 12.082031 25.011719 11.539062 25.011719 C 11.070312 25.015625 10.601562 25.015625 10.132812 25.015625 C 9.851562 25.011719 9.574219 25.011719 9.296875 25.015625 C 9.035156 25.015625 8.773438 25.015625 8.511719 25.011719 C 8.414062 25.011719 8.320312 25.011719 8.222656 25.011719 C 7.304688 25.015625 6.390625 24.957031 5.488281 24.777344 C 5.429688 24.769531 5.371094 24.757812 5.3125 24.746094 C 4.878906 24.660156 4.476562 24.542969 4.0625 24.386719 C 3.980469 24.359375 3.898438 24.332031 3.816406 24.308594 C 2.640625 23.90625 1.65625 23 1.066406 21.914062 C 1.023438 21.835938 0.976562 21.757812 0.929688 21.679688 C 0.0078125 20.039062 -0.0078125 17.738281 -0.0078125 15.894531 C -0.0078125 15.816406 -0.0078125 15.734375 -0.0078125 15.652344 C -0.0078125 15.4375 -0.0078125 15.21875 -0.0078125 15.003906 C -0.0078125 14.867188 -0.0078125 14.730469 -0.0078125 14.59375 C -0.0078125 14.113281 -0.0078125 13.632812 -0.0078125 13.15625 C -0.0078125 12.714844 -0.0117188 12.273438 -0.0117188 11.828125 C -0.0117188 11.445312 -0.0117188 11.0625 -0.0117188 10.679688 C -0.0117188 10.453125 -0.0117188 10.226562 -0.0117188 10 C -0.015625 8.152344 0.0273438 6.304688 0.507812 4.507812 C 0.519531 4.46875 0.527344 4.433594 0.539062 4.394531 C 0.765625 3.539062 1.207031 2.59375 1.878906 1.996094 C 1.914062 1.996094 1.945312 1.996094 1.980469 1.996094 C 1.992188 1.96875 2.007812 1.9375 2.019531 1.90625 C 2.214844 1.550781 2.625 1.335938 2.96875 1.144531 C 3.007812 1.121094 3.046875 1.097656 3.089844 1.070312 C 4.746094 0.121094 6.78125 -0.00390625 8.648438 -0.0117188 Z M 8.648438 -0.0117188 "/>
<path style=" stroke:none;fill-rule:nonzero;fill:rgb(15.686275%,18.82353%,26.666668%);fill-opacity:1;" d="M 19.820312 2.863281 C 19.882812 2.914062 19.945312 2.96875 20.007812 3.023438 C 20.089844 3.085938 20.167969 3.148438 20.25 3.210938 C 20.285156 3.238281 20.320312 3.269531 20.359375 3.296875 C 20.429688 3.355469 20.503906 3.410156 20.578125 3.460938 C 20.609375 3.484375 20.636719 3.511719 20.667969 3.535156 C 20.667969 3.570312 20.667969 3.601562 20.667969 3.636719 C 20.710938 3.65625 20.710938 3.65625 20.75 3.671875 C 20.90625 3.761719 21.027344 3.875 21.152344 4 C 21.347656 4.183594 21.546875 4.363281 21.757812 4.53125 C 21.96875 4.703125 22.171875 4.882812 22.367188 5.070312 C 22.613281 5.304688 22.867188 5.519531 23.128906 5.734375 C 23.292969 5.871094 23.453125 6.011719 23.613281 6.160156 C 23.703125 6.242188 23.800781 6.320312 23.894531 6.398438 C 23.957031 6.453125 23.957031 6.453125 24.019531 6.507812 C 24.019531 6.539062 24.019531 6.574219 24.019531 6.609375 C 24.050781 6.621094 24.078125 6.636719 24.109375 6.652344 C 24.308594 6.757812 24.464844 6.917969 24.628906 7.070312 C 24.65625 7.09375 24.683594 7.121094 24.714844 7.148438 C 24.808594 7.234375 24.902344 7.320312 24.996094 7.40625 C 25.042969 7.449219 25.042969 7.449219 25.089844 7.488281 C 25.273438 7.660156 25.410156 7.828125 25.542969 8.042969 C 25.570312 8.082031 25.597656 8.121094 25.625 8.160156 C 25.648438 8.199219 25.671875 8.234375 25.699219 8.269531 C 25.722656 8.304688 25.746094 8.34375 25.773438 8.378906 C 25.992188 8.746094 26.023438 9.023438 26.023438 9.445312 C 26.023438 9.496094 26.023438 9.546875 26.023438 9.597656 C 26.023438 10.300781 25.632812 10.8125 25.1875 11.320312 C 25.070312 11.429688 24.953125 11.535156 24.832031 11.640625 C 24.71875 11.734375 24.71875 11.734375 24.601562 11.886719 C 24.460938 12.054688 24.308594 12.175781 24.136719 12.304688 C 24.023438 12.394531 23.925781 12.488281 23.828125 12.589844 C 23.699219 12.726562 23.574219 12.816406 23.410156 12.910156 C 23.324219 12.996094 23.242188 13.078125 23.15625 13.164062 C 22.839844 13.464844 22.515625 13.746094 22.179688 14.023438 C 21.984375 14.183594 21.796875 14.359375 21.609375 14.53125 C 21.375 14.75 21.132812 14.960938 20.886719 15.171875 C 20.785156 15.257812 20.695312 15.34375 20.601562 15.4375 C 20.398438 15.636719 20.179688 15.808594 19.957031 15.984375 C 19.929688 16.007812 19.898438 16.03125 19.871094 16.058594 C 19.414062 16.425781 18.84375 16.546875 18.273438 16.519531 C 17.691406 16.453125 17.269531 16.226562 16.890625 15.785156 C 16.433594 15.183594 16.398438 14.355469 16.402344 13.628906 C 16.417969 13.578125 16.4375 13.527344 16.453125 13.472656 C 16.042969 13.472656 15.632812 13.46875 15.222656 13.46875 C 15.035156 13.46875 14.84375 13.46875 14.652344 13.464844 C 13.84375 13.460938 13.042969 13.46875 12.234375 13.519531 C 12.171875 13.523438 12.105469 13.527344 12.042969 13.53125 C 11.550781 13.566406 11.082031 13.640625 10.613281 13.78125 C 10.582031 13.789062 10.546875 13.800781 10.515625 13.808594 C 10.289062 13.878906 10.070312 13.957031 9.851562 14.035156 C 9.796875 14.054688 9.738281 14.074219 9.679688 14.097656 C 8.808594 14.421875 7.96875 14.90625 7.199219 15.433594 C 7.054688 15.527344 6.90625 15.597656 6.753906 15.675781 C 6.609375 15.765625 6.464844 15.863281 6.320312 15.957031 C 6.054688 16.121094 5.789062 16.117188 5.484375 16.085938 C 5.195312 15.988281 5.011719 15.789062 4.871094 15.523438 C 4.800781 15.289062 4.808594 15.066406 4.8125 14.824219 C 4.8125 14.773438 4.8125 14.71875 4.8125 14.664062 C 4.824219 13.734375 4.980469 12.84375 5.179688 11.9375 C 5.1875 11.894531 5.195312 11.855469 5.207031 11.8125 C 5.320312 11.273438 5.527344 10.777344 5.753906 10.273438 C 5.78125 10.214844 5.808594 10.15625 5.835938 10.09375 C 5.996094 9.75 6.175781 9.441406 6.40625 9.140625 C 6.5 9.015625 6.589844 8.886719 6.675781 8.753906 C 7.175781 8.0625 7.828125 7.488281 8.53125 7.019531 C 8.574219 6.988281 8.617188 6.960938 8.664062 6.929688 C 10.933594 5.492188 13.832031 5.195312 16.453125 5.429688 C 16.441406 5.371094 16.433594 5.3125 16.421875 5.253906 C 16.34375 4.535156 16.503906 3.652344 16.929688 3.070312 C 17.628906 2.226562 18.972656 2.226562 19.820312 2.863281 Z M 18.433594 4.355469 C 18.328125 4.613281 18.320312 4.828125 18.328125 5.101562 C 18.332031 5.1875 18.332031 5.273438 18.332031 5.359375 C 18.335938 5.496094 18.339844 5.628906 18.339844 5.761719 C 18.34375 5.894531 18.347656 6.023438 18.347656 6.152344 C 18.351562 6.210938 18.351562 6.210938 18.351562 6.273438 C 18.355469 6.589844 18.273438 6.863281 18.054688 7.097656 C 17.808594 7.3125 17.625 7.332031 17.308594 7.335938 C 17.273438 7.335938 17.234375 7.335938 17.195312 7.335938 C 17.117188 7.335938 17.035156 7.335938 16.957031 7.335938 C 16.828125 7.339844 16.699219 7.339844 16.570312 7.339844 C 16.207031 7.34375 15.84375 7.347656 15.480469 7.351562 C 12.949219 7.371094 10.480469 7.574219 8.582031 9.476562 C 8.210938 9.863281 7.917969 10.28125 7.667969 10.757812 C 7.628906 10.824219 7.628906 10.824219 7.589844 10.894531 C 7.191406 11.636719 6.980469 12.488281 6.855469 13.320312 C 6.894531 13.300781 6.894531 13.300781 6.9375 13.277344 C 7.023438 13.234375 7.113281 13.191406 7.199219 13.144531 C 7.316406 13.085938 7.433594 13.027344 7.546875 12.96875 C 7.722656 12.882812 7.894531 12.792969 8.070312 12.707031 C 8.171875 12.65625 8.273438 12.601562 8.378906 12.546875 C 9.175781 12.140625 10.039062 11.917969 10.914062 11.742188 C 10.960938 11.730469 11.011719 11.722656 11.058594 11.710938 C 12.09375 11.515625 13.15625 11.511719 14.203125 11.515625 C 14.324219 11.515625 14.445312 11.519531 14.570312 11.519531 C 14.925781 11.519531 15.285156 11.523438 15.640625 11.527344 C 15.71875 11.527344 15.71875 11.527344 15.800781 11.527344 C 16.078125 11.53125 16.355469 11.535156 16.632812 11.539062 C 16.710938 11.542969 16.792969 11.542969 16.875 11.542969 C 17.804688 11.558594 17.804688 11.558594 18.09375 11.851562 C 18.292969 12.167969 18.351562 12.382812 18.34375 12.75 C 18.34375 12.792969 18.34375 12.835938 18.34375 12.882812 C 18.339844 13.019531 18.339844 13.15625 18.335938 13.292969 C 18.332031 13.429688 18.332031 13.570312 18.328125 13.707031 C 18.328125 13.792969 18.328125 13.875 18.324219 13.960938 C 18.320312 14.195312 18.34375 14.378906 18.433594 14.601562 C 18.738281 14.503906 18.988281 14.296875 19.210938 14.074219 C 19.371094 13.910156 19.542969 13.761719 19.714844 13.609375 C 19.785156 13.550781 19.851562 13.492188 19.921875 13.433594 C 19.96875 13.390625 19.96875 13.390625 20.019531 13.347656 C 20.167969 13.214844 20.316406 13.082031 20.464844 12.949219 C 20.566406 12.859375 20.664062 12.769531 20.765625 12.683594 C 20.917969 12.546875 21.070312 12.410156 21.21875 12.273438 C 21.4375 12.074219 21.664062 11.890625 21.894531 11.710938 C 21.925781 11.683594 21.957031 11.65625 21.988281 11.628906 C 21.988281 11.59375 21.988281 11.5625 21.988281 11.527344 C 22.015625 11.511719 22.046875 11.5 22.074219 11.484375 C 22.390625 11.316406 22.65625 11.066406 22.902344 10.808594 C 22.960938 10.753906 23.023438 10.703125 23.082031 10.648438 C 23.160156 10.582031 23.234375 10.515625 23.308594 10.449219 C 23.34375 10.417969 23.34375 10.417969 23.382812 10.386719 C 23.464844 10.3125 23.546875 10.242188 23.625 10.167969 C 23.664062 10.136719 23.664062 10.136719 23.703125 10.101562 C 23.894531 9.925781 24.007812 9.757812 24.121094 9.527344 C 24.121094 9.332031 23.992188 9.164062 23.867188 9.015625 C 23.742188 8.898438 23.617188 8.785156 23.488281 8.671875 C 23.355469 8.550781 23.230469 8.425781 23.105469 8.300781 C 22.773438 7.980469 22.433594 7.679688 22.074219 7.390625 C 21.882812 7.230469 21.703125 7.058594 21.519531 6.890625 C 21.332031 6.71875 21.136719 6.5625 20.9375 6.402344 C 20.828125 6.308594 20.753906 6.214844 20.667969 6.097656 C 20.632812 6.074219 20.59375 6.050781 20.558594 6.027344 C 20.273438 5.855469 20.039062 5.613281 19.804688 5.378906 C 19.707031 5.289062 19.605469 5.199219 19.503906 5.113281 C 19.4375 5.054688 19.375 5 19.3125 4.941406 C 18.914062 4.550781 18.914062 4.550781 18.433594 4.355469 Z M 18.433594 4.355469 "/>
</g>
</svg>
