<?xml version="1.0" encoding="UTF-8"?>
<svg xmlns="http://www.w3.org/2000/svg" xmlns:xlink="http://www.w3.org/1999/xlink" width="18px" height="px" viewBox="0 0 18 18" version="1.1">
<g id="surface1">
<path style=" stroke:none;fill-rule:nonzero;fill:rgb(15.686275%,18.82353%,26.666668%);fill-opacity:1;" d="M 2.0625 8.324219 C 2.167969 8.324219 2.277344 8.320312 2.386719 8.320312 C 2.503906 8.320312 2.617188 8.324219 2.738281 8.324219 C 2.863281 8.324219 2.988281 8.324219 3.113281 8.320312 C 3.449219 8.320312 3.785156 8.320312 4.125 8.320312 C 4.476562 8.324219 4.828125 8.320312 5.183594 8.320312 C 5.773438 8.320312 6.367188 8.320312 6.960938 8.324219 C 7.644531 8.324219 8.332031 8.324219 9.015625 8.324219 C 9.605469 8.320312 10.195312 8.320312 10.78125 8.320312 C 11.132812 8.320312 11.484375 8.320312 11.835938 8.320312 C 12.167969 8.320312 12.496094 8.320312 12.828125 8.324219 C 13.007812 8.324219 13.183594 8.324219 13.363281 8.320312 C 13.46875 8.320312 13.578125 8.324219 13.6875 8.324219 C 13.78125 8.324219 13.871094 8.324219 13.96875 8.324219 C 14.289062 8.382812 14.441406 8.5 14.671875 8.730469 C 14.726562 9.003906 14.726562 9.003906 14.726562 9.328125 C 14.726562 9.386719 14.726562 9.445312 14.726562 9.507812 C 14.726562 9.703125 14.726562 9.894531 14.722656 10.089844 C 14.722656 10.226562 14.722656 10.363281 14.722656 10.5 C 14.722656 10.785156 14.722656 11.066406 14.71875 11.351562 C 14.714844 11.714844 14.714844 12.082031 14.714844 12.445312 C 14.714844 12.726562 14.714844 13.007812 14.714844 13.285156 C 14.710938 13.421875 14.710938 13.554688 14.710938 13.691406 C 14.710938 13.878906 14.710938 14.066406 14.707031 14.253906 C 14.707031 14.359375 14.707031 14.464844 14.707031 14.578125 C 14.664062 14.886719 14.617188 14.992188 14.398438 15.210938 C 14.164062 15.253906 14.164062 15.253906 13.875 15.253906 C 13.765625 15.257812 13.65625 15.257812 13.542969 15.257812 C 13.417969 15.257812 13.296875 15.257812 13.175781 15.257812 C 13.046875 15.257812 12.917969 15.257812 12.792969 15.257812 C 12.441406 15.261719 12.09375 15.257812 11.746094 15.257812 C 11.382812 15.257812 11.019531 15.257812 10.652344 15.257812 C 10.042969 15.257812 9.429688 15.257812 8.820312 15.257812 C 8.113281 15.253906 7.402344 15.253906 6.695312 15.257812 C 6.089844 15.257812 5.480469 15.257812 4.875 15.257812 C 4.511719 15.257812 4.148438 15.257812 3.785156 15.257812 C 3.445312 15.261719 3.105469 15.257812 2.765625 15.257812 C 2.640625 15.257812 2.511719 15.257812 2.386719 15.257812 C 2.21875 15.257812 2.046875 15.257812 1.875 15.253906 C 1.734375 15.253906 1.734375 15.253906 1.585938 15.253906 C 1.351562 15.210938 1.351562 15.210938 1.183594 15.042969 C 1.039062 14.773438 1.042969 14.558594 1.042969 14.253906 C 1.042969 14.195312 1.039062 14.132812 1.039062 14.074219 C 1.039062 13.878906 1.039062 13.683594 1.039062 13.488281 C 1.039062 13.351562 1.035156 13.21875 1.035156 13.082031 C 1.035156 12.796875 1.035156 12.511719 1.035156 12.226562 C 1.035156 11.863281 1.03125 11.5 1.027344 11.132812 C 1.027344 10.855469 1.027344 10.574219 1.027344 10.292969 C 1.027344 10.160156 1.027344 10.023438 1.023438 9.890625 C 1.023438 9.703125 1.023438 9.515625 1.023438 9.328125 C 1.023438 9.21875 1.023438 9.113281 1.023438 9.003906 C 1.078125 8.730469 1.078125 8.730469 1.273438 8.535156 C 1.570312 8.34375 1.714844 8.324219 2.0625 8.324219 Z M 3.511719 10.441406 C 3.539062 10.589844 3.570312 10.738281 3.601562 10.890625 C 3.898438 10.890625 4.195312 10.890625 4.5 10.890625 C 4.5 10.996094 4.5 10.996094 4.496094 11.101562 C 4.492188 11.414062 4.492188 11.730469 4.488281 12.042969 C 4.488281 12.152344 4.484375 12.261719 4.484375 12.375 C 4.484375 12.53125 4.484375 12.53125 4.480469 12.691406 C 4.480469 12.835938 4.480469 12.835938 4.480469 12.984375 C 4.480469 13.25 4.480469 13.25 4.679688 13.5 C 4.796875 13.441406 4.917969 13.382812 5.039062 13.320312 C 5.039062 12.519531 5.039062 11.714844 5.039062 10.890625 C 5.367188 10.890625 5.695312 10.890625 6.03125 10.890625 C 6.058594 10.800781 6.089844 10.710938 6.121094 10.621094 C 6.089844 10.5625 6.0625 10.5 6.03125 10.441406 C 5.199219 10.441406 4.367188 10.441406 3.511719 10.441406 Z M 6.75 10.441406 C 6.660156 10.574219 6.660156 10.574219 6.570312 10.710938 C 6.867188 11.097656 7.164062 11.480469 7.46875 11.878906 C 7.386719 11.988281 7.308594 12.097656 7.222656 12.210938 C 7.171875 12.277344 7.125 12.34375 7.074219 12.410156 C 6.960938 12.5625 6.835938 12.707031 6.710938 12.847656 C 6.546875 13.039062 6.546875 13.039062 6.59375 13.257812 C 6.625 13.332031 6.625 13.332031 6.660156 13.410156 C 6.777344 13.410156 6.898438 13.410156 7.019531 13.410156 C 7.179688 13.230469 7.3125 13.066406 7.449219 12.871094 C 7.484375 12.820312 7.523438 12.765625 7.558594 12.714844 C 7.652344 12.585938 7.742188 12.457031 7.828125 12.328125 C 8.089844 12.585938 8.34375 12.84375 8.578125 13.125 C 8.625 13.175781 8.671875 13.230469 8.71875 13.289062 C 8.75 13.328125 8.785156 13.367188 8.820312 13.410156 C 9 13.367188 9 13.367188 9.179688 13.320312 C 9.128906 12.945312 8.917969 12.726562 8.679688 12.441406 C 8.605469 12.355469 8.53125 12.265625 8.453125 12.175781 C 8.398438 12.105469 8.339844 12.039062 8.28125 11.96875 C 8.460938 11.632812 8.632812 11.335938 8.894531 11.054688 C 9.117188 10.824219 9.117188 10.824219 9.074219 10.585938 C 9.050781 10.539062 9.023438 10.488281 9 10.441406 C 8.722656 10.46875 8.640625 10.527344 8.449219 10.734375 C 8.382812 10.816406 8.320312 10.902344 8.257812 10.984375 C 8.164062 11.109375 8.164062 11.109375 8.066406 11.234375 C 7.992188 11.332031 7.992188 11.332031 7.921875 11.429688 C 7.671875 11.191406 7.445312 10.953125 7.234375 10.683594 C 7.164062 10.601562 7.09375 10.523438 7.019531 10.441406 C 6.929688 10.441406 6.84375 10.441406 6.75 10.441406 Z M 9.71875 10.441406 C 9.667969 10.613281 9.667969 10.613281 9.628906 10.800781 C 9.660156 10.828125 9.6875 10.859375 9.71875 10.890625 C 10.046875 10.890625 10.375 10.890625 10.710938 10.890625 C 10.710938 11.722656 10.710938 12.554688 10.710938 13.410156 C 10.800781 13.441406 10.886719 13.46875 10.980469 13.5 C 11.070312 13.457031 11.070312 13.457031 11.160156 13.410156 C 11.160156 12.578125 11.160156 11.746094 11.160156 10.890625 C 11.488281 10.890625 11.8125 10.890625 12.148438 10.890625 C 12.179688 10.769531 12.210938 10.652344 12.238281 10.53125 C 12.144531 10.414062 12.144531 10.414062 11.917969 10.429688 C 11.816406 10.429688 11.714844 10.429688 11.609375 10.429688 C 11.445312 10.433594 11.445312 10.433594 11.277344 10.433594 C 11.164062 10.433594 11.046875 10.433594 10.929688 10.433594 C 10.757812 10.433594 10.757812 10.433594 10.578125 10.4375 C 10.292969 10.4375 10.007812 10.4375 9.71875 10.441406 Z M 9.71875 10.441406 "/>
<path style=" stroke:none;fill-rule:nonzero;fill:rgb(15.686275%,18.82353%,26.666668%);fill-opacity:1;" d="M 5.1875 -0.015625 C 5.257812 -0.015625 5.328125 -0.015625 5.402344 -0.0195312 C 5.632812 -0.0195312 5.863281 -0.0195312 6.097656 -0.0195312 C 6.214844 -0.0234375 6.214844 -0.0234375 6.335938 -0.0234375 C 6.753906 -0.0234375 7.175781 -0.0273438 7.59375 -0.0273438 C 8.027344 -0.0273438 8.460938 -0.03125 8.894531 -0.0351562 C 9.226562 -0.0351562 9.558594 -0.0390625 9.894531 -0.0390625 C 10.054688 -0.0390625 10.210938 -0.0390625 10.371094 -0.0390625 C 10.597656 -0.0429688 10.820312 -0.0429688 11.042969 -0.0429688 C 11.109375 -0.0429688 11.171875 -0.0429688 11.242188 -0.046875 C 11.949219 -0.0390625 12.460938 0.265625 12.957031 0.761719 C 13.078125 0.878906 13.078125 0.878906 13.199219 0.996094 C 13.285156 1.082031 13.367188 1.164062 13.453125 1.253906 C 13.542969 1.339844 13.632812 1.429688 13.71875 1.519531 C 13.90625 1.703125 14.089844 1.886719 14.273438 2.074219 C 14.507812 2.308594 14.746094 2.542969 14.984375 2.777344 C 15.167969 2.960938 15.351562 3.144531 15.53125 3.324219 C 15.660156 3.453125 15.789062 3.582031 15.921875 3.710938 C 16 3.789062 16.078125 3.871094 16.160156 3.953125 C 16.226562 4.019531 16.296875 4.089844 16.367188 4.160156 C 16.90625 4.855469 16.972656 5.496094 16.964844 6.359375 C 16.96875 6.46875 16.96875 6.582031 16.96875 6.695312 C 16.96875 7 16.96875 7.300781 16.96875 7.605469 C 16.96875 7.921875 16.96875 8.242188 16.96875 8.558594 C 16.96875 9.09375 16.96875 9.628906 16.96875 10.164062 C 16.964844 10.78125 16.964844 11.394531 16.96875 12.011719 C 16.96875 12.542969 16.96875 13.074219 16.96875 13.605469 C 16.96875 13.921875 16.96875 14.238281 16.96875 14.554688 C 16.96875 14.90625 16.96875 15.261719 16.964844 15.613281 C 16.96875 15.71875 16.96875 15.820312 16.96875 15.929688 C 16.960938 16.539062 16.886719 16.9375 16.558594 17.460938 C 16.164062 17.835938 15.832031 18.023438 15.285156 18.023438 C 15.191406 18.027344 15.097656 18.027344 15 18.027344 C 14.898438 18.027344 14.792969 18.027344 14.6875 18.027344 C 14.578125 18.027344 14.46875 18.027344 14.359375 18.03125 C 14.0625 18.03125 13.761719 18.03125 13.464844 18.03125 C 13.277344 18.035156 13.09375 18.035156 12.90625 18.035156 C 12.257812 18.035156 11.605469 18.039062 10.957031 18.039062 C 10.351562 18.039062 9.746094 18.042969 9.140625 18.046875 C 8.621094 18.046875 8.101562 18.050781 7.578125 18.050781 C 7.269531 18.050781 6.957031 18.050781 6.648438 18.054688 C 6.300781 18.054688 5.957031 18.054688 5.609375 18.054688 C 5.457031 18.054688 5.457031 18.054688 5.300781 18.058594 C 4.683594 18.050781 4.25 17.964844 3.78125 17.550781 C 3.394531 17.054688 3.261719 16.636719 3.328125 16.019531 C 3.421875 15.839844 3.421875 15.839844 3.601562 15.75 C 3.851562 15.71875 4.0625 15.730469 4.320312 15.75 C 4.507812 15.9375 4.554688 16.046875 4.640625 16.296875 C 4.714844 16.539062 4.714844 16.539062 4.859375 16.738281 C 4.996094 16.75 5.132812 16.753906 5.269531 16.753906 C 5.355469 16.753906 5.445312 16.753906 5.535156 16.757812 C 5.632812 16.757812 5.730469 16.757812 5.832031 16.757812 C 5.933594 16.757812 6.039062 16.757812 6.140625 16.757812 C 6.484375 16.761719 6.824219 16.761719 7.164062 16.765625 C 7.277344 16.765625 7.394531 16.765625 7.511719 16.765625 C 8 16.769531 8.484375 16.769531 8.972656 16.769531 C 9.667969 16.773438 10.367188 16.773438 11.066406 16.78125 C 11.613281 16.785156 12.164062 16.785156 12.710938 16.785156 C 12.945312 16.785156 13.179688 16.789062 13.414062 16.789062 C 13.742188 16.792969 14.066406 16.792969 14.394531 16.792969 C 14.492188 16.792969 14.589844 16.796875 14.6875 16.796875 C 15.179688 16.804688 15.179688 16.804688 15.585938 16.570312 C 15.691406 16.167969 15.695312 15.785156 15.695312 15.371094 C 15.695312 15.234375 15.695312 15.234375 15.695312 15.09375 C 15.695312 14.789062 15.695312 14.484375 15.691406 14.179688 C 15.691406 13.964844 15.691406 13.753906 15.691406 13.542969 C 15.691406 13.097656 15.691406 12.652344 15.691406 12.210938 C 15.6875 11.640625 15.6875 11.070312 15.6875 10.503906 C 15.6875 10.066406 15.6875 9.628906 15.6875 9.191406 C 15.6875 8.980469 15.6875 8.769531 15.6875 8.558594 C 15.6875 8.265625 15.6875 7.972656 15.683594 7.679688 C 15.683594 7.59375 15.683594 7.507812 15.683594 7.417969 C 15.679688 6.882812 15.664062 6.425781 15.300781 6 C 14.976562 5.730469 14.753906 5.746094 14.335938 5.746094 C 14.210938 5.742188 14.085938 5.738281 13.964844 5.738281 C 13.769531 5.734375 13.574219 5.730469 13.378906 5.730469 C 12.007812 5.71875 12.007812 5.71875 11.519531 5.308594 C 11.257812 4.957031 11.214844 4.699219 11.210938 4.265625 C 11.207031 4.09375 11.207031 4.09375 11.203125 3.917969 C 11.203125 3.800781 11.199219 3.683594 11.199219 3.5625 C 11.195312 3.328125 11.191406 3.09375 11.1875 2.859375 C 11.1875 2.703125 11.1875 2.703125 11.183594 2.542969 C 11.148438 2.132812 11.074219 1.816406 10.800781 1.5 C 10.496094 1.246094 10.304688 1.246094 9.910156 1.242188 C 9.800781 1.242188 9.691406 1.238281 9.574219 1.238281 C 9.453125 1.238281 9.332031 1.234375 9.210938 1.234375 C 9.148438 1.234375 9.089844 1.234375 9.027344 1.234375 C 8.703125 1.230469 8.378906 1.230469 8.058594 1.226562 C 7.722656 1.226562 7.390625 1.222656 7.054688 1.21875 C 6.800781 1.214844 6.542969 1.214844 6.285156 1.214844 C 6.164062 1.214844 6.039062 1.210938 5.917969 1.210938 C 5.746094 1.207031 5.570312 1.207031 5.398438 1.207031 C 5.300781 1.207031 5.203125 1.207031 5.101562 1.207031 C 4.847656 1.238281 4.847656 1.238281 4.695312 1.453125 C 4.574219 1.753906 4.554688 1.976562 4.554688 2.300781 C 4.554688 2.421875 4.554688 2.539062 4.550781 2.660156 C 4.554688 2.753906 4.554688 2.753906 4.554688 2.847656 C 4.554688 3.046875 4.550781 3.242188 4.550781 3.441406 C 4.546875 3.925781 4.546875 4.414062 4.542969 4.902344 C 4.542969 5.316406 4.542969 5.730469 4.539062 6.144531 C 4.535156 6.335938 4.535156 6.53125 4.539062 6.726562 C 4.535156 6.902344 4.535156 6.902344 4.535156 7.082031 C 4.535156 7.183594 4.535156 7.289062 4.535156 7.394531 C 4.5 7.648438 4.5 7.648438 4.378906 7.816406 C 4.140625 7.980469 3.96875 7.960938 3.691406 7.921875 C 3.421875 7.722656 3.339844 7.613281 3.285156 7.28125 C 3.285156 7.171875 3.285156 7.066406 3.285156 6.953125 C 3.28125 6.890625 3.28125 6.832031 3.28125 6.769531 C 3.28125 6.570312 3.28125 6.371094 3.28125 6.171875 C 3.28125 6.03125 3.28125 5.894531 3.28125 5.753906 C 3.28125 5.464844 3.28125 5.171875 3.28125 4.878906 C 3.285156 4.507812 3.285156 4.136719 3.28125 3.765625 C 3.28125 3.476562 3.28125 3.191406 3.28125 2.902344 C 3.28125 2.765625 3.28125 2.628906 3.28125 2.492188 C 3.273438 0.972656 3.273438 0.972656 3.824219 0.402344 C 4.261719 0.0117188 4.628906 -0.015625 5.1875 -0.015625 Z M 5.1875 -0.015625 "/>
</g>
</svg>
