<svg width="25" height="26" viewBox="0 0 25 26" fill="none" xmlns="http://www.w3.org/2000/svg">
<path d="M4.41417 0.259277C4.51964 0.259277 4.62902 0.259277 4.73449 0.259277C5.02355 0.255371 5.31261 0.255371 5.60167 0.259277C5.84386 0.259277 6.08605 0.259277 6.32824 0.255371C6.93371 0.255371 7.53917 0.255371 8.14074 0.255371C8.63292 0.259277 9.12511 0.255371 9.61339 0.255371C10.1876 0.255371 10.7579 0.255371 11.3282 0.255371C11.629 0.255371 11.9337 0.255371 12.2345 0.255371C12.5196 0.251465 12.8009 0.251465 13.086 0.255371C13.1915 0.255371 13.2931 0.255371 13.3985 0.255371C14.1446 0.251465 14.8517 0.29834 15.5235 0.661621C15.5743 0.685059 15.5743 0.685059 15.6251 0.712403C15.8829 0.853028 16.1173 1.00537 16.3361 1.20459C16.3986 1.26709 16.3986 1.26709 16.465 1.32568C17.1837 2.00146 17.6368 2.93115 17.672 3.92334C17.672 4.04053 17.672 4.15381 17.672 4.26709C17.672 4.32959 17.6759 4.38818 17.6759 4.45068C17.6759 4.57959 17.6759 4.7085 17.6759 4.8374C17.6759 4.96631 17.6759 5.09521 17.6759 5.22803C17.6759 5.41553 17.6759 5.60693 17.6759 5.79443C17.6759 5.85303 17.6759 5.91162 17.6798 5.97021C17.6759 6.34131 17.6407 6.63428 17.3673 6.91162C17.34 6.93115 17.3126 6.94678 17.2814 6.96631C17.2423 6.99365 17.2423 6.99365 17.1993 7.021C16.922 7.16943 16.5626 7.16162 16.2657 7.0835C16.0236 6.97412 15.8751 6.81006 15.7501 6.57568C15.7032 6.44287 15.6915 6.35693 15.6915 6.21631C15.6915 6.17334 15.6876 6.13037 15.6876 6.0874C15.6876 6.01709 15.6876 6.01709 15.6876 5.94678C15.6876 5.84521 15.6837 5.74756 15.6837 5.6499C15.6798 5.49365 15.6798 5.3374 15.6759 5.18115C15.6798 3.8999 15.6798 3.8999 15.0665 2.81006C14.5665 2.36084 13.9767 2.271 13.3321 2.2749C13.2696 2.2749 13.2696 2.2749 13.211 2.2749C13.0782 2.2749 12.9415 2.2749 12.8087 2.2749C12.715 2.2749 12.6173 2.2749 12.5235 2.2749C12.2618 2.271 12.004 2.271 11.7423 2.271C11.5821 2.271 11.4181 2.271 11.2579 2.271C10.6915 2.271 10.1212 2.271 9.5548 2.271C9.02746 2.271 8.50011 2.271 7.97277 2.271C7.51964 2.271 7.06652 2.271 6.60949 2.271C6.33996 2.271 6.07043 2.271 5.80089 2.26709C5.54308 2.26709 5.28918 2.26709 5.03527 2.26709C4.94152 2.26709 4.84777 2.26709 4.75402 2.26709C3.93761 2.26709 3.18761 2.27881 2.5548 2.86475C2.03136 3.45068 2.01964 4.13818 2.01964 4.88037C2.01964 4.95068 2.01964 5.021 2.01964 5.09131C2.01964 5.28662 2.01964 5.48193 2.01964 5.67334C2.01964 5.88428 2.01964 6.09521 2.01964 6.30225C2.01964 6.7124 2.01964 7.12256 2.01964 7.53271C2.01964 7.86865 2.01964 8.20068 2.01964 8.53271C2.01964 9.47803 2.01964 10.4272 2.01964 11.3726C2.01964 11.4468 2.01964 11.4468 2.01964 11.5249C2.01964 11.603 2.01964 11.603 2.01964 11.6812C2.01964 12.5054 2.01964 13.3335 2.01574 14.1616C2.01574 15.0093 2.01574 15.8608 2.01574 16.7085C2.01574 17.1851 2.01574 17.6616 2.01574 18.1382C2.01574 18.5444 2.01574 18.9507 2.01574 19.3569C2.01574 19.564 2.01574 19.771 2.01574 19.978C2.01574 20.1694 2.01574 20.3569 2.01574 20.5483C2.01574 20.6147 2.01574 20.6851 2.01574 20.7515C2.01183 21.5093 2.07824 22.1733 2.61339 22.7476C3.10949 23.1968 3.69933 23.2866 4.34777 23.2827C4.38683 23.2827 4.42589 23.2827 4.46886 23.2827C4.60167 23.2827 4.73449 23.2827 4.8673 23.2827C4.96496 23.2827 5.05871 23.2827 5.15636 23.2827C5.41417 23.2866 5.67589 23.2866 5.93371 23.2866C6.09777 23.2866 6.25792 23.2866 6.42199 23.2866C6.98839 23.2866 7.5548 23.2866 8.12121 23.2866C8.64855 23.2866 9.17589 23.2866 9.70324 23.2866C10.1603 23.2866 10.6134 23.2866 11.0665 23.2866C11.336 23.2866 11.6095 23.2866 11.879 23.2905C12.1329 23.2905 12.3868 23.2905 12.6446 23.2905C12.7345 23.2905 12.8282 23.2905 12.922 23.2905C13.7384 23.2905 14.4884 23.2788 15.1212 22.6929C15.6017 22.1616 15.6564 21.5405 15.6603 20.8569C15.6603 20.7593 15.6603 20.6577 15.6642 20.5601C15.6642 20.4038 15.6642 20.2476 15.6681 20.0952C15.6681 19.9429 15.6681 19.7944 15.672 19.6421C15.672 19.5952 15.672 19.5522 15.672 19.5015C15.6759 19.1694 15.7423 18.8882 15.9845 18.646C16.0118 18.6265 16.0392 18.6108 16.0704 18.5913C16.0978 18.5757 16.1251 18.5562 16.1525 18.5366C16.4298 18.3882 16.7892 18.396 17.0861 18.4741C17.3282 18.5835 17.4767 18.7476 17.6056 18.978C17.6525 19.1304 17.6603 19.2358 17.6603 19.3921C17.6603 19.4468 17.6642 19.4976 17.6642 19.5562C17.6642 19.6421 17.6642 19.6421 17.6642 19.7319C17.6642 19.7944 17.6642 19.853 17.6642 19.9155C17.6642 20.0444 17.6681 20.1772 17.6681 20.3062C17.6681 20.5015 17.6681 20.6968 17.672 20.8921C17.6759 21.6929 17.6603 22.4312 17.2696 23.1499C17.254 23.1851 17.2384 23.2163 17.2189 23.2515C17.0782 23.5093 16.9259 23.7437 16.7267 23.9585C16.6837 24.0054 16.6446 24.0483 16.6056 24.0913C15.9571 24.7788 15.0587 25.2515 14.1017 25.2905C13.8204 25.2983 13.5431 25.2983 13.2657 25.2983C13.1564 25.2983 13.0509 25.2983 12.9415 25.2983C12.6525 25.3022 12.3634 25.3022 12.0743 25.2983C11.8321 25.2983 11.59 25.2983 11.3478 25.3022C10.7423 25.3022 10.1407 25.3022 9.53527 25.3022C9.04308 25.2983 8.5548 25.3022 8.06261 25.3022C7.4923 25.3022 6.92199 25.3022 6.34777 25.3022C6.04699 25.3022 5.74621 25.3022 5.44542 25.3022C5.16027 25.3062 4.87511 25.3062 4.58996 25.3022C4.48839 25.3022 4.38292 25.3022 4.28136 25.3022C3.53527 25.3062 2.82433 25.2593 2.15246 24.896C2.12121 24.8804 2.08605 24.8647 2.0548 24.8452C1.79308 24.7046 1.56261 24.5522 1.34386 24.3491C1.30089 24.3101 1.25792 24.271 1.21105 24.2319C0.531362 23.5913 0.0821434 22.7202 0.0118306 21.7827C0.00792439 21.5835 0.00401819 21.3882 0.00792439 21.189C0.00792439 21.1147 0.00792439 21.0405 0.00401819 20.9624C0.00401819 20.7554 0.00401819 20.5522 0.00401819 20.3452C0.00401819 20.1226 0.00401819 19.896 0.00401819 19.6733C0.00401819 19.2358 0.00401819 18.8022 0.00401819 18.3647C0.00401819 18.0093 0.00401819 17.6538 0.00401819 17.2983C0.00401819 17.2476 0.00401819 17.1968 0.00401819 17.146C0.00401819 17.0405 0.00401819 16.939 0.00401819 16.8374C0.00401819 15.8726 0.00401819 14.9077 0.00401819 13.9468C0.00401819 13.064 0.00401819 12.1851 0.00401819 11.3022C0.00011189 10.396 0.00011189 9.48975 0.00011189 8.5874C0.00011189 8.07959 0.00011189 7.57178 0.00011189 7.06396C0.00011189 6.63037 0.00011189 6.19678 0.00011189 5.76709C0.00011189 5.54443 0.00011189 5.32568 0.00011189 5.10303C0.00011189 4.90381 0.00011189 4.70068 0.00011189 4.49756C0.00011189 4.42334 0.00011189 4.35303 0.00011189 4.27881C-0.00379441 3.63037 0.0938624 2.98584 0.406362 2.40771C0.425893 2.37256 0.441518 2.34131 0.457143 2.30615C0.597768 2.04834 0.754018 1.81396 0.953236 1.59521C0.992299 1.55225 1.03136 1.50928 1.07042 1.46631C2.00011 0.481934 3.12121 0.255371 4.41417 0.259277Z" fill="#283044"/>
<path d="M21.4259 8.60693C21.4766 8.60693 21.5313 8.60303 21.5821 8.60303C22.047 8.67725 22.3751 9.07959 22.6954 9.3999C22.7462 9.45068 22.797 9.50146 22.8516 9.55615C22.961 9.66162 23.0704 9.771 23.1759 9.88037C23.3165 10.021 23.4532 10.1577 23.5938 10.2944C23.7032 10.3999 23.8087 10.5093 23.9181 10.6147C23.9688 10.6655 24.0196 10.7163 24.0704 10.7671C24.629 11.3179 24.9845 11.8491 24.9962 12.6499C24.9962 12.7046 24.9962 12.7593 24.9962 12.814C24.9962 12.8687 24.9962 12.9233 25.0001 12.9819C25.0001 13.7632 24.6524 14.2866 24.1173 14.8335C24.0431 14.9077 23.9688 14.978 23.8946 15.0522C23.8399 15.1069 23.7892 15.1577 23.7345 15.2124C23.6251 15.3218 23.5157 15.4312 23.4063 15.5405C23.2657 15.6772 23.129 15.8179 22.9884 15.9585C22.8829 16.0679 22.7735 16.1733 22.6641 16.2827C22.6134 16.3335 22.5626 16.3843 22.5118 16.4351C22.4376 16.5093 22.3673 16.5796 22.2931 16.6538C22.254 16.6929 22.211 16.7319 22.172 16.7749C21.8868 17.0171 21.6407 17.0562 21.2735 17.0483C20.9806 17.0093 20.8126 16.8687 20.6134 16.6616C20.4376 16.3882 20.3829 16.1265 20.4376 15.8062C20.5548 15.4858 20.7501 15.271 20.9923 15.0366C21.0274 15.0015 21.0587 14.9663 21.0977 14.9312C21.2032 14.8257 21.3165 14.7163 21.4259 14.6108C21.5001 14.5366 21.5743 14.4624 21.6485 14.3882C21.8282 14.2085 22.0118 14.0327 22.1954 13.853C22.1329 13.853 22.0704 13.853 22.0079 13.853C20.5587 13.8491 19.1095 13.8491 17.6602 13.8452C17.4806 13.8452 17.3048 13.8452 17.1251 13.8413C17.0899 13.8413 17.0548 13.8413 17.0157 13.8413C16.4415 13.8413 15.8673 13.8413 15.2931 13.8413C14.7032 13.8374 14.1134 13.8374 13.5196 13.8374C13.1915 13.8335 12.8595 13.8335 12.5274 13.8335C12.2149 13.8335 11.9024 13.8335 11.5899 13.8296C11.4766 13.8296 11.3634 13.8296 11.2462 13.8296C11.0899 13.8335 10.9337 13.8296 10.7774 13.8296C10.7345 13.8296 10.6876 13.8296 10.6407 13.8296C10.3126 13.8257 10.0391 13.7554 9.80087 13.521C9.78134 13.4937 9.76181 13.4624 9.74618 13.4351C9.72665 13.4077 9.70712 13.3765 9.68759 13.3491C9.53915 13.0757 9.54696 12.7124 9.62899 12.4194C9.73837 12.1733 9.89852 12.0249 10.1329 11.8999C10.2657 11.8569 10.3438 11.8452 10.4845 11.8452C10.5235 11.8452 10.5665 11.8452 10.6095 11.8452C10.6563 11.8452 10.7032 11.8452 10.7501 11.8452C10.797 11.8413 10.8477 11.8413 10.8985 11.8413C11.0626 11.8413 11.2266 11.8413 11.3907 11.8413C11.5079 11.8413 11.6251 11.8413 11.7423 11.8413C11.9962 11.8374 12.2501 11.8374 12.5001 11.8374C12.8673 11.8374 13.2345 11.8335 13.5977 11.8335C14.1915 11.8296 14.7852 11.8296 15.379 11.8257C15.9571 11.8257 16.5352 11.8218 17.1095 11.8218C17.1485 11.8218 17.1837 11.8218 17.2188 11.8218C17.3985 11.8179 17.5743 11.8179 17.754 11.8179C19.2345 11.814 20.7149 11.8062 22.1954 11.8022C22.1641 11.7749 22.1641 11.7749 22.1329 11.7437C21.9259 11.5405 21.7188 11.3374 21.5118 11.1343C21.4376 11.0562 21.3595 10.9819 21.2813 10.9038C21.172 10.7944 21.0587 10.6851 20.9493 10.5757C20.8985 10.5249 20.8985 10.5249 20.8438 10.4741C20.5899 10.2241 20.4141 9.98193 20.4141 9.60693C20.4259 9.32568 20.504 9.10303 20.7032 8.896C20.9376 8.69287 21.1134 8.61475 21.4259 8.60693Z" fill="#283044"/>
</svg>
