<?xml version="1.0" encoding="UTF-8"?>
<svg xmlns="http://www.w3.org/2000/svg" xmlns:xlink="http://www.w3.org/1999/xlink" width="18px" height="px" viewBox="0 0 18 20" version="1.1">
<g id="surface1">
<path style=" stroke:none;fill-rule:nonzero;fill:rgb(15.686275%,18.82353%,26.666668%);fill-opacity:1;" d="M 15.691406 0.234375 C 16.566406 0.8125 16.800781 1.71875 17.070312 2.675781 C 17.113281 2.820312 17.113281 2.820312 17.15625 2.96875 C 17.410156 3.851562 17.410156 3.851562 17.363281 4.21875 C 17.117188 4.445312 16.859375 4.523438 16.539062 4.613281 C 16.464844 4.632812 16.464844 4.632812 16.386719 4.65625 C 16.21875 4.703125 16.050781 4.75 15.882812 4.796875 C 15.761719 4.832031 15.640625 4.863281 15.519531 4.898438 C 15.261719 4.972656 15.003906 5.042969 14.746094 5.117188 C 14.339844 5.230469 13.933594 5.34375 13.523438 5.460938 C 13.035156 5.597656 12.542969 5.734375 12.050781 5.875 C 10.789062 6.226562 9.53125 6.585938 8.273438 6.945312 C 7.976562 7.027344 7.679688 7.113281 7.382812 7.195312 C 7.164062 7.257812 6.941406 7.324219 6.71875 7.386719 C 6.570312 7.429688 6.417969 7.472656 6.269531 7.511719 C 6.179688 7.539062 6.085938 7.566406 5.996094 7.589844 C 5.917969 7.613281 5.839844 7.636719 5.757812 7.660156 C 5.40625 7.761719 5.050781 7.863281 4.699219 7.96875 C 4.765625 7.96875 4.835938 7.96875 4.902344 7.96875 C 6.546875 7.976562 8.1875 7.984375 9.832031 7.992188 C 10.625 7.996094 11.417969 8 12.214844 8 C 12.90625 8.003906 13.597656 8.007812 14.289062 8.011719 C 14.65625 8.011719 15.023438 8.015625 15.390625 8.015625 C 15.734375 8.015625 16.078125 8.019531 16.425781 8.019531 C 16.550781 8.023438 16.679688 8.023438 16.804688 8.023438 C 16.976562 8.023438 17.148438 8.023438 17.324219 8.023438 C 17.417969 8.027344 17.515625 8.027344 17.617188 8.027344 C 17.839844 8.046875 17.839844 8.046875 18 8.203125 C 18.019531 8.378906 18.019531 8.378906 18.023438 8.601562 C 18.023438 8.683594 18.023438 8.769531 18.023438 8.855469 C 18.027344 8.996094 18.027344 8.996094 18.027344 9.136719 C 18.027344 9.285156 18.027344 9.285156 18.027344 9.433594 C 18.03125 9.703125 18.03125 9.96875 18.03125 10.238281 C 18.03125 10.40625 18.03125 10.574219 18.035156 10.742188 C 18.035156 11.269531 18.039062 11.792969 18.039062 12.320312 C 18.039062 12.925781 18.042969 13.53125 18.046875 14.136719 C 18.050781 14.605469 18.050781 15.078125 18.050781 15.546875 C 18.050781 15.824219 18.050781 16.105469 18.054688 16.382812 C 18.058594 16.695312 18.058594 17.011719 18.058594 17.324219 C 18.058594 17.414062 18.058594 17.503906 18.0625 17.601562 C 18.054688 18.316406 17.867188 18.960938 17.335938 19.476562 C 16.851562 19.875 16.402344 20.019531 15.765625 20.023438 C 15.710938 20.023438 15.65625 20.023438 15.601562 20.023438 C 15.425781 20.027344 15.246094 20.027344 15.070312 20.027344 C 14.945312 20.027344 14.820312 20.027344 14.699219 20.027344 C 14.441406 20.027344 14.179688 20.027344 13.921875 20.027344 C 13.589844 20.027344 13.257812 20.03125 12.929688 20.035156 C 12.671875 20.035156 12.417969 20.035156 12.164062 20.035156 C 12.039062 20.035156 11.917969 20.035156 11.796875 20.039062 C 11.625 20.039062 11.453125 20.039062 11.285156 20.039062 C 11.136719 20.039062 11.136719 20.039062 10.988281 20.039062 C 10.753906 20 10.753906 20 10.597656 19.855469 C 10.511719 19.6875 10.511719 19.6875 10.574219 19.476562 C 10.671875 19.296875 10.671875 19.296875 10.753906 19.21875 C 10.90625 19.210938 11.058594 19.207031 11.210938 19.207031 C 11.359375 19.207031 11.359375 19.207031 11.507812 19.203125 C 11.5625 19.203125 11.613281 19.203125 11.667969 19.203125 C 11.832031 19.203125 12 19.199219 12.164062 19.199219 C 12.636719 19.195312 13.105469 19.191406 13.578125 19.1875 C 13.863281 19.1875 14.152344 19.183594 14.441406 19.179688 C 14.550781 19.179688 14.65625 19.179688 14.765625 19.175781 C 15.816406 19.179688 15.816406 19.179688 16.71875 18.714844 C 18.03125 17.117188 17.09375 14.628906 17.125 12.578125 C 12 12.578125 6.875 12.578125 1.59375 12.578125 C 1.136719 15.976562 1.136719 15.976562 2.097656 18.808594 C 2.679688 19.238281 3.507812 19.175781 4.195312 19.175781 C 4.308594 19.175781 4.417969 19.175781 4.527344 19.179688 C 4.820312 19.179688 5.109375 19.183594 5.398438 19.183594 C 5.863281 19.1875 6.328125 19.1875 6.792969 19.191406 C 6.957031 19.195312 7.121094 19.195312 7.28125 19.195312 C 7.429688 19.195312 7.429688 19.195312 7.578125 19.199219 C 7.664062 19.199219 7.75 19.199219 7.839844 19.199219 C 8.042969 19.21875 8.042969 19.21875 8.203125 19.375 C 8.222656 19.609375 8.222656 19.609375 8.203125 19.84375 C 7.980469 20.0625 7.835938 20.019531 7.519531 20.023438 C 7.464844 20.023438 7.410156 20.023438 7.355469 20.027344 C 7.175781 20.027344 7 20.027344 6.820312 20.027344 C 6.695312 20.03125 6.570312 20.03125 6.445312 20.03125 C 6.183594 20.03125 5.921875 20.03125 5.660156 20.035156 C 5.324219 20.035156 4.992188 20.035156 4.660156 20.039062 C 4.402344 20.042969 4.144531 20.042969 3.886719 20.042969 C 3.761719 20.042969 3.640625 20.042969 3.515625 20.046875 C 2.71875 20.054688 2.039062 20.015625 1.421875 19.453125 C 0.71875 18.730469 0.703125 17.925781 0.710938 16.976562 C 0.710938 16.789062 0.710938 16.601562 0.710938 16.410156 C 0.710938 16.3125 0.710938 16.214844 0.710938 16.109375 C 0.710938 15.796875 0.710938 15.484375 0.710938 15.171875 C 0.710938 15.117188 0.710938 15.0625 0.710938 15.007812 C 0.710938 14.902344 0.710938 14.792969 0.710938 14.683594 C 0.707031 13.953125 0.707031 13.226562 0.707031 12.5 C 0.710938 12.003906 0.710938 11.511719 0.707031 11.019531 C 0.707031 10.761719 0.707031 10.5 0.707031 10.242188 C 0.71875 8.941406 0.585938 7.816406 0.140625 6.585938 C -0.0820312 5.914062 -0.078125 5.28125 0.21875 4.632812 C 0.625 3.898438 1.25 3.582031 2.050781 3.34375 C 2.261719 3.28125 2.472656 3.222656 2.683594 3.164062 C 2.800781 3.132812 2.917969 3.097656 3.035156 3.066406 C 3.351562 2.976562 3.671875 2.886719 3.988281 2.800781 C 4.324219 2.707031 4.65625 2.613281 4.992188 2.519531 C 5.410156 2.402344 5.832031 2.28125 6.253906 2.164062 C 7.210938 1.898438 8.167969 1.625 9.125 1.347656 C 9.558594 1.222656 9.992188 1.097656 10.429688 0.972656 C 10.777344 0.871094 11.128906 0.773438 11.476562 0.667969 C 11.804688 0.574219 12.132812 0.480469 12.464844 0.386719 C 12.585938 0.351562 12.703125 0.316406 12.824219 0.28125 C 13.722656 0.015625 14.828125 -0.277344 15.691406 0.234375 Z M 13.003906 1.132812 C 12.914062 1.160156 12.828125 1.183594 12.738281 1.210938 C 12.527344 1.277344 12.316406 1.339844 12.105469 1.40625 C 12.21875 1.636719 12.328125 1.796875 12.515625 1.976562 C 12.558594 2.019531 12.601562 2.0625 12.644531 2.105469 C 12.75 2.199219 12.851562 2.289062 12.960938 2.378906 C 13.257812 2.625 13.527344 2.878906 13.785156 3.164062 C 14.335938 3.832031 14.335938 3.832031 15.09375 4.183594 C 15.347656 4.117188 15.539062 4.03125 15.769531 3.90625 C 15.980469 3.824219 16.195312 3.746094 16.40625 3.671875 C 16.320312 3.367188 16.230469 3.066406 16.144531 2.765625 C 16.117188 2.679688 16.09375 2.59375 16.070312 2.503906 C 15.84375 1.742188 15.660156 1.308594 14.972656 0.859375 C 14.28125 0.773438 13.65625 0.925781 13.003906 1.132812 Z M 10.347656 1.898438 C 10.273438 1.921875 10.199219 1.941406 10.121094 1.964844 C 10.007812 1.996094 10.007812 1.996094 9.890625 2.03125 C 9.773438 2.066406 9.773438 2.066406 9.65625 2.097656 C 9.464844 2.152344 9.269531 2.210938 9.078125 2.265625 C 9.429688 2.675781 9.796875 3.058594 10.183594 3.4375 C 10.265625 3.515625 10.265625 3.515625 10.347656 3.597656 C 10.660156 3.90625 10.980469 4.203125 11.320312 4.484375 C 11.46875 4.609375 11.46875 4.609375 11.582031 4.738281 C 11.695312 4.878906 11.695312 4.878906 11.945312 5 C 12.292969 4.964844 12.605469 4.859375 12.933594 4.75 C 13.023438 4.722656 13.109375 4.695312 13.203125 4.667969 C 13.421875 4.597656 13.640625 4.527344 13.859375 4.453125 C 13.519531 4.058594 13.167969 3.683594 12.792969 3.320312 C 12.742188 3.269531 12.6875 3.21875 12.632812 3.164062 C 12.324219 2.863281 12.007812 2.570312 11.671875 2.292969 C 11.546875 2.1875 11.546875 2.1875 11.335938 1.957031 C 11.167969 1.78125 11.167969 1.78125 10.964844 1.78125 C 10.746094 1.796875 10.558594 1.839844 10.347656 1.898438 Z M 6.855469 2.886719 C 6.777344 2.910156 6.699219 2.929688 6.621094 2.953125 C 6.429688 3.011719 6.242188 3.066406 6.054688 3.125 C 6.390625 3.523438 6.746094 3.878906 7.132812 4.226562 C 7.71875 4.757812 8.28125 5.304688 8.839844 5.859375 C 9.496094 5.679688 10.15625 5.5 10.832031 5.3125 C 10.699219 5.050781 10.644531 4.953125 10.4375 4.769531 C 10.390625 4.730469 10.34375 4.6875 10.292969 4.644531 C 10.242188 4.597656 10.191406 4.554688 10.140625 4.507812 C 9.800781 4.203125 9.46875 3.902344 9.152344 3.578125 C 9.101562 3.523438 9.046875 3.46875 8.996094 3.414062 C 8.894531 3.3125 8.792969 3.207031 8.695312 3.101562 C 8.476562 2.878906 8.328125 2.75 8.023438 2.648438 C 7.609375 2.660156 7.25 2.765625 6.855469 2.886719 Z M 4.589844 3.558594 C 4.503906 3.582031 4.417969 3.605469 4.332031 3.632812 C 4.242188 3.65625 4.148438 3.683594 4.058594 3.710938 C 3.964844 3.738281 3.875 3.761719 3.78125 3.789062 C 3.554688 3.855469 3.332031 3.917969 3.105469 3.984375 C 3.480469 4.425781 3.878906 4.832031 4.289062 5.234375 C 4.351562 5.292969 4.414062 5.355469 4.476562 5.417969 C 4.816406 5.75 5.160156 6.066406 5.527344 6.375 C 5.625 6.460938 5.722656 6.550781 5.8125 6.640625 C 6.285156 6.613281 6.71875 6.5 7.167969 6.363281 C 7.230469 6.34375 7.292969 6.324219 7.355469 6.308594 C 7.503906 6.261719 7.65625 6.21875 7.804688 6.171875 C 7.695312 5.929688 7.566406 5.761719 7.375 5.574219 C 7.292969 5.496094 7.292969 5.496094 7.210938 5.414062 C 7.152344 5.359375 7.097656 5.304688 7.039062 5.25 C 6.984375 5.195312 6.929688 5.140625 6.871094 5.085938 C 6.550781 4.773438 6.21875 4.472656 5.875 4.183594 C 5.703125 4.035156 5.539062 3.878906 5.382812 3.714844 C 5.289062 3.621094 5.195312 3.527344 5.097656 3.4375 C 4.925781 3.4375 4.753906 3.511719 4.589844 3.558594 Z M 1.992188 4.296875 C 1.496094 4.507812 1.195312 4.703125 0.9375 5.1875 C 0.761719 5.78125 0.964844 6.328125 1.136719 6.902344 C 1.160156 6.992188 1.183594 7.078125 1.207031 7.164062 C 1.230469 7.246094 1.253906 7.328125 1.28125 7.414062 C 1.300781 7.488281 1.324219 7.5625 1.347656 7.640625 C 1.414062 7.824219 1.414062 7.824219 1.578125 7.867188 C 1.769531 7.894531 1.882812 7.875 2.066406 7.820312 C 2.125 7.804688 2.1875 7.785156 2.25 7.769531 C 2.3125 7.75 2.378906 7.730469 2.445312 7.710938 C 2.511719 7.691406 2.578125 7.671875 2.648438 7.652344 C 2.859375 7.589844 3.074219 7.527344 3.285156 7.464844 C 3.429688 7.425781 3.574219 7.382812 3.71875 7.339844 C 4.070312 7.238281 4.425781 7.136719 4.777344 7.03125 C 4.804688 6.773438 4.804688 6.773438 4.554688 6.574219 C 4.457031 6.484375 4.351562 6.394531 4.25 6.304688 C 3.765625 5.875 3.300781 5.429688 2.847656 4.96875 C 2.582031 4.703125 2.316406 4.492188 1.992188 4.296875 Z M 1.59375 8.90625 C 1.59375 9.835938 1.59375 10.761719 1.59375 11.71875 C 1.871094 11.734375 2.152344 11.746094 2.4375 11.761719 C 2.527344 11.769531 2.613281 11.777344 2.703125 11.78125 C 3.136719 11.796875 3.136719 11.796875 3.496094 11.582031 C 3.621094 11.398438 3.722656 11.214844 3.824219 11.015625 C 3.890625 10.898438 3.960938 10.78125 4.03125 10.664062 C 4.09375 10.546875 4.160156 10.429688 4.226562 10.3125 C 4.292969 10.195312 4.359375 10.078125 4.421875 9.960938 C 4.519531 9.785156 4.519531 9.785156 4.621094 9.609375 C 4.75 9.378906 4.882812 9.144531 5.019531 8.90625 C 3.886719 8.90625 2.757812 8.90625 1.59375 8.90625 Z M 5.785156 9.199219 C 5.710938 9.332031 5.640625 9.472656 5.574219 9.609375 C 5.480469 9.773438 5.382812 9.9375 5.289062 10.101562 C 5.1875 10.273438 5.089844 10.445312 4.992188 10.621094 C 4.941406 10.707031 4.890625 10.796875 4.839844 10.890625 C 4.605469 11.300781 4.605469 11.300781 4.378906 11.71875 C 5.089844 11.71875 5.800781 11.71875 6.53125 11.71875 C 6.644531 11.515625 6.761719 11.308594 6.878906 11.097656 C 7.203125 10.523438 7.539062 9.957031 7.882812 9.390625 C 8.046875 9.164062 8.046875 9.164062 8.125 8.90625 C 7.789062 8.886719 7.453125 8.875 7.117188 8.863281 C 7.023438 8.855469 6.929688 8.851562 6.832031 8.84375 C 6.21875 8.820312 6.21875 8.820312 5.785156 9.199219 Z M 8.914062 9.074219 C 8.78125 9.292969 8.683594 9.507812 8.597656 9.746094 C 8.441406 10.117188 8.214844 10.453125 8.003906 10.796875 C 7.921875 10.9375 7.835938 11.082031 7.753906 11.222656 C 7.71875 11.285156 7.679688 11.347656 7.644531 11.410156 C 7.554688 11.558594 7.554688 11.558594 7.566406 11.71875 C 8.25 11.71875 8.933594 11.71875 9.636719 11.71875 C 9.8125 11.417969 9.988281 11.117188 10.164062 10.820312 C 10.222656 10.714844 10.285156 10.613281 10.34375 10.511719 C 10.652344 9.984375 10.960938 9.457031 11.230469 8.90625 C 10.023438 8.746094 10.023438 8.746094 8.914062 9.074219 Z M 11.875 9.3125 C 11.753906 9.550781 11.648438 9.792969 11.550781 10.042969 C 11.410156 10.371094 11.214844 10.667969 11.019531 10.972656 C 10.773438 11.324219 10.773438 11.324219 10.671875 11.71875 C 11.355469 11.71875 12.039062 11.71875 12.742188 11.71875 C 12.824219 11.578125 12.90625 11.441406 12.992188 11.296875 C 13.070312 11.160156 13.152344 11.023438 13.230469 10.886719 C 13.289062 10.789062 13.34375 10.695312 13.398438 10.601562 C 13.914062 9.71875 13.914062 9.71875 14.175781 9.320312 C 14.351562 9.089844 14.351562 9.089844 14.335938 8.90625 C 12.957031 8.679688 12.957031 8.679688 11.875 9.3125 Z M 15.371094 8.90625 C 15.289062 9.046875 15.207031 9.183594 15.125 9.328125 C 15.042969 9.464844 14.964844 9.601562 14.882812 9.738281 C 14.828125 9.835938 14.773438 9.929688 14.71875 10.023438 C 14.199219 10.90625 14.199219 10.90625 13.9375 11.304688 C 13.765625 11.535156 13.765625 11.535156 13.777344 11.71875 C 14.882812 11.71875 15.988281 11.71875 17.125 11.71875 C 17.125 10.789062 17.125 9.863281 17.125 8.90625 C 16.546875 8.90625 15.96875 8.90625 15.371094 8.90625 Z M 15.371094 8.90625 "/>
<path style=" stroke:none;fill-rule:nonzero;fill:rgb(15.686275%,18.82353%,26.666668%);fill-opacity:1;" d="M 7.964844 13.4375 C 8.539062 13.324219 8.945312 13.644531 9.417969 13.929688 C 9.589844 14.03125 9.757812 14.132812 9.929688 14.230469 C 10.011719 14.28125 10.097656 14.332031 10.183594 14.382812 C 10.417969 14.519531 10.652344 14.652344 10.886719 14.785156 C 10.957031 14.824219 11.023438 14.859375 11.097656 14.898438 C 11.226562 14.972656 11.355469 15.042969 11.484375 15.113281 C 12.058594 15.433594 12.058594 15.433594 12.1875 15.703125 C 12.167969 15.929688 12.148438 16.054688 11.976562 16.214844 C 11.921875 16.246094 11.863281 16.28125 11.808594 16.316406 C 11.742188 16.355469 11.675781 16.394531 11.609375 16.433594 C 11.539062 16.476562 11.464844 16.519531 11.390625 16.5625 C 11.308594 16.609375 11.230469 16.65625 11.148438 16.703125 C 10.886719 16.851562 10.625 17 10.359375 17.148438 C 10.179688 17.25 10.003906 17.347656 9.824219 17.449219 C 9.738281 17.496094 9.652344 17.542969 9.566406 17.59375 C 9.269531 17.761719 8.980469 17.9375 8.691406 18.117188 C 8.425781 18.253906 8.257812 18.257812 7.964844 18.203125 C 7.785156 17.941406 7.785156 17.855469 7.785156 17.550781 C 7.785156 17.464844 7.785156 17.382812 7.78125 17.292969 C 7.785156 17.199219 7.785156 17.109375 7.785156 17.015625 C 7.785156 16.917969 7.785156 16.824219 7.785156 16.726562 C 7.785156 16.527344 7.785156 16.328125 7.785156 16.128906 C 7.785156 15.820312 7.785156 15.515625 7.785156 15.207031 C 7.785156 15.015625 7.785156 14.820312 7.785156 14.625 C 7.785156 14.535156 7.785156 14.441406 7.78125 14.347656 C 7.785156 14.261719 7.785156 14.175781 7.785156 14.089844 C 7.785156 14.015625 7.785156 13.9375 7.785156 13.863281 C 7.804688 13.671875 7.804688 13.671875 7.964844 13.4375 Z M 8.679688 14.609375 C 8.679688 15.410156 8.679688 16.207031 8.679688 17.03125 C 9.503906 16.628906 9.503906 16.628906 10.292969 16.179688 C 10.347656 16.148438 10.398438 16.117188 10.453125 16.085938 C 10.578125 16.011719 10.707031 15.933594 10.832031 15.859375 C 10.453125 15.53125 10.015625 15.300781 9.578125 15.058594 C 9.5 15.015625 9.421875 14.972656 9.34375 14.925781 C 9.03125 14.71875 9.03125 14.71875 8.679688 14.609375 Z M 8.679688 14.609375 "/>
<path style=" stroke:none;fill-rule:nonzero;fill:rgb(15.686275%,18.82353%,26.666668%);fill-opacity:1;" d="M 9.394531 19.203125 C 9.636719 19.21875 9.636719 19.21875 9.796875 19.375 C 9.816406 19.609375 9.816406 19.609375 9.796875 19.84375 C 9.636719 20 9.636719 20 9.402344 20.03125 C 9.160156 20 9.160156 20 9 19.867188 C 8.921875 19.6875 8.921875 19.6875 8.980469 19.476562 C 9.121094 19.222656 9.121094 19.222656 9.394531 19.203125 Z M 9.394531 19.203125 "/>
</g>
</svg>
